<svg width="12" height="12" viewBox="0 0 12 12" fill="none" xmlns="http://www.w3.org/2000/svg">
<g clip-path="url(#clip0_215_345)">
<path d="M11.0001 5.53999V5.99999C10.9994 7.0782 10.6503 8.12733 10.0047 8.9909C9.35914 9.85448 8.4517 10.4862 7.41774 10.7919C6.38378 11.0977 5.27869 11.0609 4.2673 10.6873C3.2559 10.3136 2.39239 9.62304 1.80554 8.71853C1.21869 7.81401 0.939957 6.74402 1.0109 5.66815C1.08184 4.59228 1.49866 3.56816 2.1992 2.74853C2.89974 1.9289 3.84645 1.35768 4.89816 1.12007C5.94986 0.882448 7.0502 0.991162 8.03506 1.42999" stroke="#345FFB" stroke-width="1.2" stroke-linecap="round" stroke-linejoin="round"/>
<path d="M11 2L6 7.005L4.5 5.505" stroke="#345FFB" stroke-width="1.2" stroke-linecap="round" stroke-linejoin="round"/>
</g>
<defs>
<clipPath id="clip0_215_345">
<rect width="12" height="12" fill="white"/>
</clipPath>
</defs>
</svg>
