<svg width="362" height="419" viewBox="0 0 362 419" fill="none" xmlns="http://www.w3.org/2000/svg">
<rect width="361.6" height="418.6" rx="20" fill="#D2E6E4"/>
<path d="M286.6 371.5C286.6 377.1 282.1 381.6 276.5 381.6H85.0999C79.4999 381.6 74.9999 377.1 74.9999 371.5V47.1C74.9999 41.5 79.4999 37 85.0999 37H276.5C282.1 37 286.6 41.5 286.6 47.1V371.5Z" fill="white"/>
<path d="M116.115 231.602V247.743H114.16V231.602H116.115ZM128.356 238.349L126.686 238.822C126.581 238.543 126.426 238.273 126.221 238.01C126.021 237.742 125.748 237.521 125.401 237.348C125.054 237.174 124.61 237.088 124.069 237.088C123.328 237.088 122.711 237.259 122.217 237.6C121.728 237.936 121.484 238.365 121.484 238.885C121.484 239.347 121.652 239.712 121.988 239.98C122.325 240.248 122.85 240.471 123.565 240.65L125.362 241.091C126.444 241.354 127.25 241.756 127.781 242.297C128.312 242.833 128.577 243.524 128.577 244.37C128.577 245.064 128.377 245.684 127.978 246.23C127.584 246.776 127.032 247.207 126.323 247.522C125.614 247.838 124.789 247.995 123.848 247.995C122.614 247.995 121.592 247.727 120.783 247.191C119.973 246.656 119.461 245.873 119.246 244.843L121.011 244.402C121.179 245.053 121.497 245.542 121.965 245.867C122.438 246.193 123.055 246.356 123.817 246.356C124.684 246.356 125.372 246.172 125.882 245.804C126.397 245.431 126.654 244.985 126.654 244.465C126.654 244.044 126.507 243.692 126.213 243.408C125.919 243.12 125.467 242.904 124.857 242.762L122.84 242.289C121.731 242.027 120.917 241.619 120.396 241.068C119.882 240.511 119.624 239.815 119.624 238.979C119.624 238.296 119.816 237.692 120.199 237.167C120.588 236.641 121.116 236.229 121.784 235.929C122.456 235.63 123.218 235.48 124.069 235.48C125.267 235.48 126.208 235.743 126.891 236.268C127.579 236.794 128.067 237.487 128.356 238.349ZM133.237 240.461V247.743H131.377V231.602H133.237V237.529H133.395C133.678 236.904 134.104 236.407 134.671 236.04C135.244 235.667 136.006 235.48 136.957 235.48C137.782 235.48 138.504 235.645 139.124 235.977C139.744 236.302 140.225 236.804 140.566 237.482C140.913 238.154 141.087 239.011 141.087 240.051V247.743H139.227V240.177C139.227 239.216 138.977 238.472 138.478 237.947C137.984 237.416 137.298 237.151 136.421 237.151C135.811 237.151 135.265 237.28 134.782 237.537C134.303 237.794 133.925 238.17 133.647 238.664C133.374 239.158 133.237 239.757 133.237 240.461ZM153.955 235.638L149.478 247.743H147.587L143.11 235.638H145.128L148.469 245.284H148.595L151.937 235.638H153.955ZM156.41 247.743V235.638H158.27V247.743H156.41ZM157.355 233.62C156.993 233.62 156.68 233.497 156.418 233.25C156.16 233.003 156.031 232.706 156.031 232.359C156.031 232.012 156.16 231.715 156.418 231.468C156.68 231.222 156.993 231.098 157.355 231.098C157.718 231.098 158.028 231.222 158.285 231.468C158.548 231.715 158.679 232.012 158.679 232.359C158.679 232.706 158.548 233.003 158.285 233.25C158.028 233.497 157.718 233.62 157.355 233.62ZM163.41 243.33L163.379 241.028H163.757L169.053 235.638H171.354L165.711 241.344H165.554L163.41 243.33ZM161.676 247.743V231.602H163.536V247.743H161.676ZM169.368 247.743L164.64 241.753L165.964 240.461L171.733 247.743H169.368ZM186.421 231.602H188.376V243.141C188.376 244.17 188.187 245.045 187.808 245.765C187.43 246.485 186.897 247.031 186.209 247.404C185.52 247.777 184.708 247.964 183.773 247.964C182.891 247.964 182.105 247.804 181.417 247.483C180.728 247.157 180.187 246.695 179.793 246.096C179.399 245.497 179.202 244.785 179.202 243.96H181.125C181.125 244.417 181.238 244.817 181.464 245.158C181.695 245.494 182.01 245.757 182.41 245.946C182.809 246.135 183.264 246.23 183.773 246.23C184.335 246.23 184.814 246.112 185.208 245.875C185.602 245.639 185.901 245.292 186.106 244.835C186.316 244.373 186.421 243.808 186.421 243.141V231.602ZM195.603 248.027C194.836 248.027 194.14 247.882 193.514 247.593C192.889 247.299 192.393 246.876 192.025 246.325C191.657 245.768 191.473 245.095 191.473 244.307C191.473 243.613 191.61 243.051 191.883 242.62C192.156 242.184 192.521 241.843 192.978 241.596C193.436 241.349 193.94 241.165 194.492 241.044C195.049 240.918 195.608 240.818 196.17 240.745C196.906 240.65 197.502 240.579 197.959 240.532C198.422 240.479 198.758 240.393 198.968 240.272C199.184 240.151 199.291 239.941 199.291 239.641V239.578C199.291 238.801 199.079 238.196 198.653 237.766C198.233 237.335 197.594 237.119 196.738 237.119C195.85 237.119 195.154 237.314 194.649 237.702C194.145 238.091 193.79 238.506 193.585 238.948L191.82 238.317C192.135 237.582 192.556 237.009 193.081 236.599C193.612 236.184 194.19 235.895 194.815 235.732C195.445 235.564 196.065 235.48 196.675 235.48C197.064 235.48 197.51 235.527 198.015 235.622C198.524 235.711 199.015 235.898 199.488 236.181C199.966 236.465 200.363 236.893 200.678 237.466C200.994 238.039 201.151 238.806 201.151 239.767V247.743H199.291V246.104H199.197C199.071 246.367 198.86 246.648 198.566 246.947C198.272 247.247 197.881 247.501 197.392 247.712C196.903 247.922 196.307 248.027 195.603 248.027ZM195.887 246.356C196.622 246.356 197.242 246.212 197.747 245.923C198.256 245.634 198.64 245.261 198.897 244.803C199.16 244.346 199.291 243.866 199.291 243.361V241.659C199.213 241.753 199.039 241.84 198.771 241.919C198.508 241.993 198.204 242.058 197.857 242.116C197.515 242.169 197.182 242.216 196.856 242.258C196.536 242.295 196.275 242.326 196.076 242.352C195.592 242.415 195.141 242.518 194.72 242.66C194.305 242.796 193.969 243.004 193.711 243.282C193.459 243.556 193.333 243.929 193.333 244.402C193.333 245.048 193.572 245.536 194.05 245.867C194.534 246.193 195.146 246.356 195.887 246.356ZM205.311 252.283C204.995 252.283 204.714 252.256 204.467 252.204C204.22 252.157 204.05 252.109 203.955 252.062L204.428 250.423C204.88 250.538 205.279 250.58 205.626 250.549C205.973 250.517 206.28 250.362 206.548 250.084C206.821 249.811 207.071 249.367 207.297 248.752L207.643 247.806L203.167 235.638H205.185L208.526 245.284H208.652L211.994 235.638H214.011L208.873 249.509C208.642 250.134 208.355 250.651 208.014 251.061C207.672 251.476 207.276 251.784 206.824 251.983C206.377 252.183 205.873 252.283 205.311 252.283ZM219.66 248.027C218.893 248.027 218.197 247.882 217.572 247.593C216.947 247.299 216.45 246.876 216.082 246.325C215.714 245.768 215.531 245.095 215.531 244.307C215.531 243.613 215.667 243.051 215.94 242.62C216.214 242.184 216.579 241.843 217.036 241.596C217.493 241.349 217.997 241.165 218.549 241.044C219.106 240.918 219.666 240.818 220.228 240.745C220.963 240.65 221.56 240.579 222.017 240.532C222.479 240.479 222.815 240.393 223.026 240.272C223.241 240.151 223.349 239.941 223.349 239.641V239.578C223.349 238.801 223.136 238.196 222.71 237.766C222.29 237.335 221.652 237.119 220.795 237.119C219.907 237.119 219.211 237.314 218.707 237.702C218.202 238.091 217.848 238.506 217.643 238.948L215.877 238.317C216.193 237.582 216.613 237.009 217.138 236.599C217.669 236.184 218.247 235.895 218.872 235.732C219.503 235.564 220.123 235.48 220.732 235.48C221.121 235.48 221.568 235.527 222.072 235.622C222.582 235.711 223.073 235.898 223.546 236.181C224.024 236.465 224.421 236.893 224.736 237.466C225.051 238.039 225.209 238.806 225.209 239.767V247.743H223.349V246.104H223.254C223.128 246.367 222.918 246.648 222.624 246.947C222.329 247.247 221.938 247.501 221.449 247.712C220.961 247.922 220.364 248.027 219.66 248.027ZM219.944 246.356C220.68 246.356 221.3 246.212 221.804 245.923C222.314 245.634 222.697 245.261 222.955 244.803C223.217 244.346 223.349 243.866 223.349 243.361V241.659C223.27 241.753 223.097 241.84 222.829 241.919C222.566 241.993 222.261 242.058 221.914 242.116C221.573 242.169 221.239 242.216 220.913 242.258C220.593 242.295 220.333 242.326 220.133 242.352C219.65 242.415 219.198 242.518 218.778 242.66C218.363 242.796 218.026 243.004 217.769 243.282C217.517 243.556 217.391 243.929 217.391 244.402C217.391 245.048 217.63 245.536 218.108 245.867C218.591 246.193 219.203 246.356 219.944 246.356ZM230.464 240.461V247.743H228.604V235.638H230.4V237.529H230.558C230.842 236.914 231.273 236.42 231.851 236.047C232.429 235.669 233.175 235.48 234.089 235.48C234.909 235.48 235.626 235.648 236.24 235.984C236.855 236.315 237.333 236.82 237.675 237.498C238.016 238.17 238.187 239.021 238.187 240.051V247.743H236.327V240.177C236.327 239.226 236.08 238.485 235.586 237.955C235.092 237.419 234.415 237.151 233.553 237.151C232.959 237.151 232.429 237.28 231.961 237.537C231.499 237.794 231.133 238.17 230.865 238.664C230.597 239.158 230.464 239.757 230.464 240.461Z" fill="#0B7077"/>
<path d="M137.992 284.115V289.35H137.358V284.115H137.992ZM140.879 289.35H139.263V284.115H140.95C141.458 284.115 141.892 284.22 142.254 284.429C142.615 284.637 142.892 284.936 143.084 285.326C143.277 285.715 143.373 286.18 143.373 286.722C143.373 287.267 143.276 287.737 143.082 288.13C142.888 288.522 142.605 288.824 142.233 289.035C141.862 289.245 141.41 289.35 140.879 289.35ZM139.897 288.787H140.838C141.27 288.787 141.629 288.704 141.914 288.537C142.198 288.37 142.411 288.132 142.55 287.824C142.69 287.515 142.76 287.148 142.76 286.722C142.76 286.299 142.691 285.936 142.553 285.631C142.415 285.324 142.209 285.089 141.934 284.925C141.66 284.76 141.318 284.677 140.909 284.677H139.897V288.787ZM150.612 284.115V289.35H149.999L147.146 285.239H147.095V289.35H146.461V284.115H147.074L149.937 288.235H149.988V284.115H150.612ZM154.273 287.744V285.423H154.876V289.35H154.273V288.685H154.232C154.14 288.884 153.997 289.054 153.803 289.194C153.608 289.332 153.363 289.401 153.067 289.401C152.821 289.401 152.603 289.347 152.412 289.24C152.221 289.131 152.071 288.967 151.962 288.749C151.853 288.529 151.799 288.252 151.799 287.918V285.423H152.402V287.877C152.402 288.164 152.482 288.392 152.642 288.562C152.804 288.733 153.01 288.818 153.261 288.818C153.411 288.818 153.563 288.78 153.718 288.703C153.875 288.626 154.006 288.509 154.112 288.35C154.219 288.192 154.273 287.99 154.273 287.744ZM155.981 289.35V285.423H156.564V286.037H156.615C156.697 285.827 156.829 285.665 157.011 285.549C157.194 285.431 157.413 285.372 157.668 285.372C157.927 285.372 158.143 285.431 158.315 285.549C158.489 285.665 158.624 285.827 158.721 286.037H158.762C158.863 285.834 159.013 285.673 159.215 285.554C159.416 285.433 159.657 285.372 159.938 285.372C160.289 285.372 160.576 285.482 160.799 285.702C161.023 285.92 161.134 286.26 161.134 286.722V289.35H160.531V286.722C160.531 286.432 160.452 286.225 160.293 286.101C160.135 285.976 159.948 285.914 159.733 285.914C159.457 285.914 159.244 285.998 159.092 286.165C158.94 286.33 158.864 286.54 158.864 286.794V289.35H158.251V286.661C158.251 286.437 158.178 286.258 158.034 286.121C157.889 285.983 157.702 285.914 157.474 285.914C157.317 285.914 157.171 285.956 157.034 286.039C156.9 286.123 156.791 286.239 156.707 286.387C156.625 286.534 156.584 286.703 156.584 286.896V289.35H155.981ZM162.319 289.35V284.115H162.922V286.047H162.973C163.018 285.979 163.079 285.892 163.157 285.786C163.237 285.679 163.352 285.584 163.5 285.5C163.65 285.415 163.853 285.372 164.108 285.372C164.439 285.372 164.73 285.455 164.982 285.62C165.235 285.786 165.431 286.02 165.573 286.323C165.714 286.627 165.785 286.984 165.785 287.397C165.785 287.813 165.714 288.173 165.573 288.478C165.431 288.781 165.235 289.016 164.985 289.183C164.734 289.349 164.446 289.431 164.118 289.431C163.866 289.431 163.664 289.39 163.513 289.306C163.361 289.221 163.244 289.125 163.162 289.017C163.081 288.908 163.018 288.818 162.973 288.746H162.902V289.35H162.319ZM162.912 287.387C162.912 287.683 162.955 287.945 163.042 288.171C163.129 288.396 163.256 288.573 163.423 288.7C163.59 288.826 163.795 288.89 164.037 288.89C164.289 288.89 164.499 288.823 164.668 288.69C164.838 288.556 164.966 288.375 165.051 288.148C165.138 287.92 165.182 287.666 165.182 287.387C165.182 287.11 165.139 286.862 165.054 286.64C164.97 286.417 164.843 286.241 164.673 286.111C164.504 285.98 164.292 285.914 164.037 285.914C163.791 285.914 163.585 285.976 163.418 286.101C163.251 286.224 163.125 286.396 163.04 286.617C162.955 286.837 162.912 287.093 162.912 287.387ZM168.354 289.431C167.975 289.431 167.649 289.348 167.375 289.181C167.102 289.012 166.892 288.777 166.743 288.475C166.597 288.172 166.524 287.819 166.524 287.417C166.524 287.015 166.597 286.661 166.743 286.354C166.892 286.045 167.098 285.805 167.362 285.633C167.628 285.459 167.938 285.372 168.292 285.372C168.497 285.372 168.699 285.406 168.898 285.475C169.098 285.543 169.279 285.654 169.443 285.807C169.606 285.959 169.737 286.16 169.834 286.41C169.931 286.661 169.979 286.969 169.979 287.335V287.591H166.953V287.07H169.366C169.366 286.848 169.322 286.65 169.233 286.477C169.146 286.303 169.022 286.166 168.86 286.065C168.7 285.965 168.511 285.914 168.292 285.914C168.052 285.914 167.844 285.974 167.669 286.093C167.495 286.211 167.361 286.364 167.267 286.553C167.174 286.742 167.127 286.945 167.127 287.162V287.509C167.127 287.806 167.178 288.057 167.28 288.263C167.384 288.468 167.528 288.624 167.712 288.731C167.896 288.837 168.11 288.89 168.354 288.89C168.512 288.89 168.655 288.867 168.783 288.823C168.913 288.777 169.024 288.709 169.118 288.619C169.212 288.527 169.284 288.412 169.335 288.276L169.918 288.44C169.857 288.637 169.754 288.811 169.609 288.961C169.464 289.109 169.285 289.225 169.072 289.309C168.859 289.391 168.62 289.431 168.354 289.431ZM170.897 289.35V285.423H171.48V286.016H171.521C171.592 285.822 171.722 285.665 171.909 285.544C172.097 285.423 172.308 285.362 172.543 285.362C172.587 285.362 172.643 285.363 172.709 285.365C172.776 285.366 172.826 285.369 172.86 285.372V285.986C172.84 285.981 172.793 285.973 172.72 285.963C172.648 285.951 172.572 285.945 172.492 285.945C172.301 285.945 172.131 285.985 171.981 286.065C171.833 286.143 171.715 286.253 171.628 286.392C171.543 286.53 171.5 286.688 171.5 286.865V289.35H170.897ZM176.039 288.68C175.913 288.68 175.805 288.635 175.715 288.544C175.624 288.454 175.579 288.346 175.579 288.22C175.579 288.094 175.624 287.986 175.715 287.895C175.805 287.805 175.913 287.76 176.039 287.76C176.165 287.76 176.274 287.805 176.364 287.895C176.454 287.986 176.499 288.094 176.499 288.22C176.499 288.303 176.478 288.38 176.435 288.45C176.395 288.52 176.339 288.576 176.269 288.619C176.201 288.659 176.124 288.68 176.039 288.68ZM176.039 286.032C175.913 286.032 175.805 285.987 175.715 285.896C175.624 285.806 175.579 285.698 175.579 285.572C175.579 285.446 175.624 285.337 175.715 285.247C175.805 285.157 175.913 285.112 176.039 285.112C176.165 285.112 176.274 285.157 176.364 285.247C176.454 285.337 176.499 285.446 176.499 285.572C176.499 285.655 176.478 285.732 176.435 285.802C176.395 285.872 176.339 285.928 176.269 285.97C176.201 286.011 176.124 286.032 176.039 286.032ZM181.303 289.421C180.918 289.421 180.59 289.316 180.319 289.107C180.048 288.895 179.841 288.59 179.698 288.189C179.555 287.787 179.484 287.301 179.484 286.732C179.484 286.166 179.555 285.683 179.698 285.283C179.843 284.881 180.051 284.574 180.322 284.363C180.595 284.15 180.922 284.043 181.303 284.043C181.685 284.043 182.012 284.15 182.282 284.363C182.555 284.574 182.763 284.881 182.906 285.283C183.051 285.683 183.123 286.166 183.123 286.732C183.123 287.301 183.052 287.787 182.909 288.189C182.766 288.59 182.559 288.895 182.288 289.107C182.017 289.316 181.689 289.421 181.303 289.421ZM181.303 288.859C181.685 288.859 181.982 288.675 182.193 288.307C182.404 287.939 182.51 287.414 182.51 286.732C182.51 286.279 182.461 285.893 182.364 285.574C182.269 285.256 182.131 285.013 181.95 284.846C181.771 284.679 181.556 284.595 181.303 284.595C180.925 284.595 180.63 284.782 180.417 285.155C180.204 285.527 180.097 286.052 180.097 286.732C180.097 287.185 180.145 287.571 180.24 287.888C180.336 288.204 180.473 288.446 180.652 288.611C180.832 288.776 181.05 288.859 181.303 288.859ZM185.935 284.115V289.35H185.301V284.779H185.271L183.992 285.628V284.984L185.301 284.115H185.935ZM187.441 289.35V288.89L189.169 286.998C189.371 286.776 189.538 286.584 189.67 286.42C189.801 286.255 189.898 286.1 189.961 285.955C190.026 285.809 190.058 285.655 190.058 285.495C190.058 285.311 190.014 285.152 189.925 285.017C189.838 284.882 189.719 284.778 189.567 284.705C189.416 284.632 189.245 284.595 189.056 284.595C188.855 284.595 188.679 284.637 188.53 284.721C188.381 284.802 188.266 284.917 188.184 285.066C188.104 285.214 188.064 285.388 188.064 285.587H187.461C187.461 285.28 187.532 285.011 187.673 284.779C187.815 284.548 188.007 284.367 188.251 284.237C188.496 284.108 188.771 284.043 189.077 284.043C189.383 284.043 189.655 284.108 189.892 284.237C190.129 284.367 190.314 284.542 190.449 284.761C190.584 284.981 190.651 285.226 190.651 285.495C190.651 285.688 190.616 285.876 190.546 286.06C190.478 286.242 190.359 286.446 190.188 286.671C190.02 286.894 189.785 287.167 189.485 287.489L188.31 288.746V288.787H190.743V289.35H187.441ZM193.639 284.115V289.35H193.005V284.779H192.975L191.696 285.628V284.984L193.005 284.115H193.639ZM197.169 289.35V288.89L198.897 286.998C199.1 286.776 199.267 286.584 199.398 286.42C199.529 286.255 199.626 286.1 199.689 285.955C199.754 285.809 199.786 285.655 199.786 285.495C199.786 285.311 199.742 285.152 199.654 285.017C199.567 284.882 199.447 284.778 199.296 284.705C199.144 284.632 198.974 284.595 198.784 284.595C198.583 284.595 198.408 284.637 198.258 284.721C198.11 284.802 197.995 284.917 197.913 285.066C197.833 285.214 197.793 285.388 197.793 285.587H197.189C197.189 285.28 197.26 285.011 197.402 284.779C197.543 284.548 197.736 284.367 197.979 284.237C198.225 284.108 198.5 284.043 198.805 284.043C199.112 284.043 199.383 284.108 199.62 284.237C199.857 284.367 200.043 284.542 200.178 284.761C200.312 284.981 200.379 285.226 200.379 285.495C200.379 285.688 200.345 285.876 200.275 286.06C200.206 286.242 200.087 286.446 199.917 286.671C199.748 286.894 199.514 287.167 199.214 287.489L198.038 288.746V288.787H200.471V289.35H197.169ZM203.296 289.421C202.959 289.421 202.658 289.363 202.394 289.247C202.131 289.131 201.922 288.97 201.767 288.764C201.614 288.556 201.531 288.315 201.517 288.041H202.161C202.175 288.21 202.233 288.355 202.335 288.478C202.437 288.599 202.571 288.693 202.736 288.759C202.901 288.826 203.085 288.859 203.286 288.859C203.511 288.859 203.71 288.82 203.884 288.741C204.058 288.663 204.194 288.554 204.293 288.414C204.392 288.274 204.441 288.112 204.441 287.928C204.441 287.736 204.393 287.566 204.298 287.42C204.202 287.272 204.063 287.156 203.879 287.072C203.695 286.989 203.47 286.947 203.204 286.947H202.785V286.385H203.204C203.412 286.385 203.594 286.347 203.751 286.272C203.909 286.197 204.033 286.091 204.122 285.955C204.212 285.819 204.257 285.659 204.257 285.475C204.257 285.297 204.218 285.143 204.139 285.012C204.061 284.881 203.95 284.778 203.807 284.705C203.666 284.632 203.499 284.595 203.306 284.595C203.126 284.595 202.955 284.629 202.795 284.695C202.636 284.76 202.507 284.854 202.406 284.979C202.306 285.101 202.251 285.25 202.243 285.423H201.629C201.64 285.149 201.722 284.909 201.877 284.703C202.032 284.495 202.235 284.333 202.486 284.217C202.738 284.101 203.015 284.043 203.316 284.043C203.64 284.043 203.918 284.109 204.15 284.24C204.381 284.37 204.559 284.541 204.684 284.754C204.808 284.967 204.87 285.197 204.87 285.444C204.87 285.739 204.793 285.99 204.638 286.198C204.485 286.406 204.276 286.55 204.012 286.63V286.671C204.342 286.725 204.6 286.866 204.786 287.093C204.972 287.318 205.065 287.596 205.065 287.928C205.065 288.213 204.987 288.469 204.832 288.695C204.679 288.92 204.469 289.097 204.203 289.227C203.938 289.356 203.635 289.421 203.296 289.421ZM206.274 289.35L208.615 284.718V284.677H205.916V284.115H209.269V284.708L206.938 289.35H206.274ZM211.848 289.421C211.633 289.418 211.418 289.377 211.204 289.298C210.989 289.22 210.793 289.088 210.616 288.902C210.439 288.715 210.296 288.462 210.189 288.143C210.082 287.823 210.028 287.421 210.028 286.937C210.028 286.473 210.071 286.063 210.158 285.705C210.245 285.345 210.371 285.043 210.537 284.797C210.702 284.55 210.901 284.363 211.135 284.235C211.37 284.107 211.635 284.043 211.93 284.043C212.223 284.043 212.484 284.102 212.712 284.22C212.942 284.335 213.129 284.497 213.274 284.705C213.419 284.913 213.513 285.153 213.555 285.423H212.932C212.874 285.188 212.761 284.993 212.594 284.838C212.427 284.683 212.206 284.606 211.93 284.606C211.524 284.606 211.205 284.782 210.971 285.135C210.739 285.487 210.623 285.982 210.621 286.62H210.662C210.757 286.475 210.871 286.351 211.002 286.249C211.135 286.145 211.281 286.065 211.441 286.009C211.602 285.953 211.771 285.924 211.95 285.924C212.25 285.924 212.524 285.999 212.773 286.149C213.022 286.298 213.221 286.503 213.371 286.765C213.521 287.026 213.596 287.325 213.596 287.663C213.596 287.986 213.524 288.283 213.379 288.552C213.234 288.82 213.031 289.033 212.768 289.191C212.507 289.348 212.201 289.425 211.848 289.421ZM211.848 288.859C212.063 288.859 212.255 288.805 212.426 288.698C212.598 288.59 212.733 288.446 212.832 288.266C212.933 288.085 212.983 287.884 212.983 287.663C212.983 287.446 212.934 287.249 212.837 287.072C212.742 286.893 212.61 286.751 212.441 286.645C212.274 286.54 212.083 286.487 211.868 286.487C211.706 286.487 211.556 286.519 211.416 286.584C211.276 286.647 211.154 286.734 211.048 286.845C210.944 286.955 210.862 287.082 210.802 287.226C210.743 287.367 210.713 287.516 210.713 287.673C210.713 287.881 210.762 288.075 210.859 288.256C210.958 288.436 211.092 288.582 211.263 288.693C211.435 288.803 211.63 288.859 211.848 288.859ZM218.466 284.115V289.35H217.832V284.779H217.802L216.524 285.628V284.984L217.832 284.115H218.466ZM221.996 289.35V288.89L223.724 286.998C223.927 286.776 224.094 286.584 224.225 286.42C224.356 286.255 224.453 286.1 224.516 285.955C224.581 285.809 224.614 285.655 224.614 285.495C224.614 285.311 224.569 285.152 224.481 285.017C224.394 284.882 224.274 284.778 224.123 284.705C223.971 284.632 223.801 284.595 223.612 284.595C223.411 284.595 223.235 284.637 223.085 284.721C222.937 284.802 222.822 284.917 222.74 285.066C222.66 285.214 222.62 285.388 222.62 285.587H222.017C222.017 285.28 222.087 285.011 222.229 284.779C222.37 284.548 222.563 284.367 222.806 284.237C223.052 284.108 223.327 284.043 223.632 284.043C223.939 284.043 224.211 284.108 224.447 284.237C224.684 284.367 224.87 284.542 225.005 284.761C225.139 284.981 225.207 285.226 225.207 285.495C225.207 285.688 225.172 285.876 225.102 286.06C225.034 286.242 224.914 286.446 224.744 286.671C224.575 286.894 224.341 287.167 224.041 287.489L222.865 288.746V288.787H225.299V289.35H221.996ZM228.021 284.043C228.236 284.045 228.45 284.086 228.665 284.166C228.88 284.246 229.076 284.379 229.253 284.565C229.43 284.749 229.572 285 229.68 285.319C229.787 285.637 229.841 286.037 229.841 286.517C229.841 286.983 229.796 287.396 229.708 287.757C229.621 288.117 229.495 288.42 229.33 288.667C229.166 288.914 228.967 289.102 228.731 289.229C228.498 289.357 228.234 289.421 227.939 289.421C227.646 289.421 227.384 289.363 227.154 289.247C226.926 289.13 226.739 288.967 226.592 288.759C226.447 288.55 226.354 288.307 226.313 288.031H226.937C226.993 288.271 227.105 288.469 227.272 288.626C227.441 288.781 227.663 288.859 227.939 288.859C228.343 288.859 228.662 288.682 228.895 288.33C229.13 287.977 229.248 287.479 229.248 286.834H229.207C229.111 286.978 228.998 287.101 228.867 287.205C228.736 287.309 228.59 287.389 228.43 287.445C228.27 287.502 228.099 287.53 227.919 287.53C227.619 287.53 227.343 287.456 227.093 287.307C226.844 287.157 226.645 286.952 226.495 286.691C226.347 286.429 226.272 286.129 226.272 285.792C226.272 285.471 226.344 285.178 226.487 284.912C226.632 284.645 226.835 284.432 227.096 284.273C227.358 284.115 227.666 284.038 228.021 284.043ZM228.021 284.606C227.806 284.606 227.613 284.659 227.441 284.767C227.27 284.872 227.135 285.015 227.034 285.196C226.935 285.375 226.886 285.573 226.886 285.792C226.886 286.01 226.934 286.208 227.029 286.387C227.126 286.564 227.258 286.706 227.425 286.811C227.594 286.915 227.786 286.967 228 286.967C228.162 286.967 228.313 286.936 228.453 286.873C228.593 286.808 228.714 286.72 228.818 286.609C228.924 286.497 229.007 286.37 229.066 286.229C229.126 286.086 229.156 285.936 229.156 285.781C229.156 285.577 229.106 285.385 229.007 285.206C228.91 285.027 228.776 284.882 228.604 284.772C228.433 284.661 228.239 284.606 228.021 284.606ZM232.686 284.115V289.35H232.052V284.779H232.022L230.744 285.628V284.984L232.052 284.115H232.686Z" fill="#535352"/>
<path d="M141.592 292.715V297.95H140.958V292.715H141.592ZM145.562 294.903L145.02 295.056C144.986 294.966 144.936 294.878 144.87 294.793C144.805 294.706 144.716 294.634 144.604 294.578C144.491 294.522 144.347 294.494 144.172 294.494C143.932 294.494 143.731 294.549 143.571 294.66C143.413 294.769 143.333 294.908 143.333 295.077C143.333 295.227 143.388 295.345 143.497 295.432C143.606 295.519 143.776 295.591 144.008 295.649L144.591 295.792C144.942 295.878 145.204 296.008 145.376 296.183C145.548 296.357 145.634 296.581 145.634 296.856C145.634 297.081 145.569 297.282 145.44 297.459C145.312 297.636 145.133 297.776 144.903 297.878C144.673 297.98 144.405 298.032 144.1 298.032C143.7 298.032 143.368 297.945 143.106 297.771C142.844 297.597 142.677 297.343 142.607 297.009L143.18 296.866C143.235 297.077 143.338 297.236 143.489 297.341C143.643 297.447 143.843 297.5 144.09 297.5C144.371 297.5 144.594 297.44 144.76 297.321C144.927 297.2 145.01 297.055 145.01 296.886C145.01 296.75 144.962 296.636 144.867 296.544C144.772 296.45 144.625 296.38 144.427 296.334L143.773 296.181C143.414 296.096 143.149 295.964 142.981 295.785C142.814 295.604 142.73 295.378 142.73 295.107C142.73 294.886 142.792 294.69 142.917 294.519C143.043 294.349 143.214 294.215 143.431 294.118C143.649 294.021 143.896 293.972 144.172 293.972C144.56 293.972 144.865 294.058 145.087 294.228C145.31 294.398 145.469 294.623 145.562 294.903ZM147.145 295.588V297.95H146.542V292.715H147.145V294.637H147.196C147.288 294.434 147.426 294.273 147.61 294.154C147.796 294.033 148.043 293.972 148.352 293.972C148.619 293.972 148.853 294.026 149.055 294.133C149.256 294.239 149.412 294.402 149.522 294.622C149.635 294.84 149.691 295.118 149.691 295.455V297.95H149.088V295.496C149.088 295.184 149.007 294.943 148.845 294.773C148.685 294.6 148.462 294.514 148.178 294.514C147.98 294.514 147.803 294.556 147.646 294.64C147.491 294.723 147.368 294.845 147.278 295.005C147.189 295.165 147.145 295.36 147.145 295.588ZM153.864 294.024L152.413 297.95H151.799L150.347 294.024H151.002L152.085 297.152H152.126L153.21 294.024H153.864ZM154.661 297.95V294.024H155.264V297.95H154.661ZM154.967 293.369C154.85 293.369 154.748 293.329 154.663 293.249C154.58 293.169 154.538 293.073 154.538 292.96C154.538 292.848 154.58 292.752 154.663 292.671C154.748 292.591 154.85 292.551 154.967 292.551C155.085 292.551 155.185 292.591 155.269 292.671C155.354 292.752 155.397 292.848 155.397 292.96C155.397 293.073 155.354 293.169 155.269 293.249C155.185 293.329 155.085 293.369 154.967 293.369ZM156.931 296.518L156.921 295.772H157.044L158.761 294.024H159.508L157.677 295.874H157.626L156.931 296.518ZM156.369 297.95V292.715H156.972V297.95H156.369ZM158.863 297.95L157.33 296.007L157.759 295.588L159.63 297.95H158.863ZM163.3 299.33C162.779 299.33 162.318 299.258 161.917 299.115C161.517 298.974 161.18 298.765 160.908 298.489C160.635 298.213 160.429 297.875 160.289 297.474C160.149 297.074 160.08 296.615 160.08 296.099C160.08 295.6 160.15 295.153 160.292 294.76C160.435 294.366 160.642 294.032 160.913 293.758C161.185 293.482 161.516 293.271 161.905 293.126C162.295 292.982 162.736 292.909 163.229 292.909C163.707 292.909 164.127 292.988 164.486 293.144C164.847 293.299 165.149 293.51 165.391 293.776C165.635 294.04 165.817 294.337 165.938 294.668C166.061 294.998 166.122 295.339 166.122 295.69C166.122 295.937 166.11 296.188 166.086 296.442C166.062 296.696 166.012 296.929 165.935 297.142C165.859 297.353 165.74 297.524 165.58 297.653C165.422 297.783 165.207 297.847 164.936 297.847C164.817 297.847 164.686 297.829 164.542 297.791C164.399 297.754 164.272 297.692 164.162 297.605C164.051 297.518 163.985 297.401 163.965 297.254H163.934C163.893 297.353 163.83 297.447 163.745 297.536C163.661 297.624 163.552 297.695 163.415 297.748C163.281 297.801 163.116 297.824 162.922 297.817C162.7 297.808 162.505 297.759 162.337 297.669C162.168 297.577 162.026 297.452 161.912 297.295C161.8 297.137 161.715 296.954 161.657 296.746C161.6 296.536 161.572 296.31 161.572 296.068C161.572 295.838 161.606 295.628 161.675 295.437C161.743 295.246 161.837 295.079 161.958 294.936C162.081 294.793 162.224 294.679 162.388 294.594C162.553 294.507 162.731 294.453 162.922 294.433C163.092 294.416 163.247 294.423 163.387 294.456C163.527 294.486 163.642 294.533 163.732 294.596C163.822 294.657 163.88 294.726 163.903 294.801H163.934V294.514H164.476V296.825C164.476 296.968 164.516 297.094 164.596 297.203C164.676 297.312 164.793 297.367 164.946 297.367C165.12 297.367 165.253 297.307 165.345 297.188C165.439 297.069 165.503 296.885 165.537 296.636C165.573 296.387 165.59 296.068 165.59 295.68C165.59 295.452 165.559 295.227 165.496 295.005C165.434 294.782 165.341 294.573 165.215 294.379C165.09 294.185 164.933 294.013 164.742 293.865C164.551 293.717 164.327 293.601 164.07 293.517C163.814 293.432 163.523 293.39 163.198 293.39C162.797 293.39 162.439 293.452 162.122 293.576C161.807 293.699 161.538 293.879 161.317 294.116C161.097 294.351 160.929 294.637 160.813 294.974C160.699 295.31 160.642 295.692 160.642 296.12C160.642 296.554 160.699 296.94 160.813 297.277C160.929 297.615 161.099 297.899 161.324 298.131C161.551 298.363 161.831 298.538 162.165 298.658C162.499 298.779 162.884 298.839 163.321 298.839C163.508 298.839 163.693 298.821 163.875 298.786C164.058 298.75 164.219 298.711 164.358 298.668C164.498 298.625 164.599 298.594 164.66 298.573L164.803 299.044C164.697 299.088 164.559 299.132 164.389 299.177C164.22 299.221 164.04 299.258 163.847 299.287C163.656 299.316 163.474 299.33 163.3 299.33ZM163.004 297.295C163.232 297.295 163.417 297.249 163.558 297.157C163.7 297.065 163.803 296.926 163.868 296.741C163.932 296.555 163.965 296.321 163.965 296.038C163.965 295.751 163.929 295.528 163.857 295.368C163.786 295.208 163.68 295.095 163.54 295.031C163.401 294.966 163.229 294.934 163.024 294.934C162.83 294.934 162.664 294.985 162.526 295.087C162.389 295.187 162.285 295.322 162.211 295.491C162.14 295.658 162.104 295.84 162.104 296.038C162.104 296.256 162.133 296.461 162.191 296.654C162.249 296.845 162.343 297 162.475 297.119C162.606 297.237 162.782 297.295 163.004 297.295ZM171.524 295.332C171.524 295.884 171.424 296.362 171.225 296.764C171.025 297.166 170.752 297.476 170.404 297.694C170.057 297.912 169.659 298.021 169.213 298.021C168.767 298.021 168.37 297.912 168.022 297.694C167.674 297.476 167.401 297.166 167.201 296.764C167.002 296.362 166.902 295.884 166.902 295.332C166.902 294.78 167.002 294.303 167.201 293.901C167.401 293.499 167.674 293.189 168.022 292.97C168.37 292.752 168.767 292.643 169.213 292.643C169.659 292.643 170.057 292.752 170.404 292.97C170.752 293.189 171.025 293.499 171.225 293.901C171.424 294.303 171.524 294.78 171.524 295.332ZM170.91 295.332C170.91 294.879 170.834 294.496 170.683 294.185C170.533 293.873 170.329 293.637 170.072 293.477C169.816 293.316 169.53 293.236 169.213 293.236C168.896 293.236 168.609 293.316 168.352 293.477C168.096 293.637 167.892 293.873 167.741 294.185C167.591 294.496 167.516 294.879 167.516 295.332C167.516 295.786 167.591 296.168 167.741 296.48C167.892 296.792 168.096 297.028 168.352 297.188C168.609 297.348 168.896 297.428 169.213 297.428C169.53 297.428 169.816 297.348 170.072 297.188C170.329 297.028 170.533 296.792 170.683 296.48C170.834 296.168 170.91 295.786 170.91 295.332ZM172.508 297.95V294.024H173.091V294.617H173.131C173.203 294.422 173.333 294.265 173.52 294.144C173.707 294.023 173.919 293.962 174.154 293.962C174.198 293.962 174.254 293.963 174.32 293.965C174.387 293.966 174.437 293.969 174.471 293.972V294.586C174.45 294.581 174.404 294.573 174.33 294.563C174.259 294.551 174.183 294.545 174.103 294.545C173.912 294.545 173.742 294.585 173.592 294.665C173.443 294.744 173.326 294.853 173.239 294.992C173.154 295.13 173.111 295.288 173.111 295.465V297.95H172.508ZM176.661 298.032C176.293 298.032 175.976 297.945 175.711 297.771C175.445 297.597 175.24 297.358 175.097 297.053C174.954 296.748 174.882 296.399 174.882 296.007C174.882 295.608 174.956 295.256 175.102 294.951C175.25 294.645 175.457 294.405 175.721 294.233C175.987 294.059 176.297 293.972 176.651 293.972C176.927 293.972 177.176 294.024 177.398 294.126C177.619 294.228 177.801 294.371 177.942 294.555C178.083 294.739 178.171 294.954 178.205 295.199H177.602C177.556 295.02 177.454 294.862 177.295 294.724C177.139 294.584 176.927 294.514 176.661 294.514C176.426 294.514 176.22 294.576 176.043 294.698C175.867 294.819 175.73 294.991 175.631 295.212C175.534 295.432 175.486 295.69 175.486 295.987C175.486 296.29 175.533 296.554 175.629 296.779C175.726 297.004 175.862 297.179 176.038 297.303C176.215 297.427 176.423 297.49 176.661 297.49C176.818 297.49 176.96 297.462 177.088 297.408C177.216 297.353 177.324 297.275 177.413 297.173C177.502 297.07 177.565 296.948 177.602 296.805H178.205C178.171 297.036 178.087 297.245 177.952 297.431C177.819 297.615 177.643 297.761 177.423 297.87C177.205 297.978 176.951 298.032 176.661 298.032ZM179.69 295.588V297.95H179.087V292.715H179.69V294.637H179.741C179.833 294.434 179.972 294.273 180.156 294.154C180.341 294.033 180.588 293.972 180.897 293.972C181.164 293.972 181.399 294.026 181.6 294.133C181.801 294.239 181.957 294.402 182.067 294.622C182.18 294.84 182.236 295.118 182.236 295.455V297.95H181.633V295.496C181.633 295.184 181.552 294.943 181.39 294.773C181.23 294.6 181.008 294.514 180.723 294.514C180.525 294.514 180.348 294.556 180.191 294.64C180.036 294.723 179.914 294.845 179.823 295.005C179.735 295.165 179.69 295.36 179.69 295.588ZM183.34 297.95V294.024H183.943V297.95H183.34ZM183.647 293.369C183.529 293.369 183.428 293.329 183.342 293.249C183.259 293.169 183.217 293.073 183.217 292.96C183.217 292.848 183.259 292.752 183.342 292.671C183.428 292.591 183.529 292.551 183.647 292.551C183.764 292.551 183.865 292.591 183.948 292.671C184.033 292.752 184.076 292.848 184.076 292.96C184.076 293.073 184.033 293.169 183.948 293.249C183.865 293.329 183.764 293.369 183.647 293.369ZM186.53 298.032C186.203 298.032 185.914 297.949 185.664 297.784C185.413 297.617 185.217 297.381 185.076 297.078C184.935 296.773 184.864 296.413 184.864 295.997C184.864 295.584 184.935 295.227 185.076 294.923C185.217 294.62 185.414 294.386 185.666 294.22C185.919 294.055 186.21 293.972 186.541 293.972C186.796 293.972 186.998 294.015 187.146 294.1C187.296 294.184 187.411 294.279 187.489 294.387C187.569 294.492 187.631 294.579 187.676 294.647H187.727V292.715H188.33V297.95H187.747V297.346H187.676C187.631 297.418 187.568 297.508 187.486 297.617C187.405 297.725 187.288 297.821 187.136 297.906C186.985 297.99 186.783 298.032 186.53 298.032ZM186.612 297.49C186.854 297.49 187.059 297.427 187.226 297.3C187.393 297.173 187.52 296.996 187.607 296.771C187.693 296.545 187.737 296.283 187.737 295.987C187.737 295.694 187.694 295.437 187.609 295.217C187.524 294.996 187.398 294.824 187.231 294.701C187.064 294.577 186.858 294.514 186.612 294.514C186.357 294.514 186.144 294.58 185.973 294.711C185.804 294.841 185.678 295.017 185.592 295.24C185.509 295.462 185.467 295.711 185.467 295.987C185.467 296.266 185.51 296.52 185.595 296.748C185.682 296.975 185.81 297.156 185.978 297.29C186.149 297.423 186.36 297.49 186.612 297.49ZM192.299 294.903L191.758 295.056C191.723 294.966 191.673 294.878 191.607 294.793C191.542 294.706 191.453 294.634 191.341 294.578C191.228 294.522 191.084 294.494 190.909 294.494C190.669 294.494 190.468 294.549 190.308 294.66C190.15 294.769 190.071 294.908 190.071 295.077C190.071 295.227 190.125 295.345 190.234 295.432C190.343 295.519 190.514 295.591 190.745 295.649L191.328 295.792C191.679 295.878 191.941 296.008 192.113 296.183C192.285 296.357 192.371 296.581 192.371 296.856C192.371 297.081 192.306 297.282 192.177 297.459C192.049 297.636 191.87 297.776 191.64 297.878C191.41 297.98 191.142 298.032 190.837 298.032C190.437 298.032 190.105 297.945 189.843 297.771C189.581 297.597 189.415 297.343 189.345 297.009L189.917 296.866C189.972 297.077 190.075 297.236 190.226 297.341C190.38 297.447 190.58 297.5 190.827 297.5C191.108 297.5 191.332 297.44 191.497 297.321C191.664 297.2 191.747 297.055 191.747 296.886C191.747 296.75 191.7 296.636 191.604 296.544C191.509 296.45 191.362 296.38 191.165 296.334L190.51 296.181C190.151 296.096 189.887 295.964 189.718 295.785C189.551 295.604 189.467 295.378 189.467 295.107C189.467 294.886 189.53 294.69 189.654 294.519C189.78 294.349 189.951 294.215 190.168 294.118C190.386 294.021 190.633 293.972 190.909 293.972C191.297 293.972 191.603 294.058 191.824 294.228C192.047 294.398 192.206 294.623 192.299 294.903ZM193.668 299.422C193.565 299.422 193.474 299.413 193.394 299.396C193.314 299.381 193.259 299.366 193.228 299.35L193.381 298.819C193.528 298.856 193.657 298.87 193.77 298.86C193.882 298.849 193.982 298.799 194.069 298.709C194.158 298.62 194.238 298.476 194.312 298.277L194.424 297.97L192.972 294.024H193.627L194.71 297.152H194.751L195.835 294.024H196.489L194.823 298.522C194.748 298.725 194.655 298.893 194.544 299.026C194.434 299.16 194.305 299.26 194.158 299.325C194.014 299.39 193.85 299.422 193.668 299.422ZM197.479 297.991C197.353 297.991 197.245 297.945 197.155 297.855C197.064 297.765 197.019 297.657 197.019 297.531C197.019 297.404 197.064 297.296 197.155 297.206C197.245 297.116 197.353 297.07 197.479 297.07C197.605 297.07 197.714 297.116 197.804 297.206C197.894 297.296 197.939 297.404 197.939 297.531C197.939 297.614 197.918 297.691 197.876 297.761C197.835 297.83 197.779 297.887 197.709 297.929C197.641 297.97 197.565 297.991 197.479 297.991ZM200.617 298.032C200.249 298.032 199.932 297.945 199.666 297.771C199.4 297.597 199.196 297.358 199.053 297.053C198.909 296.748 198.838 296.399 198.838 296.007C198.838 295.608 198.911 295.256 199.058 294.951C199.206 294.645 199.412 294.405 199.676 294.233C199.942 294.059 200.252 293.972 200.607 293.972C200.883 293.972 201.132 294.024 201.353 294.126C201.575 294.228 201.756 294.371 201.898 294.555C202.039 294.739 202.127 294.954 202.161 295.199H201.558C201.512 295.02 201.409 294.862 201.251 294.724C201.094 294.584 200.883 294.514 200.617 294.514C200.382 294.514 200.176 294.576 199.998 294.698C199.823 294.819 199.686 294.991 199.587 295.212C199.49 295.432 199.441 295.69 199.441 295.987C199.441 296.29 199.489 296.554 199.584 296.779C199.681 297.004 199.818 297.179 199.993 297.303C200.17 297.427 200.378 297.49 200.617 297.49C200.774 297.49 200.916 297.462 201.044 297.408C201.172 297.353 201.28 297.275 201.368 297.173C201.457 297.07 201.52 296.948 201.558 296.805H202.161C202.127 297.036 202.042 297.245 201.908 297.431C201.775 297.615 201.598 297.761 201.379 297.87C201.161 297.978 200.907 298.032 200.617 298.032ZM204.638 298.032C204.283 298.032 203.972 297.947 203.705 297.778C203.439 297.61 203.231 297.374 203.081 297.07C202.933 296.767 202.859 296.413 202.859 296.007C202.859 295.598 202.933 295.241 203.081 294.936C203.231 294.631 203.439 294.394 203.705 294.226C203.972 294.057 204.283 293.972 204.638 293.972C204.992 293.972 205.302 294.057 205.568 294.226C205.836 294.394 206.043 294.631 206.192 294.936C206.342 295.241 206.417 295.598 206.417 296.007C206.417 296.413 206.342 296.767 206.192 297.07C206.043 297.374 205.836 297.61 205.568 297.778C205.302 297.947 204.992 298.032 204.638 298.032ZM204.638 297.49C204.907 297.49 205.128 297.421 205.302 297.283C205.476 297.145 205.605 296.963 205.688 296.738C205.772 296.513 205.813 296.27 205.813 296.007C205.813 295.745 205.772 295.5 205.688 295.273C205.605 295.047 205.476 294.864 205.302 294.724C205.128 294.584 204.907 294.514 204.638 294.514C204.368 294.514 204.147 294.584 203.973 294.724C203.799 294.864 203.671 295.047 203.587 295.273C203.504 295.5 203.462 295.745 203.462 296.007C203.462 296.27 203.504 296.513 203.587 296.738C203.671 296.963 203.799 297.145 203.973 297.283C204.147 297.421 204.368 297.49 204.638 297.49ZM207.337 297.95V294.024H207.92V294.637H207.971C208.053 294.427 208.185 294.265 208.368 294.149C208.55 294.031 208.769 293.972 209.024 293.972C209.283 293.972 209.499 294.031 209.671 294.149C209.845 294.265 209.98 294.427 210.078 294.637H210.118C210.219 294.434 210.37 294.273 210.571 294.154C210.772 294.033 211.013 293.972 211.294 293.972C211.645 293.972 211.932 294.082 212.156 294.302C212.379 294.52 212.491 294.86 212.491 295.322V297.95H211.887V295.322C211.887 295.032 211.808 294.825 211.65 294.701C211.491 294.577 211.304 294.514 211.09 294.514C210.814 294.514 210.6 294.598 210.448 294.765C210.297 294.93 210.221 295.14 210.221 295.394V297.95H209.607V295.261C209.607 295.037 209.535 294.858 209.39 294.721C209.245 294.583 209.059 294.514 208.83 294.514C208.673 294.514 208.527 294.556 208.391 294.64C208.256 294.723 208.147 294.839 208.063 294.987C207.982 295.134 207.941 295.303 207.941 295.496V297.95H207.337Z" fill="#535352"/>
<path d="M151.61 305.729V302.355H152.183V305.729H151.61ZM150.209 304.329V303.756H153.583V304.329H150.209ZM156.518 306.721C156.133 306.721 155.805 306.616 155.534 306.407C155.263 306.195 155.056 305.889 154.913 305.489C154.77 305.087 154.698 304.601 154.698 304.032C154.698 303.466 154.77 302.983 154.913 302.583C155.058 302.181 155.266 301.874 155.537 301.663C155.81 301.45 156.137 301.343 156.518 301.343C156.9 301.343 157.226 301.45 157.497 301.663C157.77 301.874 157.978 302.181 158.121 302.583C158.266 302.983 158.338 303.466 158.338 304.032C158.338 304.601 158.267 305.087 158.124 305.489C157.98 305.889 157.773 306.195 157.502 306.407C157.232 306.616 156.904 306.721 156.518 306.721ZM156.518 306.159C156.9 306.159 157.197 305.975 157.408 305.607C157.619 305.238 157.725 304.714 157.725 304.032C157.725 303.579 157.676 303.193 157.579 302.874C157.484 302.555 157.346 302.313 157.165 302.146C156.986 301.979 156.771 301.895 156.518 301.895C156.14 301.895 155.844 302.082 155.631 302.455C155.418 302.826 155.312 303.352 155.312 304.032C155.312 304.485 155.36 304.87 155.455 305.187C155.551 305.504 155.688 305.745 155.867 305.911C156.047 306.076 156.265 306.159 156.518 306.159ZM161.15 301.415V306.649H160.516V302.079H160.485L159.207 302.928V302.284L160.516 301.415H161.15ZM166.357 306.721C166.006 306.721 165.696 306.659 165.426 306.534C165.159 306.408 164.95 306.235 164.8 306.016C164.65 305.794 164.576 305.542 164.578 305.259C164.576 305.037 164.619 304.833 164.708 304.645C164.797 304.456 164.918 304.299 165.071 304.173C165.226 304.045 165.399 303.964 165.59 303.93V303.899C165.339 303.834 165.14 303.694 164.992 303.477C164.844 303.259 164.77 303.011 164.772 302.734C164.77 302.468 164.838 302.23 164.974 302.02C165.11 301.811 165.298 301.645 165.536 301.524C165.777 301.404 166.05 301.343 166.357 301.343C166.66 301.343 166.931 301.404 167.17 301.524C167.408 301.645 167.596 301.811 167.732 302.02C167.87 302.23 167.94 302.468 167.941 302.734C167.94 303.011 167.864 303.259 167.714 303.477C167.566 303.694 167.369 303.834 167.124 303.899V303.93C167.313 303.964 167.483 304.045 167.635 304.173C167.786 304.299 167.907 304.456 167.998 304.645C168.088 304.833 168.134 305.037 168.136 305.259C168.134 305.542 168.057 305.794 167.906 306.016C167.756 306.235 167.547 306.408 167.279 306.534C167.014 306.659 166.706 306.721 166.357 306.721ZM166.357 306.159C166.594 306.159 166.798 306.12 166.97 306.044C167.142 305.967 167.275 305.859 167.369 305.719C167.463 305.579 167.51 305.416 167.512 305.228C167.51 305.031 167.459 304.856 167.359 304.704C167.258 304.553 167.121 304.433 166.947 304.346C166.775 304.259 166.578 304.216 166.357 304.216C166.133 304.216 165.934 304.259 165.759 304.346C165.585 304.433 165.448 304.553 165.347 304.704C165.248 304.856 165.2 305.031 165.201 305.228C165.2 305.416 165.245 305.579 165.337 305.719C165.431 305.859 165.564 305.967 165.738 306.044C165.912 306.12 166.118 306.159 166.357 306.159ZM166.357 303.674C166.544 303.674 166.71 303.637 166.855 303.562C167.002 303.487 167.117 303.382 167.2 303.247C167.284 303.113 167.326 302.955 167.328 302.774C167.326 302.597 167.285 302.443 167.203 302.312C167.121 302.179 167.008 302.077 166.863 302.005C166.718 301.932 166.549 301.895 166.357 301.895C166.161 301.895 165.99 301.932 165.843 302.005C165.696 302.077 165.583 302.179 165.503 302.312C165.423 302.443 165.384 302.597 165.385 302.774C165.384 302.955 165.424 303.113 165.506 303.247C165.589 303.382 165.704 303.487 165.851 303.562C165.997 303.637 166.166 303.674 166.357 303.674ZM170.782 301.343C170.997 301.345 171.211 301.386 171.426 301.466C171.641 301.546 171.837 301.679 172.014 301.864C172.191 302.048 172.333 302.3 172.441 302.618C172.548 302.937 172.602 303.337 172.602 303.817C172.602 304.282 172.558 304.696 172.469 305.057C172.382 305.417 172.256 305.72 172.091 305.967C171.927 306.214 171.728 306.401 171.493 306.529C171.259 306.657 170.995 306.721 170.7 306.721C170.407 306.721 170.145 306.663 169.915 306.547C169.687 306.43 169.5 306.267 169.353 306.059C169.208 305.849 169.115 305.607 169.074 305.33H169.698C169.754 305.571 169.866 305.769 170.033 305.926C170.202 306.081 170.424 306.159 170.7 306.159C171.104 306.159 171.423 305.982 171.656 305.63C171.891 305.277 172.009 304.778 172.009 304.134H171.968C171.873 304.277 171.759 304.401 171.628 304.505C171.497 304.609 171.351 304.689 171.191 304.745C171.031 304.801 170.86 304.829 170.68 304.829C170.38 304.829 170.105 304.755 169.854 304.607C169.605 304.457 169.406 304.252 169.256 303.991C169.108 303.729 169.034 303.429 169.034 303.091C169.034 302.771 169.105 302.478 169.248 302.212C169.393 301.945 169.596 301.732 169.857 301.573C170.119 301.415 170.427 301.338 170.782 301.343ZM170.782 301.905C170.567 301.905 170.374 301.959 170.202 302.066C170.031 302.172 169.896 302.315 169.795 302.496C169.696 302.675 169.647 302.873 169.647 303.091C169.647 303.309 169.695 303.508 169.79 303.687C169.887 303.864 170.019 304.006 170.186 304.111C170.355 304.215 170.547 304.267 170.761 304.267C170.923 304.267 171.074 304.236 171.214 304.173C171.354 304.108 171.475 304.02 171.579 303.909C171.685 303.797 171.768 303.67 171.827 303.528C171.887 303.385 171.917 303.236 171.917 303.081C171.917 302.877 171.867 302.685 171.769 302.506C171.671 302.327 171.537 302.182 171.365 302.071C171.194 301.961 171 301.905 170.782 301.905ZM173.607 306.649V306.189L175.335 304.298C175.538 304.076 175.705 303.884 175.836 303.72C175.967 303.555 176.064 303.4 176.127 303.255C176.192 303.108 176.224 302.955 176.224 302.795C176.224 302.611 176.18 302.451 176.092 302.317C176.005 302.182 175.885 302.078 175.734 302.005C175.582 301.932 175.412 301.895 175.222 301.895C175.021 301.895 174.846 301.937 174.696 302.02C174.548 302.102 174.433 302.217 174.351 302.365C174.271 302.514 174.231 302.688 174.231 302.887H173.627C173.627 302.58 173.698 302.311 173.84 302.079C173.981 301.847 174.174 301.667 174.417 301.537C174.663 301.408 174.938 301.343 175.243 301.343C175.55 301.343 175.821 301.408 176.058 301.537C176.295 301.667 176.481 301.841 176.616 302.061C176.75 302.281 176.817 302.526 176.817 302.795C176.817 302.987 176.783 303.176 176.713 303.36C176.644 303.542 176.525 303.746 176.355 303.971C176.186 304.194 175.952 304.467 175.652 304.789L174.476 306.046V306.087H176.909V306.649H173.607ZM179.806 301.415V306.649H179.172V302.079H179.141L177.863 302.928V302.284L179.172 301.415H179.806ZM185.002 301.343C185.217 301.345 185.431 301.386 185.646 301.466C185.861 301.546 186.057 301.679 186.234 301.864C186.411 302.048 186.554 302.3 186.661 302.618C186.768 302.937 186.822 303.337 186.822 303.817C186.822 304.282 186.778 304.696 186.689 305.057C186.602 305.417 186.476 305.72 186.311 305.967C186.147 306.214 185.948 306.401 185.713 306.529C185.479 306.657 185.215 306.721 184.92 306.721C184.627 306.721 184.366 306.663 184.135 306.547C183.907 306.43 183.72 306.267 183.573 306.059C183.428 305.849 183.335 305.607 183.295 305.33H183.918C183.974 305.571 184.086 305.769 184.253 305.926C184.422 306.081 184.644 306.159 184.92 306.159C185.324 306.159 185.643 305.982 185.876 305.63C186.111 305.277 186.229 304.778 186.229 304.134H186.188C186.093 304.277 185.979 304.401 185.848 304.505C185.717 304.609 185.571 304.689 185.411 304.745C185.251 304.801 185.08 304.829 184.9 304.829C184.6 304.829 184.325 304.755 184.074 304.607C183.825 304.457 183.626 304.252 183.476 303.991C183.328 303.729 183.254 303.429 183.254 303.091C183.254 302.771 183.325 302.478 183.468 302.212C183.613 301.945 183.816 301.732 184.077 301.573C184.339 301.415 184.648 301.338 185.002 301.343ZM185.002 301.905C184.787 301.905 184.594 301.959 184.422 302.066C184.251 302.172 184.116 302.315 184.015 302.496C183.917 302.675 183.867 302.873 183.867 303.091C183.867 303.309 183.915 303.508 184.01 303.687C184.107 303.864 184.239 304.006 184.406 304.111C184.575 304.215 184.767 304.267 184.982 304.267C185.143 304.267 185.294 304.236 185.434 304.173C185.574 304.108 185.696 304.02 185.799 303.909C185.905 303.797 185.988 303.67 186.047 303.528C186.107 303.385 186.137 303.236 186.137 303.081C186.137 302.877 186.087 302.685 185.989 302.506C185.892 302.327 185.757 302.182 185.585 302.071C185.414 301.961 185.22 301.905 185.002 301.905ZM189.535 306.721C189.149 306.721 188.821 306.616 188.55 306.407C188.28 306.195 188.072 305.889 187.929 305.489C187.786 305.087 187.715 304.601 187.715 304.032C187.715 303.466 187.786 302.983 187.929 302.583C188.074 302.181 188.282 301.874 188.553 301.663C188.826 301.45 189.153 301.343 189.535 301.343C189.916 301.343 190.243 301.45 190.514 301.663C190.786 301.874 190.994 302.181 191.137 302.583C191.282 302.983 191.354 303.466 191.354 304.032C191.354 304.601 191.283 305.087 191.14 305.489C190.997 305.889 190.79 306.195 190.519 306.407C190.248 306.616 189.92 306.721 189.535 306.721ZM189.535 306.159C189.916 306.159 190.213 305.975 190.424 305.607C190.635 305.238 190.741 304.714 190.741 304.032C190.741 303.579 190.692 303.193 190.595 302.874C190.5 302.555 190.362 302.313 190.181 302.146C190.002 301.979 189.787 301.895 189.535 301.895C189.156 301.895 188.861 302.082 188.648 302.455C188.435 302.826 188.328 303.352 188.328 304.032C188.328 304.485 188.376 304.87 188.471 305.187C188.567 305.504 188.704 305.745 188.883 305.911C189.063 306.076 189.281 306.159 189.535 306.159ZM194.166 301.415V306.649H193.532V302.079H193.502L192.224 302.928V302.284L193.532 301.415H194.166ZM195.672 306.649V306.189L197.4 304.298C197.602 304.076 197.769 303.884 197.901 303.72C198.032 303.555 198.129 303.4 198.192 303.255C198.257 303.108 198.289 302.955 198.289 302.795C198.289 302.611 198.245 302.451 198.156 302.317C198.069 302.182 197.95 302.078 197.798 302.005C197.647 301.932 197.476 301.895 197.287 301.895C197.086 301.895 196.911 301.937 196.761 302.02C196.612 302.102 196.497 302.217 196.415 302.365C196.335 302.514 196.295 302.688 196.295 302.887H195.692C195.692 302.58 195.763 302.311 195.904 302.079C196.046 301.847 196.238 301.667 196.482 301.537C196.727 301.408 197.003 301.343 197.308 301.343C197.614 301.343 197.886 301.408 198.123 301.537C198.36 301.667 198.546 301.841 198.68 302.061C198.815 302.281 198.882 302.526 198.882 302.795C198.882 302.987 198.847 303.176 198.777 303.36C198.709 303.542 198.59 303.746 198.419 303.971C198.251 304.194 198.016 304.467 197.717 304.789L196.541 306.046V306.087H198.974V306.649H195.672ZM203.731 306.721C203.38 306.721 203.07 306.659 202.801 306.534C202.533 306.408 202.324 306.235 202.174 306.016C202.024 305.794 201.95 305.542 201.952 305.259C201.95 305.037 201.994 304.833 202.082 304.645C202.171 304.456 202.292 304.299 202.445 304.173C202.6 304.045 202.773 303.964 202.964 303.93V303.899C202.714 303.834 202.514 303.694 202.366 303.477C202.218 303.259 202.145 303.011 202.146 302.734C202.145 302.468 202.212 302.23 202.348 302.02C202.484 301.811 202.672 301.645 202.91 301.524C203.151 301.404 203.424 301.343 203.731 301.343C204.034 301.343 204.305 301.404 204.544 301.524C204.782 301.645 204.97 301.811 205.106 302.02C205.244 302.23 205.314 302.468 205.316 302.734C205.314 303.011 205.238 303.259 205.088 303.477C204.94 303.694 204.743 303.834 204.498 303.899V303.93C204.687 303.964 204.857 304.045 205.009 304.173C205.161 304.299 205.282 304.456 205.372 304.645C205.462 304.833 205.508 305.037 205.51 305.259C205.508 305.542 205.432 305.794 205.28 306.016C205.13 306.235 204.921 306.408 204.654 306.534C204.388 306.659 204.08 306.721 203.731 306.721ZM203.731 306.159C203.968 306.159 204.172 306.12 204.344 306.044C204.517 305.967 204.649 305.859 204.743 305.719C204.837 305.579 204.885 305.416 204.886 305.228C204.885 305.031 204.834 304.856 204.733 304.704C204.632 304.553 204.495 304.433 204.321 304.346C204.149 304.259 203.953 304.216 203.731 304.216C203.508 304.216 203.308 304.259 203.133 304.346C202.959 304.433 202.822 304.553 202.721 304.704C202.622 304.856 202.574 305.031 202.576 305.228C202.574 305.416 202.619 305.579 202.711 305.719C202.805 305.859 202.939 305.967 203.112 306.044C203.286 306.12 203.492 306.159 203.731 306.159ZM203.731 303.674C203.918 303.674 204.085 303.637 204.229 303.562C204.376 303.487 204.491 303.382 204.574 303.247C204.658 303.113 204.701 302.955 204.702 302.774C204.701 302.597 204.659 302.443 204.577 302.312C204.495 302.179 204.382 302.077 204.237 302.005C204.092 301.932 203.924 301.895 203.731 301.895C203.535 301.895 203.364 301.932 203.217 302.005C203.071 302.077 202.957 302.179 202.877 302.312C202.797 302.443 202.758 302.597 202.76 302.774C202.758 302.955 202.798 303.113 202.88 303.247C202.963 303.382 203.078 303.487 203.225 303.562C203.371 303.637 203.54 303.674 203.731 303.674ZM208.166 306.721C207.815 306.721 207.505 306.659 207.236 306.534C206.968 306.408 206.76 306.235 206.61 306.016C206.46 305.794 206.386 305.542 206.387 305.259C206.386 305.037 206.429 304.833 206.518 304.645C206.606 304.456 206.727 304.299 206.881 304.173C207.036 304.045 207.209 303.964 207.4 303.93V303.899C207.149 303.834 206.95 303.694 206.801 303.477C206.653 303.259 206.58 303.011 206.582 302.734C206.58 302.468 206.647 302.23 206.784 302.02C206.92 301.811 207.107 301.645 207.346 301.524C207.586 301.404 207.86 301.343 208.166 301.343C208.47 301.343 208.741 301.404 208.979 301.524C209.218 301.645 209.405 301.811 209.542 302.02C209.68 302.23 209.749 302.468 209.751 302.734C209.749 303.011 209.674 303.259 209.524 303.477C209.375 303.694 209.179 303.834 208.933 303.899V303.93C209.122 303.964 209.293 304.045 209.444 304.173C209.596 304.299 209.717 304.456 209.807 304.645C209.898 304.833 209.944 305.037 209.945 305.259C209.944 305.542 209.867 305.794 209.715 306.016C209.565 306.235 209.357 306.408 209.089 306.534C208.823 306.659 208.516 306.721 208.166 306.721ZM208.166 306.159C208.403 306.159 208.608 306.12 208.78 306.044C208.952 305.967 209.085 305.859 209.179 305.719C209.272 305.579 209.32 305.416 209.322 305.228C209.32 305.031 209.269 304.856 209.168 304.704C209.068 304.553 208.931 304.433 208.757 304.346C208.585 304.259 208.388 304.216 208.166 304.216C207.943 304.216 207.744 304.259 207.568 304.346C207.394 304.433 207.257 304.553 207.157 304.704C207.058 304.856 207.009 305.031 207.011 305.228C207.009 305.416 207.055 305.579 207.147 305.719C207.24 305.859 207.374 305.967 207.548 306.044C207.722 306.12 207.928 306.159 208.166 306.159ZM208.166 303.674C208.354 303.674 208.52 303.637 208.665 303.562C208.811 303.487 208.926 303.382 209.01 303.247C209.093 303.113 209.136 302.955 209.138 302.774C209.136 302.597 209.094 302.443 209.012 302.312C208.931 302.179 208.817 302.077 208.673 302.005C208.528 301.932 208.359 301.895 208.166 301.895C207.97 301.895 207.799 301.932 207.653 302.005C207.506 302.077 207.393 302.179 207.313 302.312C207.233 302.443 207.193 302.597 207.195 302.774C207.193 302.955 207.233 303.113 207.315 303.247C207.399 303.382 207.514 303.487 207.66 303.562C207.807 303.637 207.976 303.674 208.166 303.674ZM212.602 306.721C212.251 306.721 211.941 306.659 211.671 306.534C211.404 306.408 211.195 306.235 211.045 306.016C210.895 305.794 210.821 305.542 210.823 305.259C210.821 305.037 210.865 304.833 210.953 304.645C211.042 304.456 211.163 304.299 211.316 304.173C211.471 304.045 211.644 303.964 211.835 303.93V303.899C211.585 303.834 211.385 303.694 211.237 303.477C211.089 303.259 211.015 303.011 211.017 302.734C211.015 302.468 211.083 302.23 211.219 302.02C211.355 301.811 211.543 301.645 211.781 301.524C212.022 301.404 212.295 301.343 212.602 301.343C212.905 301.343 213.176 301.404 213.415 301.524C213.653 301.645 213.841 301.811 213.977 302.02C214.115 302.23 214.185 302.468 214.187 302.734C214.185 303.011 214.109 303.259 213.959 303.477C213.811 303.694 213.614 303.834 213.369 303.899V303.93C213.558 303.964 213.728 304.045 213.88 304.173C214.032 304.299 214.153 304.456 214.243 304.645C214.333 304.833 214.379 305.037 214.381 305.259C214.379 305.542 214.302 305.794 214.151 306.016C214.001 306.235 213.792 306.408 213.525 306.534C213.259 306.659 212.951 306.721 212.602 306.721ZM212.602 306.159C212.839 306.159 213.043 306.12 213.215 306.044C213.387 305.967 213.52 305.859 213.614 305.719C213.708 305.579 213.755 305.416 213.757 305.228C213.755 305.031 213.704 304.856 213.604 304.704C213.503 304.553 213.366 304.433 213.192 304.346C213.02 304.259 212.823 304.216 212.602 304.216C212.379 304.216 212.179 304.259 212.004 304.346C211.83 304.433 211.693 304.553 211.592 304.704C211.493 304.856 211.445 305.031 211.446 305.228C211.445 305.416 211.49 305.579 211.582 305.719C211.676 305.859 211.809 305.967 211.983 306.044C212.157 306.12 212.363 306.159 212.602 306.159ZM212.602 303.674C212.789 303.674 212.955 303.637 213.1 303.562C213.247 303.487 213.362 303.382 213.445 303.247C213.529 303.113 213.571 302.955 213.573 302.774C213.571 302.597 213.53 302.443 213.448 302.312C213.366 302.179 213.253 302.077 213.108 302.005C212.963 301.932 212.794 301.895 212.602 301.895C212.406 301.895 212.235 301.932 212.088 302.005C211.942 302.077 211.828 302.179 211.748 302.312C211.668 302.443 211.629 302.597 211.631 302.774C211.629 302.955 211.669 303.113 211.751 303.247C211.834 303.382 211.949 303.487 212.096 303.562C212.242 303.637 212.411 303.674 212.602 303.674ZM217.037 306.721C216.686 306.721 216.376 306.659 216.107 306.534C215.839 306.408 215.631 306.235 215.481 306.016C215.331 305.794 215.257 305.542 215.258 305.259C215.257 305.037 215.3 304.833 215.389 304.645C215.477 304.456 215.598 304.299 215.752 304.173C215.907 304.045 216.08 303.964 216.27 303.93V303.899C216.02 303.834 215.821 303.694 215.672 303.477C215.524 303.259 215.451 303.011 215.452 302.734C215.451 302.468 215.518 302.23 215.654 302.02C215.791 301.811 215.978 301.645 216.217 301.524C216.457 301.404 216.731 301.343 217.037 301.343C217.341 301.343 217.612 301.404 217.85 301.524C218.089 301.645 218.276 301.811 218.412 302.02C218.55 302.23 218.62 302.468 218.622 302.734C218.62 303.011 218.544 303.259 218.395 303.477C218.246 303.694 218.049 303.834 217.804 303.899V303.93C217.993 303.964 218.164 304.045 218.315 304.173C218.467 304.299 218.588 304.456 218.678 304.645C218.769 304.833 218.815 305.037 218.816 305.259C218.815 305.542 218.738 305.794 218.586 306.016C218.436 306.235 218.228 306.408 217.96 306.534C217.694 306.659 217.387 306.721 217.037 306.721ZM217.037 306.159C217.274 306.159 217.479 306.12 217.651 306.044C217.823 305.967 217.956 305.859 218.049 305.719C218.143 305.579 218.191 305.416 218.193 305.228C218.191 305.031 218.14 304.856 218.039 304.704C217.939 304.553 217.802 304.433 217.628 304.346C217.456 304.259 217.259 304.216 217.037 304.216C216.814 304.216 216.615 304.259 216.439 304.346C216.265 304.433 216.128 304.553 216.028 304.704C215.929 304.856 215.88 305.031 215.882 305.228C215.88 305.416 215.925 305.579 216.017 305.719C216.111 305.859 216.245 305.967 216.419 306.044C216.592 306.12 216.799 306.159 217.037 306.159ZM217.037 303.674C217.225 303.674 217.391 303.637 217.536 303.562C217.682 303.487 217.797 303.382 217.881 303.247C217.964 303.113 218.007 302.955 218.009 302.774C218.007 302.597 217.965 302.443 217.883 302.312C217.802 302.179 217.688 302.077 217.543 302.005C217.399 301.932 217.23 301.895 217.037 301.895C216.841 301.895 216.67 301.932 216.523 302.005C216.377 302.077 216.264 302.179 216.184 302.312C216.103 302.443 216.064 302.597 216.066 302.774C216.064 302.955 216.104 303.113 216.186 303.247C216.27 303.382 216.385 303.487 216.531 303.562C216.678 303.637 216.846 303.674 217.037 303.674Z" fill="#535352"/>
<path d="M179.8 271.7H157.1V273.5H179.8V271.7Z" fill="url(#paint0_linear_15_1852)"/>
<path d="M204.5 271.7H181.8V273.5H204.5V271.7Z" fill="#0B7077"/>
<path d="M137.7 181.4L180.8 106.7L224 181.4H137.7Z" fill="#0B7077"/>
<path d="M244.9 99.5L180.8 210.5L116.8 99.5H244.9Z" fill="#FD661F"/>
<mask id="mask0_15_1852" style="mask-type:luminance" maskUnits="userSpaceOnUse" x="116" y="52" width="129" height="159">
<path d="M218 99.5002V52.7002H143.7V99.5002H116.8L180.8 210.5L244.9 99.5002H218Z" fill="white"/>
</mask>
<g mask="url(#mask0_15_1852)">
<path d="M212.4 155.4C201.2 147.2 192.6 142.9 192.6 138.2C192.6 133.6 192.6 127.6 192.6 127.6H181.3H180.5H169.2C169.2 127.6 169.2 133.6 169.2 138.2C169.2 142.8 160.6 147.2 149.4 155.4C138.2 163.6 137.9 183.4 137.9 183.4H180.6H181.5H224.2C224 183.4 223.7 163.5 212.4 155.4Z" fill="url(#paint1_linear_15_1852)"/>
<path d="M212.4 155.4C201.2 147.2 192.6 142.9 192.6 138.2C192.6 133.6 192.6 127.6 192.6 127.6H181.3H180.9V183.4H181.3H224C224 183.4 223.7 163.5 212.4 155.4Z" fill="url(#paint2_linear_15_1852)"/>
<path d="M199.7 146.4C195.3 143.3 192.6 140.8 192.6 138.2C192.6 133.6 192.6 127.6 192.6 127.6H181.3H180.5H169.2C169.2 127.6 169.2 128.5 169.2 129.8C170 131.6 173.7 139.5 181 143.2C187.4 146.5 194.5 147.7 199.7 146.4Z" fill="url(#paint3_linear_15_1852)"/>
<path d="M200.7 110C200.7 110 202.7 105.8 205.9 106.4C209.1 107 208 112.4 206.5 115.3C204.2 119.9 198.6 121.3 198.5 119.6C198.4 117.9 200.7 110 200.7 110Z" fill="url(#paint4_linear_15_1852)"/>
<path d="M161 110C161 110 159 105.8 155.8 106.4C152.6 107 153.7 112.4 155.2 115.3C157.5 119.9 163.1 121.3 163.2 119.6C163.3 117.9 161 110 161 110Z" fill="url(#paint5_linear_15_1852)"/>
<path d="M157.2 106.5C158.5 112.6 160.9 117.1 162.7 120.3C163 120.2 163.2 120 163.2 119.7C163.3 118 161 110.1 161 110.1C161 110.1 159.6 107 157.2 106.5Z" fill="url(#paint6_linear_15_1852)"/>
<path d="M200.7 110C200.7 110 198.4 117.9 198.5 119.6C198.5 119.9 198.7 120.1 199 120.2C200.8 117 203.1 112.5 204.5 106.4C202.1 107 200.7 110 200.7 110Z" fill="url(#paint7_linear_15_1852)"/>
<path d="M202.7 94.2C201.1 77.7 187.6 74.5 180.8 74.5C174 74.5 160.5 77.7 158.9 94.2C157.3 110.7 162.8 120.3 165.3 125.5C167.8 130.6 176.1 133.9 180.7 133.9C185.3 133.9 193.6 130.6 196.1 125.5C198.8 120.3 204.3 110.6 202.7 94.2Z" fill="url(#paint8_linear_15_1852)"/>
<path d="M196.2 125.4C198.7 120.3 204.2 110.6 202.6 94.0999C201 77.5999 187.5 74.3999 180.7 74.3999V133.9C185.5 133.9 193.7 130.6 196.2 125.4Z" fill="url(#paint9_linear_15_1852)"/>
<path d="M202.7 94.2C201.1 77.7 187.6 74.5 180.8 74.5C174 74.5 160.5 77.7 158.9 94.2C158.3 100 158.7 105 159.4 109.2C159.5 109 162.7 102.1 163.3 97.9C163.3 97.9 164 99.6 165.1 100.2C166.1 97.8 166.7 93.7 166.5 90.4C166.5 90.4 169.1 94.9 176.8 98.3C176.8 98.3 176.5 94.8 175.8 92.7C182.5 97.8 189.8 99.8 194.5 99.7C194.5 99.7 194.2 97.5 193.2 95.7C193.8 96.5 195.2 97.8 198 98.6C198 98.6 200.2 104.1 202.1 109C202.9 104.7 203.2 99.9 202.7 94.2Z" fill="url(#paint10_linear_15_1852)"/>
<path d="M186.9 123H174.7C174.4 123 174.3 123.5 174.4 124C175.5 126.1 178 127.6 180.8 127.6C183.6 127.6 186 126.2 187.2 124.1C187.4 123.7 187.3 123 186.9 123Z" fill="url(#paint11_linear_15_1852)"/>
<path d="M186 125.7C185.1 124.4 183.1 123.5 180.9 123.5C178.6 123.5 176.7 124.4 175.7 125.7C177 126.9 178.8 127.6 180.9 127.6C182.9 127.6 184.7 126.8 186 125.7Z" fill="url(#paint12_linear_15_1852)"/>
<path d="M186.9 123H174.7C175.1 123.6 175.6 124.2 176.4 124.4C177.8 124.7 180.8 124.7 180.8 124.7C180.8 124.7 183.8 124.7 185.2 124.4C186 124.2 186.6 123.6 186.9 123Z" fill="url(#paint13_linear_15_1852)"/>
<path d="M188.8 105.1C187.8 105.8 186.8 107 186.9 108.6C186.9 108.6 187.9 110.3 191.7 110C195 109.7 195.4 106.8 195.4 106.8C194.5 105.2 192.7 103.6 188.8 105.1Z" fill="white"/>
<path d="M172.9 105.1C173.9 105.8 174.9 107 174.8 108.6C174.8 108.6 173.8 110.3 170 110C166.7 109.7 166.3 106.8 166.3 106.8C167.2 105.2 169.1 103.6 172.9 105.1Z" fill="white"/>
<path d="M193.9 107C193.9 108.5 192.7 109.8 191.1 109.8C189.6 109.8 188.3 108.6 188.3 107C188.3 105.5 189.5 104.2 191.1 104.2C192.7 104.2 193.9 105.4 193.9 107Z" fill="url(#paint14_linear_15_1852)"/>
<path d="M194.7 106.3C194.7 106.8 194.2 107.1 193.6 107.1C193 107.1 192.5 106.7 192.5 106.3C192.5 105.8 193 105.5 193.6 105.5C194.2 105.4 194.7 105.8 194.7 106.3Z" fill="white"/>
<path d="M186.5 108.1C186.5 108.1 188.3 105 191.5 105C194.4 105 195.5 107.3 195.5 107.3L196.5 106.3C196.5 106.3 194.4 103.8 191.3 104C186.9 104.4 186.5 108.1 186.5 108.1Z" fill="#262B3B"/>
<path d="M184.9 101.5C184.9 101.5 186.8 102.4 190.6 101.3C194.4 100.2 194.6 99.6001 197.6 99.4001C197.6 99.4001 192.6 97.9001 189 99.1001C186 100.3 184.9 101.5 184.9 101.5Z" fill="#262B3B"/>
<path d="M167.7 107C167.7 108.5 168.9 109.8 170.5 109.8C172 109.8 173.3 108.6 173.3 107C173.3 105.5 172.1 104.2 170.5 104.2C169 104.2 167.7 105.4 167.7 107Z" fill="url(#paint15_linear_15_1852)"/>
<path d="M174.1 106.3C174.1 106.8 173.6 107.1 173 107.1C172.4 107.1 171.9 106.7 171.9 106.3C171.9 105.8 172.4 105.5 173 105.5C173.6 105.4 174.1 105.8 174.1 106.3Z" fill="white"/>
<path d="M175.2 108.1C175.2 108.1 173.4 105 170.2 105C167.3 105 166.2 107.3 166.2 107.3L165.2 106.3C165.2 106.3 167.3 103.8 170.4 104C174.7 104.4 175.2 108.1 175.2 108.1Z" fill="#262B3B"/>
<path d="M176.7 101.5C176.7 101.5 174.8 102.4 171 101.3C167.2 100.2 167 99.6001 164 99.4001C164 99.4001 169 97.9001 172.6 99.1001C175.7 100.3 176.7 101.5 176.7 101.5Z" fill="#262B3B"/>
<path d="M180.8 118.8C180.8 118.8 179.3 118.7 178.3 118.2C178.3 118.2 178.8 120.1 180.8 120.3C182.8 120.1 183.3 118.2 183.3 118.2C182.4 118.6 180.8 118.8 180.8 118.8Z" fill="#DD8076"/>
<path d="M212.4 155.4C206.4 151 201.2 147.8 197.6 145L180.8 151.6L164 145C160.4 147.8 155.2 151.1 149.2 155.4C138 163.6 137.7 183.4 137.7 183.4V212.4H224V183.4C224 183.4 223.7 163.5 212.4 155.4Z" fill="#B88C78"/>
<path d="M174.8 212.4H186.7L204.1 149.6C201.6 147.9 199.4 146.4 197.6 145L180.8 151.6L164 145C162.2 146.4 160 147.9 157.5 149.6L174.8 212.4Z" fill="#947060"/>
<path d="M197.6 144.9L180.8 205.9L164 144.9L180.8 150.9L197.6 144.9Z" fill="url(#paint16_linear_15_1852)"/>
<path d="M177.9 161L173 155.5L180.8 150.9L188.7 155.5L183.8 161H177.9Z" fill="url(#paint17_linear_15_1852)"/>
<path d="M187.1 183.4L183.8 161H177.8L174.6 183.4L180.8 205.9L187.1 183.4Z" fill="url(#paint18_linear_15_1852)"/>
<path d="M169.1 137.3L180.8 149.7V152.1L168.6 161.4L164 144.9L169.1 137.3Z" fill="url(#paint19_linear_15_1852)"/>
<path d="M192.6 137.3L180.8 149.7V152.1L193.1 161.4L197.6 144.9L192.6 137.3Z" fill="url(#paint20_linear_15_1852)"/>
<path d="M165.9 88.1001C165.9 88.1001 168.5 92.6001 176.2 96.0001C176.2 96.0001 175.9 92.5001 175.2 90.4001C181.9 95.5001 189.2 97.5001 193.9 97.4001C193.9 97.4001 193.5 94.6001 192.1 92.7001C192.1 92.7001 194.7 95.2001 198.8 96.4001C198.8 96.4001 201 101.2 202.2 108.8C202.2 108.8 206.9 104 206.9 92.5001C206.9 81.0001 202 68.2001 182.2 66.2001L186.1 63.2001C176.9 62.5001 165.8 63.7001 160.2 75.6001C160.2 75.6001 157.6 73.3001 153.1 74.9001C154.9 78.4001 157.9 77.9001 159.1 77.5001C152.9 81.6001 152.9 87.1001 153.5 94.1001C154.1 101 156.4 106.7 159.8 108.8C159.8 108.8 162.1 99.8001 162.7 95.7001C162.7 95.7001 163.4 97.4001 164.5 98.0001C165.5 95.6001 166.1 91.4001 165.9 88.1001Z" fill="url(#paint21_linear_15_1852)"/>
</g>
<path d="M232.7 154.1L286.6 60.7998V47.0998C286.6 45.8998 286.4 44.7998 286 43.7998L222.3 154.1H232.7Z" fill="#0B7077"/>
<path d="M286.6 70.5996L238.4 154.1H244.1L286.6 80.5996V70.5996Z" fill="#FD661F"/>
<path d="M128.9 154.1L74.9999 60.7998V47.0998C74.9999 45.8998 75.1999 44.7998 75.5999 43.7998L139.3 154.1H128.9Z" fill="#0B7077"/>
<path d="M74.9999 70.5996L123.2 154.1H117.4L74.9999 80.5996V70.5996Z" fill="#FD661F"/>
<path d="M118.7 381.6L139.3 345.9H128.9L108.3 381.6H118.7Z" fill="#0B7077"/>
<path d="M232.7 345.9H222.3L242.9 381.6H253.3L232.7 345.9Z" fill="#FD661F"/>
<path d="M102.6 381.6L123.2 345.9H117.4L96.8 381.6H102.6Z" fill="#FD661F"/>
<path d="M244.1 345.9H238.4L259 381.6H264.7L244.1 345.9Z" fill="#FD661F"/>
<path d="M204.709 371.103L204.709 355.238C204.709 355.238 192.471 356.799 181.934 362.024C171.396 356.799 159.158 355.238 159.158 355.238L159.158 371.103C155.567 371.907 152.661 372.876 150.7 373.987C157.315 371.907 168.821 370.512 181.91 370.512C194.999 370.512 206.504 371.883 213.12 373.987C211.182 372.876 208.3 371.907 204.709 371.103Z" fill="#0B7077"/>
<path d="M162.489 353.536L162.489 355.782C166.837 356.609 174.775 358.453 181.934 362.024C173.475 355.38 162.489 353.536 162.489 353.536Z" fill="#0B7077"/>
<path d="M201.401 353.536C201.401 353.536 190.415 355.38 181.957 362.024C189.116 358.477 197.054 356.609 201.401 355.782L201.401 353.536Z" fill="#0B7077"/>
<path d="M181.957 353.749C181.508 354.742 180.823 355.616 180.02 356.302L181.934 359.636L183.894 356.302C183.068 355.616 182.406 354.742 181.957 353.749Z" fill="#0B7077"/>
<path d="M176.145 351.266C177.421 351.266 178.484 350.226 178.484 348.925C178.484 347.648 177.445 346.584 176.145 346.584C174.869 346.584 173.806 347.625 173.806 348.925C173.806 350.226 174.846 351.266 176.145 351.266ZM175.366 347.294C175.862 347.294 176.263 347.696 176.263 348.192C176.263 348.689 175.862 349.091 175.366 349.091C174.87 349.091 174.468 348.689 174.468 348.192C174.468 347.696 174.87 347.294 175.366 347.294Z" fill="#0B7077"/>
<path d="M185.407 348.925C185.407 350.202 186.446 351.266 187.722 351.266C188.998 351.266 190.061 350.226 190.061 348.925C190.061 347.648 189.021 346.584 187.722 346.584C186.47 346.608 185.407 347.648 185.407 348.925ZM188.005 348.192C188.005 348.689 187.604 349.091 187.108 349.091C186.611 349.091 186.21 348.689 186.21 348.192C186.21 347.696 186.611 347.294 187.108 347.294C187.604 347.294 188.005 347.696 188.005 348.192Z" fill="#0B7077"/>
<path d="M171.68 353.512C172.838 354.647 174.421 355.333 176.145 355.333C178.697 355.333 180.918 353.819 181.957 351.644C182.973 353.819 185.194 355.333 187.769 355.333C189.517 355.333 191.077 354.623 192.234 353.512C192.731 354.221 193.156 354.978 193.51 355.758C194.951 355.214 196.274 354.812 197.432 354.481C196.676 352.921 195.495 351.526 194.006 350.344C194.101 349.895 194.172 349.398 194.172 348.925C194.172 347.98 193.959 347.081 193.581 346.254C193.132 344.93 192.447 343.7 191.573 342.613L191.526 336.3L186.281 338.759C184.91 338.239 183.446 337.978 181.957 337.978C180.469 337.978 179.004 338.239 177.634 338.759L172.365 336.3L172.318 342.613C171.467 343.7 170.782 344.906 170.333 346.206C169.955 347.034 169.719 347.956 169.719 348.925C169.719 349.422 169.766 349.895 169.884 350.344C168.396 351.526 167.238 352.921 166.482 354.481C167.616 354.812 168.963 355.238 170.404 355.758C170.759 354.978 171.184 354.221 171.68 353.512ZM192.801 348.925C192.801 351.715 190.533 353.985 187.746 353.985C184.958 353.985 182.69 351.715 182.69 348.925C182.69 346.135 184.958 343.866 187.746 343.866C190.533 343.889 192.801 346.159 192.801 348.925ZM181.934 339.326C185.147 339.326 188.076 340.721 190.084 342.967C189.352 342.683 188.549 342.518 187.722 342.518C185.17 342.518 182.949 344.031 181.91 346.206C180.894 344.031 178.673 342.518 176.098 342.518C175.271 342.518 174.468 342.683 173.759 342.967C175.814 340.721 178.72 339.326 181.934 339.326ZM176.145 343.889C178.933 343.889 181.201 346.159 181.201 348.949C181.201 351.739 178.933 354.009 176.145 354.009C173.357 354.009 171.089 351.739 171.089 348.949C171.089 346.159 173.357 343.889 176.145 343.889Z" fill="#0B7077"/>
<defs>
<linearGradient id="paint0_linear_15_1852" x1="160.22" y1="264.288" x2="173.757" y2="277.826" gradientUnits="userSpaceOnUse">
<stop stop-color="#FF8AAF"/>
<stop offset="1" stop-color="#D4316A"/>
</linearGradient>
<linearGradient id="paint1_linear_15_1852" x1="180.838" y1="170.664" x2="180.838" y2="133.6" gradientUnits="userSpaceOnUse">
<stop stop-color="#FBDAD0"/>
<stop offset="1" stop-color="#FBB8A6"/>
</linearGradient>
<linearGradient id="paint2_linear_15_1852" x1="161.188" y1="137.149" x2="213.626" y2="174.815" gradientUnits="userSpaceOnUse">
<stop stop-color="#FBB8A6"/>
<stop offset="1" stop-color="#FBDAD0" stop-opacity="0.1"/>
</linearGradient>
<linearGradient id="paint3_linear_15_1852" x1="166.837" y1="121.27" x2="194.647" y2="141.246" gradientUnits="userSpaceOnUse">
<stop stop-color="#FBB8A6"/>
<stop offset="1" stop-color="#FBDAD0" stop-opacity="0.1"/>
</linearGradient>
<linearGradient id="paint4_linear_15_1852" x1="203.427" y1="110.139" x2="202.905" y2="121.304" gradientUnits="userSpaceOnUse">
<stop stop-color="#F3B0A8"/>
<stop offset="1" stop-color="#F5CEB5"/>
</linearGradient>
<linearGradient id="paint5_linear_15_1852" x1="158.247" y1="110.139" x2="158.77" y2="121.304" gradientUnits="userSpaceOnUse">
<stop stop-color="#F3B0A8"/>
<stop offset="1" stop-color="#F5CEB5"/>
</linearGradient>
<linearGradient id="paint6_linear_15_1852" x1="160.198" y1="117.134" x2="160.198" y2="107.964" gradientUnits="userSpaceOnUse">
<stop stop-color="#FBB8A6"/>
<stop offset="1" stop-color="#FBDAD0" stop-opacity="0.1"/>
</linearGradient>
<linearGradient id="paint7_linear_15_1852" x1="201.476" y1="117.134" x2="201.476" y2="107.964" gradientUnits="userSpaceOnUse">
<stop stop-color="#FBB8A6"/>
<stop offset="1" stop-color="#FBDAD0" stop-opacity="0.1"/>
</linearGradient>
<linearGradient id="paint8_linear_15_1852" x1="180.838" y1="120.324" x2="180.838" y2="80.8897" gradientUnits="userSpaceOnUse">
<stop stop-color="#FBDAD0"/>
<stop offset="1" stop-color="#FBD0C4"/>
</linearGradient>
<linearGradient id="paint9_linear_15_1852" x1="162.816" y1="88.434" x2="195.666" y2="112.03" gradientUnits="userSpaceOnUse">
<stop stop-color="#FBB8A6"/>
<stop offset="1" stop-color="#FBDAD0" stop-opacity="0.1"/>
</linearGradient>
<linearGradient id="paint10_linear_15_1852" x1="158.714" y1="91.8102" x2="202.961" y2="91.8102" gradientUnits="userSpaceOnUse">
<stop stop-color="#FBB8A6"/>
<stop offset="1" stop-color="#FBDAD0" stop-opacity="0.1"/>
</linearGradient>
<linearGradient id="paint11_linear_15_1852" x1="180.823" y1="122.64" x2="180.823" y2="127.092" gradientUnits="userSpaceOnUse">
<stop stop-color="#302869"/>
<stop offset="1" stop-color="#852325"/>
</linearGradient>
<linearGradient id="paint12_linear_15_1852" x1="180.837" y1="123.587" x2="180.837" y2="127.671" gradientUnits="userSpaceOnUse">
<stop stop-color="#851C1E"/>
<stop offset="1" stop-color="#D02D2F"/>
</linearGradient>
<linearGradient id="paint13_linear_15_1852" x1="174.731" y1="123.859" x2="186.942" y2="123.859" gradientUnits="userSpaceOnUse">
<stop stop-color="white"/>
<stop offset="1" stop-color="#BEDFE8"/>
</linearGradient>
<linearGradient id="paint14_linear_15_1852" x1="191.149" y1="104.197" x2="191.149" y2="109.127" gradientUnits="userSpaceOnUse">
<stop stop-color="#252A3B"/>
<stop offset="1" stop-color="#676B78"/>
</linearGradient>
<linearGradient id="paint15_linear_15_1852" x1="170.528" y1="104.197" x2="170.528" y2="109.127" gradientUnits="userSpaceOnUse">
<stop stop-color="#252A3B"/>
<stop offset="1" stop-color="#676B78"/>
</linearGradient>
<linearGradient id="paint16_linear_15_1852" x1="180.839" y1="156.534" x2="180.839" y2="203.506" gradientUnits="userSpaceOnUse">
<stop stop-color="white"/>
<stop offset="1" stop-color="#CCD6E8"/>
</linearGradient>
<linearGradient id="paint17_linear_15_1852" x1="182.821" y1="162.154" x2="179.34" y2="150.604" gradientUnits="userSpaceOnUse">
<stop stop-color="#3B3D45"/>
<stop offset="1" stop-color="#252A3B"/>
</linearGradient>
<linearGradient id="paint18_linear_15_1852" x1="189.316" y1="206.843" x2="174.886" y2="158.955" gradientUnits="userSpaceOnUse">
<stop stop-color="#3B3D45"/>
<stop offset="1" stop-color="#252A3B"/>
</linearGradient>
<linearGradient id="paint19_linear_15_1852" x1="172.442" y1="137.517" x2="172.442" y2="161.647" gradientUnits="userSpaceOnUse">
<stop stop-color="white"/>
<stop offset="1" stop-color="#CCD6E8"/>
</linearGradient>
<linearGradient id="paint20_linear_15_1852" x1="189.234" y1="137.516" x2="189.234" y2="161.646" gradientUnits="userSpaceOnUse">
<stop stop-color="white"/>
<stop offset="1" stop-color="#CCD6E8"/>
</linearGradient>
<linearGradient id="paint21_linear_15_1852" x1="153.109" y1="85.9802" x2="206.948" y2="85.9802" gradientUnits="userSpaceOnUse">
<stop stop-color="#3B3D45"/>
<stop offset="1" stop-color="#252A3B"/>
</linearGradient>
</defs>
</svg>
