<svg width="90" height="111" viewBox="0 0 90 111" fill="none" xmlns="http://www.w3.org/2000/svg">
<g filter="url(#filter0_dddd_215_803)">
<rect x="12.9307" y="2.87354" width="63.2166" height="63.2166" rx="31.6083" fill="white"/>
<path d="M37.0719 30.0185C37.4319 27.7805 38.0544 25.7645 38.8794 24.116C39.6234 22.628 40.5684 21.374 41.6754 20.561C38.9299 21.128 36.4131 22.4934 34.441 24.4858C32.4688 26.4782 31.1292 29.0089 30.5904 31.76C31.4616 31.352 32.3684 31.0246 33.2994 30.782C34.5401 30.4504 35.8 30.1949 37.0719 30.017M30.3594 35.4365C30.3189 34.8012 30.3189 34.1639 30.3594 33.5285C30.4104 33.4925 30.4644 33.4565 30.5214 33.4205C31.2264 32.966 32.2914 32.5295 33.6714 32.153C34.7269 31.8718 35.797 31.6485 36.8769 31.484C36.6682 33.4776 36.6682 35.4875 36.8769 37.481C35.7975 37.3165 34.7279 37.0932 33.6729 36.812C32.2929 36.434 31.2249 35.999 30.5214 35.5445L30.3594 35.4365ZM30.5889 37.2065C31.1281 39.9576 32.468 42.4881 34.4404 44.4802C36.4128 46.4724 38.9298 47.8375 41.6754 48.404C40.5684 47.591 39.6234 46.337 38.8794 44.849C38.0544 43.199 37.4304 41.1845 37.0719 38.9465C35.8 38.7687 34.5401 38.5132 33.2994 38.1815C32.368 37.94 31.4607 37.6136 30.5889 37.2065ZM47.4024 48.404C50.148 47.8375 52.665 46.4724 54.6374 44.4802C56.6098 42.4881 57.9497 39.9576 58.4889 37.2065C57.6176 37.6136 56.7108 37.9399 55.7799 38.1815C54.5387 38.5133 53.2783 38.7687 52.0059 38.9465C51.6459 41.1845 51.0234 43.199 50.1984 44.849C49.4544 46.337 48.5094 47.591 47.4024 48.404ZM58.7184 33.5285C58.7589 34.1639 58.7589 34.8012 58.7184 35.4365L58.5579 35.5445C57.8529 35.999 56.7864 36.4355 55.4049 36.812C54.4569 37.07 53.3799 37.295 52.2009 37.481C52.4096 35.4875 52.4096 33.4776 52.2009 31.484C53.3799 31.6685 54.4569 31.895 55.4049 32.153C56.7864 32.5295 57.8529 32.966 58.5579 33.4205C58.6149 33.4565 58.6684 33.4925 58.7184 33.5285ZM58.4889 31.76C57.95 29.0087 56.6102 26.4779 54.6378 24.4854C52.6653 22.493 50.1482 21.1277 47.4024 20.561C48.5094 21.374 49.4544 22.628 50.1984 24.116C51.0234 25.766 51.6474 27.7805 52.0059 30.0185C53.2778 30.1964 54.5377 30.4519 55.7784 30.7835C56.8119 31.064 57.7284 31.3895 58.4889 31.7585M38.5449 29.8295C38.8914 27.887 39.4479 26.1575 40.1499 24.752C41.2074 22.637 42.5124 21.3995 43.8279 21.071V29.513C42.0628 29.5316 40.2997 29.6383 38.5449 29.8295ZM45.2499 29.513V21.071C46.5654 21.401 47.8704 22.637 48.9279 24.752C49.6299 26.1575 50.1864 27.887 50.5329 29.8295C48.7781 29.6377 47.015 29.5321 45.2499 29.513ZM38.3289 31.2845C40.1545 31.0714 41.99 30.9542 43.8279 30.9335V38.0315C41.9905 38.0108 40.1555 37.8937 38.3304 37.6805C38.2052 36.6192 38.1431 35.5513 38.1444 34.4825C38.1444 33.3785 38.2074 32.3075 38.3289 31.2845ZM50.7489 31.2845C48.9233 31.0714 47.0878 30.9542 45.2499 30.9335V38.0315C47.0878 38.0109 48.9233 37.8937 50.7489 37.6805C50.8689 36.6575 50.9334 35.5865 50.9334 34.4825C50.9334 33.3785 50.8689 32.3075 50.7489 31.2845ZM38.5449 39.1355C40.1919 39.32 41.9709 39.4295 43.8279 39.4505V47.894C42.5124 47.564 41.2074 46.328 40.1499 44.213C39.4479 42.8075 38.8914 41.078 38.5449 39.1355ZM45.2499 39.452V47.894C46.5654 47.564 47.8704 46.328 48.9279 44.213C49.6299 42.8075 50.1864 41.078 50.5329 39.1355C48.7781 39.3268 47.015 39.4334 45.2499 39.452Z" fill="#2A73FE"/>
</g>
<defs>
<filter id="filter0_dddd_215_803" x="-9.53674e-07" y="5.40018e-05" width="89.0779" height="110.629" filterUnits="userSpaceOnUse" color-interpolation-filters="sRGB">
<feFlood flood-opacity="0" result="BackgroundImageFix"/>
<feColorMatrix in="SourceAlpha" type="matrix" values="0 0 0 0 0 0 0 0 0 0 0 0 0 0 0 0 0 0 127 0" result="hardAlpha"/>
<feOffset dy="1.43674"/>
<feGaussianBlur stdDeviation="2.15511"/>
<feColorMatrix type="matrix" values="0 0 0 0 0 0 0 0 0 0.431373 0 0 0 0 1 0 0 0 0.18 0"/>
<feBlend mode="normal" in2="BackgroundImageFix" result="effect1_dropShadow_215_803"/>
<feColorMatrix in="SourceAlpha" type="matrix" values="0 0 0 0 0 0 0 0 0 0 0 0 0 0 0 0 0 0 127 0" result="hardAlpha"/>
<feOffset dy="8.62044"/>
<feGaussianBlur stdDeviation="4.31022"/>
<feColorMatrix type="matrix" values="0 0 0 0 0 0 0 0 0 0.431373 0 0 0 0 1 0 0 0 0.15 0"/>
<feBlend mode="normal" in2="effect1_dropShadow_215_803" result="effect2_dropShadow_215_803"/>
<feColorMatrix in="SourceAlpha" type="matrix" values="0 0 0 0 0 0 0 0 0 0 0 0 0 0 0 0 0 0 127 0" result="hardAlpha"/>
<feOffset dy="18.6776"/>
<feGaussianBlur stdDeviation="5.74696"/>
<feColorMatrix type="matrix" values="0 0 0 0 0 0 0 0 0 0.431373 0 0 0 0 1 0 0 0 0.09 0"/>
<feBlend mode="normal" in2="effect2_dropShadow_215_803" result="effect3_dropShadow_215_803"/>
<feColorMatrix in="SourceAlpha" type="matrix" values="0 0 0 0 0 0 0 0 0 0 0 0 0 0 0 0 0 0 127 0" result="hardAlpha"/>
<feOffset dy="31.6083"/>
<feGaussianBlur stdDeviation="6.46533"/>
<feColorMatrix type="matrix" values="0 0 0 0 0 0 0 0 0 0.431373 0 0 0 0 1 0 0 0 0.03 0"/>
<feBlend mode="normal" in2="effect3_dropShadow_215_803" result="effect4_dropShadow_215_803"/>
<feBlend mode="normal" in="SourceGraphic" in2="effect4_dropShadow_215_803" result="shape"/>
</filter>
</defs>
</svg>
