<svg width="20" height="20" viewBox="0 0 20 20" fill="none" xmlns="http://www.w3.org/2000/svg">
<path d="M8.33333 7.50016C8.33333 7.01102 8.51578 6.69819 8.75529 6.49496C9.01293 6.27636 9.38614 6.146 9.79167 6.146C10.1972 6.146 10.5704 6.27636 10.828 6.49496C11.0676 6.69819 11.25 7.01102 11.25 7.50016C11.25 7.86447 11.1642 8.06672 11.0644 8.2163C10.9481 8.39081 10.795 8.52842 10.5361 8.76114L10.4842 8.80784C10.2179 9.04754 9.86747 9.37158 9.60031 9.84357C9.32498 10.33 9.16667 10.9177 9.16667 11.6668C9.16667 12.1271 9.53976 12.5002 10 12.5002C10.4602 12.5002 10.8333 12.1271 10.8333 11.6668C10.8333 11.1659 10.9354 10.8683 11.0507 10.6646C11.1742 10.4465 11.3446 10.2757 11.5991 10.0467C11.622 10.026 11.6462 10.0045 11.6714 9.98207C11.8991 9.77908 12.211 9.50103 12.4512 9.1408C12.7421 8.70444 12.9167 8.17752 12.9167 7.50016C12.9167 6.53097 12.5262 5.75005 11.9063 5.22411C11.3046 4.71355 10.532 4.47933 9.79167 4.47933C9.05137 4.47933 8.27874 4.71355 7.677 5.22411C7.05714 5.75005 6.66667 6.53097 6.66667 7.50016C6.66667 7.9604 7.03976 8.3335 7.5 8.3335C7.96024 8.3335 8.33333 7.9604 8.33333 7.50016Z" fill="#757575"/>
<path d="M10.6249 15.5599C10.9345 15.2194 10.9095 14.6923 10.5689 14.3827C10.2284 14.0731 9.70133 14.0982 9.39173 14.4388L9.3834 14.4479C9.0738 14.7885 9.09888 15.3155 9.43942 15.6251C9.77996 15.9347 10.307 15.9096 10.6166 15.5691L10.6249 15.5599Z" fill="#757575"/>
<path fill-rule="evenodd" clip-rule="evenodd" d="M10 0.833496C4.93726 0.833496 0.833334 4.93743 0.833334 10.0002C0.833334 15.0629 4.93726 19.1668 10 19.1668C15.0627 19.1668 19.1667 15.0629 19.1667 10.0002C19.1667 4.93743 15.0627 0.833496 10 0.833496ZM2.5 10.0002C2.5 5.8579 5.85774 2.50016 10 2.50016C14.1423 2.50016 17.5 5.8579 17.5 10.0002C17.5 14.1424 14.1423 17.5002 10 17.5002C5.85774 17.5002 2.5 14.1424 2.5 10.0002Z" fill="#757575"/>
</svg>
