<svg width="20" height="20" viewBox="0 0 20 20" fill="none" xmlns="http://www.w3.org/2000/svg">
<path d="M5.83333 1.6665C5.17029 1.6665 4.53441 1.9299 4.06557 2.39874C3.59673 2.86758 3.33333 3.50346 3.33333 4.1665V15.8332C3.33333 16.4962 3.59673 17.1321 4.06557 17.6009C4.53441 18.0698 5.17029 18.3332 5.83333 18.3332H14.1667C14.8297 18.3332 15.4656 18.0698 15.9344 17.6009C16.4033 17.1321 16.6667 16.4962 16.6667 15.8332V14.9998C16.6667 14.5396 16.2936 14.1665 15.8333 14.1665C15.3731 14.1665 15 14.5396 15 14.9998V15.8332C15 16.0542 14.9122 16.2661 14.7559 16.4224C14.5996 16.5787 14.3877 16.6665 14.1667 16.6665H5.83333C5.61232 16.6665 5.40036 16.5787 5.24408 16.4224C5.0878 16.2661 5 16.0542 5 15.8332V4.1665C5 3.94549 5.0878 3.73353 5.24408 3.57725C5.40036 3.42097 5.61232 3.33317 5.83333 3.33317H14.1667C14.3877 3.33317 14.5996 3.42097 14.7559 3.57725C14.9122 3.73353 15 3.94549 15 4.1665V4.99984C15 5.46007 15.3731 5.83317 15.8333 5.83317C16.2936 5.83317 16.6667 5.46007 16.6667 4.99984V4.1665C16.6667 3.50346 16.4033 2.86758 15.9344 2.39874C15.4656 1.9299 14.8297 1.6665 14.1667 1.6665H5.83333Z" fill="#CE1810"/>
<path d="M13.9226 6.91058C13.5972 6.58514 13.0695 6.58514 12.7441 6.91058C12.4186 7.23602 12.4186 7.76366 12.7441 8.08909L13.8215 9.1665H10C9.53976 9.1665 9.16667 9.5396 9.16667 9.99984C9.16667 10.4601 9.53976 10.8332 10 10.8332H13.8215L12.7441 11.9106C12.4186 12.236 12.4186 12.7637 12.7441 13.0891C13.0695 13.4145 13.5972 13.4145 13.9226 13.0891L16.4226 10.5891C16.748 10.2637 16.748 9.73602 16.4226 9.41058L13.9226 6.91058Z" fill="#CE1810"/>
</svg>
