<svg width="20" height="20" viewBox="0 0 20 20" fill="none" xmlns="http://www.w3.org/2000/svg">
<path d="M6.66667 7.49992C6.20643 7.49992 5.83333 7.87302 5.83333 8.33325C5.83333 8.79349 6.20643 9.16659 6.66667 9.16659H13.3333C13.7936 9.16659 14.1667 8.79349 14.1667 8.33325C14.1667 7.87302 13.7936 7.49992 13.3333 7.49992H6.66667Z" fill="#757575"/>
<path d="M6.66667 10.8333C6.20643 10.8333 5.83333 11.2063 5.83333 11.6666C5.83333 12.1268 6.20643 12.4999 6.66667 12.4999H10C10.4602 12.4999 10.8333 12.1268 10.8333 11.6666C10.8333 11.2063 10.4602 10.8333 10 10.8333H6.66667Z" fill="#757575"/>
<path d="M6.66667 14.1666C6.20643 14.1666 5.83333 14.5397 5.83333 14.9999C5.83333 15.4602 6.20643 15.8333 6.66667 15.8333H13.3333C13.7936 15.8333 14.1667 15.4602 14.1667 14.9999C14.1667 14.5397 13.7936 14.1666 13.3333 14.1666H6.66667Z" fill="#757575"/>
<path fill-rule="evenodd" clip-rule="evenodd" d="M17.399 4.28124C17.3319 4.11893 17.2335 3.97147 17.1093 3.84733L14.4863 1.22436C14.2365 0.974244 13.8976 0.833563 13.5441 0.833252H3.83333C3.47971 0.833252 3.14057 0.973728 2.89052 1.22378C2.64048 1.47382 2.5 1.81296 2.5 2.16659V17.8333C2.5 18.0083 2.53449 18.1817 2.60149 18.3435C2.6685 18.5053 2.76671 18.6522 2.89052 18.7761C3.01433 18.8999 3.16132 18.9981 3.32309 19.0651C3.48486 19.1321 3.65824 19.1666 3.83333 19.1666H16.1667C16.3418 19.1666 16.5151 19.1321 16.6769 19.0651C16.8387 18.9981 16.9857 18.8999 17.1095 18.7761C17.2333 18.6523 17.3315 18.5053 17.3985 18.3435C17.4655 18.1817 17.5 18.0083 17.5 17.8333V4.79184L16.6667 4.79159L17.5 4.79363L17.5 4.79184C17.5002 4.61666 17.4659 4.44315 17.399 4.28124ZM12.5 4.58325C12.5 5.27361 13.0596 5.83325 13.75 5.83325H15.8333V17.4999H4.16667V2.49992H12.5V4.58325ZM15.0715 4.16659L14.1667 3.26176V4.16659H15.0715Z" fill="#757575"/>
</svg>
