<svg width="20" height="20" viewBox="0 0 20 20" fill="none" xmlns="http://www.w3.org/2000/svg">
<path fill-rule="evenodd" clip-rule="evenodd" d="M13 1.6665C12.6464 1.6665 12.3072 1.80698 12.0572 2.05703C11.8071 2.30708 11.6667 2.64622 11.6667 2.99984V6.6665H8C7.64638 6.6665 7.30724 6.80698 7.05719 7.05703C6.80714 7.30708 6.66667 7.64622 6.66667 7.99984V12.4998H3C2.64638 12.4998 2.30724 12.6403 2.05719 12.8904C1.80714 13.1404 1.66667 13.4795 1.66667 13.8332V16.9998C1.66667 17.3535 1.80714 17.6926 2.05719 17.9426C2.30724 18.1927 2.64638 18.3332 3 18.3332H17C17.3536 18.3332 17.6928 18.1927 17.9428 17.9426C18.1929 17.6926 18.3333 17.3535 18.3333 16.9998V2.99984C18.3333 2.64622 18.1929 2.30708 17.9428 2.05703C17.6928 1.80698 17.3536 1.6665 17 1.6665H13ZM8.33333 8.33317H11.6667V16.6665H8.33333V8.33317ZM16.6667 16.6665H13.3333V3.33317H16.6667V16.6665ZM6.66667 14.1665V16.6665H3.33333V14.1665H6.66667Z" fill="#757575"/>
</svg>
