<svg width="90" height="111" viewBox="0 0 90 111" fill="none" xmlns="http://www.w3.org/2000/svg">
<g filter="url(#filter0_dddd_215_806)">
<rect x="12.9307" y="2.87354" width="63.2166" height="63.2166" rx="31.6083" fill="white"/>
<path d="M33.289 17.8154C33.6205 17.8154 33.9384 17.9471 34.1729 18.1815C34.4073 18.416 34.539 18.7339 34.539 19.0654V23.2321C34.539 23.5636 34.4073 23.8816 34.1729 24.116C33.9384 24.3504 33.6205 24.4821 33.289 24.4821H29.1223C28.7908 24.4821 28.4729 24.3504 28.2384 24.116C28.004 23.8816 27.8723 23.5636 27.8723 23.2321C27.8723 22.9006 28.004 22.5826 28.2384 22.3482C28.4729 22.1138 28.7908 21.9821 29.1223 21.9821H32.039V19.0654C32.039 18.7339 32.1707 18.416 32.4051 18.1815C32.6395 17.9471 32.9575 17.8154 33.289 17.8154ZM55.789 17.8154C56.1205 17.8154 56.4384 17.9471 56.6729 18.1815C56.9073 18.416 57.039 18.7339 57.039 19.0654V21.9821H59.9557C60.2872 21.9821 60.6051 22.1138 60.8395 22.3482C61.074 22.5826 61.2057 22.9006 61.2057 23.2321C61.2057 23.5636 61.074 23.8816 60.8395 24.116C60.6051 24.3504 60.2872 24.4821 59.9557 24.4821H55.789C55.4575 24.4821 55.1395 24.3504 54.9051 24.116C54.6707 23.8816 54.539 23.5636 54.539 23.2321V19.0654C54.539 18.7339 54.6707 18.416 54.9051 18.1815C55.1395 17.9471 55.4575 17.8154 55.789 17.8154ZM33.289 51.1488C33.6205 51.1488 33.9384 51.0171 34.1729 50.7826C34.4073 50.5482 34.539 50.2303 34.539 49.8988V45.7321C34.539 45.4006 34.4073 45.0826 34.1729 44.8482C33.9384 44.6138 33.6205 44.4821 33.289 44.4821H29.1223C28.7908 44.4821 28.4729 44.6138 28.2384 44.8482C28.004 45.0826 27.8723 45.4006 27.8723 45.7321C27.8723 46.0636 28.004 46.3816 28.2384 46.616C28.4729 46.8504 28.7908 46.9821 29.1223 46.9821H32.039V49.8988C32.039 50.5888 32.599 51.1488 33.289 51.1488ZM55.789 51.1488C56.1205 51.1488 56.4384 51.0171 56.6729 50.7826C56.9073 50.5482 57.039 50.2303 57.039 49.8988V46.9821H59.9557C60.2872 46.9821 60.6051 46.8504 60.8395 46.616C61.074 46.3816 61.2057 46.0636 61.2057 45.7321C61.2057 45.4006 61.074 45.0826 60.8395 44.8482C60.6051 44.6138 60.2872 44.4821 59.9557 44.4821H55.789C55.4575 44.4821 55.1395 44.6138 54.9051 44.8482C54.6707 45.0826 54.539 45.4006 54.539 45.7321V49.8988C54.539 50.5888 55.099 51.1488 55.789 51.1488ZM38.7056 24.4821C38.0426 24.4821 37.4067 24.7455 36.9379 25.2143C36.469 25.6832 36.2056 26.3191 36.2056 26.9821V41.9821C36.2056 42.6451 36.469 43.281 36.9379 43.7499C37.4067 44.2187 38.0426 44.4821 38.7056 44.4821H50.3723C51.0354 44.4821 51.6712 44.2187 52.1401 43.7499C52.6089 43.281 52.8723 42.6451 52.8723 41.9821V26.9821C52.8723 26.3191 52.6089 25.6832 52.1401 25.2143C51.6712 24.7455 51.0354 24.4821 50.3723 24.4821H38.7056ZM40.3723 31.5654C40.3723 31.2339 40.504 30.916 40.7384 30.6815C40.9729 30.4471 41.2908 30.3154 41.6223 30.3154H47.4556C47.7872 30.3154 48.1051 30.4471 48.3395 30.6815C48.574 30.916 48.7056 31.2339 48.7056 31.5654C48.7056 31.897 48.574 32.2149 48.3395 32.4493C48.1051 32.6837 47.7872 32.8154 47.4556 32.8154H41.6223C41.2908 32.8154 40.9729 32.6837 40.7384 32.4493C40.504 32.2149 40.3723 31.897 40.3723 31.5654ZM40.3723 36.5654C40.3723 36.2339 40.504 35.916 40.7384 35.6815C40.9729 35.4471 41.2908 35.3154 41.6223 35.3154H44.9556C45.2872 35.3154 45.6051 35.4471 45.8395 35.6815C46.074 35.916 46.2056 36.2339 46.2056 36.5654C46.2056 36.897 46.074 37.2149 45.8395 37.4493C45.6051 37.6837 45.2872 37.8154 44.9556 37.8154H41.6223C41.2908 37.8154 40.9729 37.6837 40.7384 37.4493C40.504 37.2149 40.3723 36.897 40.3723 36.5654Z" fill="#2A73FE"/>
</g>
<defs>
<filter id="filter0_dddd_215_806" x="-9.53674e-07" y="5.40018e-05" width="89.0779" height="110.629" filterUnits="userSpaceOnUse" color-interpolation-filters="sRGB">
<feFlood flood-opacity="0" result="BackgroundImageFix"/>
<feColorMatrix in="SourceAlpha" type="matrix" values="0 0 0 0 0 0 0 0 0 0 0 0 0 0 0 0 0 0 127 0" result="hardAlpha"/>
<feOffset dy="1.43674"/>
<feGaussianBlur stdDeviation="2.15511"/>
<feColorMatrix type="matrix" values="0 0 0 0 0 0 0 0 0 0.431373 0 0 0 0 1 0 0 0 0.18 0"/>
<feBlend mode="normal" in2="BackgroundImageFix" result="effect1_dropShadow_215_806"/>
<feColorMatrix in="SourceAlpha" type="matrix" values="0 0 0 0 0 0 0 0 0 0 0 0 0 0 0 0 0 0 127 0" result="hardAlpha"/>
<feOffset dy="8.62044"/>
<feGaussianBlur stdDeviation="4.31022"/>
<feColorMatrix type="matrix" values="0 0 0 0 0 0 0 0 0 0.431373 0 0 0 0 1 0 0 0 0.15 0"/>
<feBlend mode="normal" in2="effect1_dropShadow_215_806" result="effect2_dropShadow_215_806"/>
<feColorMatrix in="SourceAlpha" type="matrix" values="0 0 0 0 0 0 0 0 0 0 0 0 0 0 0 0 0 0 127 0" result="hardAlpha"/>
<feOffset dy="18.6776"/>
<feGaussianBlur stdDeviation="5.74696"/>
<feColorMatrix type="matrix" values="0 0 0 0 0 0 0 0 0 0.431373 0 0 0 0 1 0 0 0 0.09 0"/>
<feBlend mode="normal" in2="effect2_dropShadow_215_806" result="effect3_dropShadow_215_806"/>
<feColorMatrix in="SourceAlpha" type="matrix" values="0 0 0 0 0 0 0 0 0 0 0 0 0 0 0 0 0 0 127 0" result="hardAlpha"/>
<feOffset dy="31.6083"/>
<feGaussianBlur stdDeviation="6.46533"/>
<feColorMatrix type="matrix" values="0 0 0 0 0 0 0 0 0 0.431373 0 0 0 0 1 0 0 0 0.03 0"/>
<feBlend mode="normal" in2="effect3_dropShadow_215_806" result="effect4_dropShadow_215_806"/>
<feBlend mode="normal" in="SourceGraphic" in2="effect4_dropShadow_215_806" result="shape"/>
</filter>
</defs>
</svg>
