<svg width="90" height="111" viewBox="0 0 90 111" fill="none" xmlns="http://www.w3.org/2000/svg">
<g filter="url(#filter0_dddd_215_801)">
<rect x="12.9307" y="2.87354" width="63.2166" height="63.2166" rx="31.6083" fill="white"/>
<path d="M58.9321 27.7087H52.7233V26.862C52.7216 24.727 51.8866 22.6769 50.3961 21.1483C48.9056 19.6197 46.8772 18.7333 44.7429 18.6777H44.3351C42.2008 18.7333 40.1724 19.6197 38.6819 21.1483C37.1914 22.6769 36.3564 24.727 36.3547 26.862V27.7087H30.1459C30.0711 27.7087 29.9993 27.7384 29.9464 27.7913C29.8934 27.8443 29.8637 27.916 29.8637 27.9909V49.1572C29.8637 49.4566 29.9826 49.7437 30.1943 49.9554C30.406 50.1671 30.6932 50.286 30.9926 50.286H58.0854C58.3848 50.286 58.6719 50.1671 58.8836 49.9554C59.0953 49.7437 59.2143 49.4566 59.2143 49.1572V27.9909C59.2143 27.916 59.1845 27.8443 59.1316 27.7913C59.0787 27.7384 59.0069 27.7087 58.9321 27.7087ZM39.1769 26.9326C39.1769 23.9806 41.5341 21.5309 44.4861 21.4999C45.1945 21.4937 45.8971 21.6277 46.5534 21.8943C47.2098 22.1609 47.8069 22.5548 48.3102 23.0533C48.8136 23.5518 49.2134 24.1449 49.4864 24.7986C49.7594 25.4523 49.9004 26.1536 49.9011 26.862V27.7087H39.1769V26.9326ZM42.7617 44.7207L38.4318 39.6606L40.147 38.1923L42.7046 41.1782L48.8788 33.4595L50.6426 34.8706L42.7617 44.7207Z" fill="#2A73FE"/>
</g>
<defs>
<filter id="filter0_dddd_215_801" x="-9.53674e-07" y="5.40018e-05" width="89.0779" height="110.629" filterUnits="userSpaceOnUse" color-interpolation-filters="sRGB">
<feFlood flood-opacity="0" result="BackgroundImageFix"/>
<feColorMatrix in="SourceAlpha" type="matrix" values="0 0 0 0 0 0 0 0 0 0 0 0 0 0 0 0 0 0 127 0" result="hardAlpha"/>
<feOffset dy="1.43674"/>
<feGaussianBlur stdDeviation="2.15511"/>
<feColorMatrix type="matrix" values="0 0 0 0 0 0 0 0 0 0.431373 0 0 0 0 1 0 0 0 0.18 0"/>
<feBlend mode="normal" in2="BackgroundImageFix" result="effect1_dropShadow_215_801"/>
<feColorMatrix in="SourceAlpha" type="matrix" values="0 0 0 0 0 0 0 0 0 0 0 0 0 0 0 0 0 0 127 0" result="hardAlpha"/>
<feOffset dy="8.62044"/>
<feGaussianBlur stdDeviation="4.31022"/>
<feColorMatrix type="matrix" values="0 0 0 0 0 0 0 0 0 0.431373 0 0 0 0 1 0 0 0 0.15 0"/>
<feBlend mode="normal" in2="effect1_dropShadow_215_801" result="effect2_dropShadow_215_801"/>
<feColorMatrix in="SourceAlpha" type="matrix" values="0 0 0 0 0 0 0 0 0 0 0 0 0 0 0 0 0 0 127 0" result="hardAlpha"/>
<feOffset dy="18.6776"/>
<feGaussianBlur stdDeviation="5.74696"/>
<feColorMatrix type="matrix" values="0 0 0 0 0 0 0 0 0 0.431373 0 0 0 0 1 0 0 0 0.09 0"/>
<feBlend mode="normal" in2="effect2_dropShadow_215_801" result="effect3_dropShadow_215_801"/>
<feColorMatrix in="SourceAlpha" type="matrix" values="0 0 0 0 0 0 0 0 0 0 0 0 0 0 0 0 0 0 127 0" result="hardAlpha"/>
<feOffset dy="31.6083"/>
<feGaussianBlur stdDeviation="6.46533"/>
<feColorMatrix type="matrix" values="0 0 0 0 0 0 0 0 0 0.431373 0 0 0 0 1 0 0 0 0.03 0"/>
<feBlend mode="normal" in2="effect3_dropShadow_215_801" result="effect4_dropShadow_215_801"/>
<feBlend mode="normal" in="SourceGraphic" in2="effect4_dropShadow_215_801" result="shape"/>
</filter>
</defs>
</svg>
