<svg width="408" height="282" viewBox="0 0 408 282" fill="none" xmlns="http://www.w3.org/2000/svg">
<g clip-path="url(#clip0_215_439)">
<rect width="407.368" height="281.053" rx="16.8421" fill="url(#paint0_linear_215_439)"/>
<path d="M26.6263 38.6311C26.6263 35.9567 27.2235 33.568 28.4179 31.4648C29.6382 29.3357 31.287 27.6869 33.3642 26.5185C35.4673 25.3241 37.8172 24.7269 40.4137 24.7269C43.4515 24.7269 46.1129 25.5059 48.3979 27.0637C50.6828 28.6216 52.2796 30.7767 53.1884 33.529H46.9179C46.2947 32.2308 45.4119 31.2571 44.2694 30.608C43.1529 29.9588 41.8547 29.6343 40.3747 29.6343C38.7908 29.6343 37.3758 30.0108 36.1294 30.7637C34.9091 31.4908 33.9484 32.5294 33.2473 33.8795C32.5722 35.2297 32.2347 36.8136 32.2347 38.6311C32.2347 40.4227 32.5722 42.0066 33.2473 43.3827C33.9484 44.7329 34.9091 45.7844 36.1294 46.5374C37.3758 47.2644 38.7908 47.628 40.3747 47.628C41.8547 47.628 43.1529 47.3034 44.2694 46.6543C45.4119 45.9792 46.2947 44.9925 46.9179 43.6943H53.1884C52.2796 46.4725 50.6828 48.6406 48.3979 50.1985C46.1389 51.7304 43.4775 52.4964 40.4137 52.4964C37.8172 52.4964 35.4673 51.9122 33.3642 50.7437C31.287 49.5494 29.6382 47.9006 28.4179 45.7974C27.2235 43.6943 26.6263 41.3055 26.6263 38.6311ZM67.4267 52.6132C65.3495 52.6132 63.48 52.1588 61.8183 51.2501C60.1565 50.3153 58.8453 49.0041 57.8846 47.3164C56.9498 45.6287 56.4825 43.6813 56.4825 41.4743C56.4825 39.2673 56.9628 37.3199 57.9235 35.6322C58.9102 33.9444 60.2474 32.6462 61.9351 31.7374C63.6228 30.8027 65.5053 30.3353 67.5825 30.3353C69.6597 30.3353 71.5421 30.8027 73.2298 31.7374C74.9176 32.6462 76.2418 33.9444 77.2025 35.6322C78.1891 37.3199 78.6825 39.2673 78.6825 41.4743C78.6825 43.6813 78.1762 45.6287 77.1635 47.3164C76.1769 49.0041 74.8267 50.3153 73.113 51.2501C71.4253 52.1588 69.5298 52.6132 67.4267 52.6132ZM67.4267 47.8616C68.4134 47.8616 69.3351 47.628 70.192 47.1606C71.0748 46.6673 71.7758 45.9402 72.2951 44.9795C72.8144 44.0188 73.0741 42.8504 73.0741 41.4743C73.0741 39.423 72.5288 37.8522 71.4383 36.7616C70.3737 35.6452 69.0625 35.0869 67.5046 35.0869C65.9467 35.0869 64.6355 35.6452 63.5709 36.7616C62.5323 37.8522 62.013 39.423 62.013 41.4743C62.013 43.5255 62.5193 45.1094 63.532 46.2259C64.5706 47.3164 65.8688 47.8616 67.4267 47.8616ZM94.639 30.3743C97.2096 30.3743 99.2868 31.1922 100.871 32.828C102.454 34.4378 103.246 36.6967 103.246 39.6048V52.2627H97.7938V40.3448C97.7938 38.6311 97.3654 37.3199 96.5085 36.4111C95.6517 35.4764 94.4832 35.009 93.0032 35.009C91.4973 35.009 90.3029 35.4764 89.4201 36.4111C88.5632 37.3199 88.1348 38.6311 88.1348 40.3448V52.2627H82.6822V30.6859H88.1348V33.3732C88.8618 32.4385 89.7836 31.7115 90.9001 31.1922C92.0425 30.6469 93.2889 30.3743 94.639 30.3743ZM116.688 52.6132C114.923 52.6132 113.339 52.3016 111.937 51.6785C110.535 51.0294 109.418 50.1595 108.587 49.069C107.782 47.9785 107.341 46.7711 107.263 45.4469H112.755C112.859 46.2778 113.261 46.9659 113.962 47.5111C114.689 48.0564 115.585 48.329 116.649 48.329C117.688 48.329 118.493 48.1213 119.064 47.7059C119.661 47.2904 119.96 46.7581 119.96 46.109C119.96 45.408 119.596 44.8887 118.869 44.5511C118.168 44.1876 117.039 43.7981 115.481 43.3827C113.871 42.9932 112.547 42.5908 111.508 42.1753C110.496 41.7599 109.613 41.1237 108.86 40.2669C108.133 39.4101 107.769 38.2546 107.769 36.8006C107.769 35.6062 108.107 34.5157 108.782 33.529C109.483 32.5423 110.47 31.7634 111.742 31.1922C113.04 30.6209 114.559 30.3353 116.299 30.3353C118.869 30.3353 120.921 30.9844 122.453 32.2827C123.985 33.555 124.828 35.2816 124.984 37.4627H119.765C119.687 36.6059 119.324 35.9308 118.675 35.4374C118.052 34.9181 117.208 34.6585 116.143 34.6585C115.156 34.6585 114.391 34.8402 113.845 35.2037C113.326 35.5673 113.066 36.0736 113.066 36.7227C113.066 37.4497 113.43 38.008 114.157 38.3974C114.884 38.7609 116.013 39.1374 117.545 39.5269C119.103 39.9164 120.388 40.3188 121.401 40.7343C122.414 41.1497 123.284 41.7988 124.011 42.6816C124.764 43.5385 125.153 44.6809 125.179 46.109C125.179 47.3553 124.828 48.4718 124.127 49.4585C123.452 50.4452 122.466 51.2241 121.167 51.7953C119.895 52.3406 118.402 52.6132 116.688 52.6132ZM132.42 28.1153C131.459 28.1153 130.655 27.8167 130.005 27.2195C129.382 26.5964 129.071 25.8304 129.071 24.9216C129.071 24.0129 129.382 23.2599 130.005 22.6627C130.655 22.0395 131.459 21.728 132.42 21.728C133.381 21.728 134.173 22.0395 134.796 22.6627C135.445 23.2599 135.77 24.0129 135.77 24.9216C135.77 25.8304 135.445 26.5964 134.796 27.2195C134.173 27.8167 133.381 28.1153 132.42 28.1153ZM135.107 30.6859V52.2627H129.655V30.6859H135.107ZM148.752 52.6132C146.986 52.6132 145.402 52.3016 144 51.6785C142.598 51.0294 141.481 50.1595 140.65 49.069C139.846 47.9785 139.404 46.7711 139.326 45.4469H144.818C144.922 46.2778 145.324 46.9659 146.025 47.5111C146.752 48.0564 147.648 48.329 148.713 48.329C149.751 48.329 150.556 48.1213 151.127 47.7059C151.725 47.2904 152.023 46.7581 152.023 46.109C152.023 45.408 151.66 44.8887 150.933 44.5511C150.232 44.1876 149.102 43.7981 147.544 43.3827C145.934 42.9932 144.61 42.5908 143.572 42.1753C142.559 41.7599 141.676 41.1237 140.923 40.2669C140.196 39.4101 139.833 38.2546 139.833 36.8006C139.833 35.6062 140.17 34.5157 140.845 33.529C141.546 32.5423 142.533 31.7634 143.805 31.1922C145.103 30.6209 146.622 30.3353 148.362 30.3353C150.933 30.3353 152.984 30.9844 154.516 32.2827C156.048 33.555 156.892 35.2816 157.047 37.4627H151.828C151.75 36.6059 151.387 35.9308 150.738 35.4374C150.115 34.9181 149.271 34.6585 148.206 34.6585C147.22 34.6585 146.454 34.8402 145.908 35.2037C145.389 35.5673 145.129 36.0736 145.129 36.7227C145.129 37.4497 145.493 38.008 146.22 38.3974C146.947 38.7609 148.076 39.1374 149.608 39.5269C151.166 39.9164 152.452 40.3188 153.464 40.7343C154.477 41.1497 155.347 41.7988 156.074 42.6816C156.827 43.5385 157.216 44.6809 157.242 46.109C157.242 47.3553 156.892 48.4718 156.19 49.4585C155.515 50.4452 154.529 51.2241 153.23 51.7953C151.958 52.3406 150.465 52.6132 148.752 52.6132ZM168.066 35.1648V45.6027C168.066 46.3297 168.235 46.862 168.573 47.1995C168.936 47.5111 169.533 47.6669 170.364 47.6669H172.896V52.2627H169.468C164.873 52.2627 162.575 50.0297 162.575 45.5637V35.1648H160.004V30.6859H162.575V25.3501H168.066V30.6859H172.896V35.1648H168.066ZM196.876 41.0069C196.876 41.7859 196.824 42.4869 196.72 43.1101H180.946C181.076 44.668 181.621 45.8883 182.582 46.7711C183.543 47.6539 184.724 48.0953 186.126 48.0953C188.151 48.0953 189.592 47.2255 190.449 45.4859H196.33C195.707 47.563 194.513 49.2767 192.747 50.6269C190.982 51.9511 188.813 52.6132 186.243 52.6132C184.166 52.6132 182.296 52.1588 180.635 51.2501C178.999 50.3153 177.713 49.0041 176.779 47.3164C175.87 45.6287 175.416 43.6813 175.416 41.4743C175.416 39.2413 175.87 37.2809 176.779 35.5932C177.688 33.9055 178.96 32.6073 180.596 31.6985C182.231 30.7897 184.114 30.3353 186.243 30.3353C188.294 30.3353 190.125 30.7767 191.735 31.6595C193.37 32.5423 194.63 33.8016 195.512 35.4374C196.421 37.0473 196.876 38.9037 196.876 41.0069ZM191.228 39.449C191.202 38.0469 190.696 36.9304 189.709 36.0995C188.723 35.2427 187.515 34.8143 186.087 34.8143C184.737 34.8143 183.595 35.2297 182.66 36.0606C181.751 36.8655 181.193 37.995 180.985 39.449H191.228ZM212.812 30.3743C215.383 30.3743 217.46 31.1922 219.044 32.828C220.628 34.4378 221.42 36.6967 221.42 39.6048V52.2627H215.967V40.3448C215.967 38.6311 215.539 37.3199 214.682 36.4111C213.825 35.4764 212.657 35.009 211.177 35.009C209.671 35.009 208.476 35.4764 207.593 36.4111C206.737 37.3199 206.308 38.6311 206.308 40.3448V52.2627H200.856V30.6859H206.308V33.3732C207.035 32.4385 207.957 31.7115 209.073 31.1922C210.216 30.6469 211.462 30.3743 212.812 30.3743ZM225.203 41.4743C225.203 39.2413 225.657 37.2939 226.566 35.6322C227.475 33.9444 228.734 32.6462 230.344 31.7374C231.954 30.8027 233.797 30.3353 235.874 30.3353C238.549 30.3353 240.756 31.0104 242.495 32.3606C244.261 33.6848 245.442 35.5543 246.04 37.969H240.159C239.847 37.0343 239.315 36.3073 238.562 35.788C237.835 35.2427 236.926 34.9701 235.835 34.9701C234.278 34.9701 233.044 35.5413 232.135 36.6837C231.227 37.8002 230.772 39.3971 230.772 41.4743C230.772 43.5255 231.227 45.1223 232.135 46.2648C233.044 47.3813 234.278 47.9395 235.835 47.9395C238.042 47.9395 239.483 46.9529 240.159 44.9795H246.04C245.442 47.3164 244.261 49.1729 242.495 50.549C240.73 51.9252 238.523 52.6132 235.874 52.6132C233.797 52.6132 231.954 52.1588 230.344 51.2501C228.734 50.3153 227.475 49.0171 226.566 47.3553C225.657 45.6676 225.203 43.7073 225.203 41.4743ZM270.676 30.6859L257.317 62.4669H251.514L256.188 51.7174L247.542 30.6859H253.656L259.226 45.7585L264.873 30.6859H270.676Z" fill="white"/>
<path d="M26.0957 76.7615C26.0957 75.6772 26.3151 74.7284 26.754 73.9152C27.1929 73.0891 27.7931 72.4501 28.5547 71.9983C29.3292 71.5465 30.1876 71.3206 31.1299 71.3206C32.0593 71.3206 32.8661 71.5207 33.5502 71.9209C34.2343 72.321 34.7442 72.8245 35.0798 73.4311V71.4949H36.8612V82.1055H35.0798V80.1305C34.7313 80.7501 34.2085 81.2664 33.5115 81.6795C32.8273 82.0797 32.027 82.2797 31.1106 82.2797C30.1682 82.2797 29.3163 82.0474 28.5547 81.5827C27.7931 81.118 27.1929 80.4661 26.754 79.6271C26.3151 78.7881 26.0957 77.8328 26.0957 76.7615ZM35.0798 76.7808C35.0798 75.9805 34.9185 75.2835 34.5958 74.6897C34.2731 74.0959 33.8342 73.6441 33.2791 73.3343C32.737 73.0116 32.1368 72.8503 31.4784 72.8503C30.8201 72.8503 30.2199 73.0052 29.6777 73.315C29.1356 73.6248 28.7032 74.0766 28.3805 74.6703C28.0578 75.2641 27.8964 75.9612 27.8964 76.7615C27.8964 77.5747 28.0578 78.2846 28.3805 78.8913C28.7032 79.4851 29.1356 79.9433 29.6777 80.266C30.2199 80.5758 30.8201 80.7307 31.4784 80.7307C32.1368 80.7307 32.737 80.5758 33.2791 80.266C33.8342 79.9433 34.2731 79.4851 34.5958 78.8913C34.9185 78.2846 35.0798 77.5811 35.0798 76.7808ZM41.7943 67.7773V82.1055H40.0324V67.7773H41.7943ZM45.901 69.7717C45.5653 69.7717 45.2814 69.6555 45.049 69.4231C44.8167 69.1908 44.7005 68.9068 44.7005 68.5712C44.7005 68.2356 44.8167 67.9516 45.049 67.7192C45.2814 67.4869 45.5653 67.3707 45.901 67.3707C46.2237 67.3707 46.4947 67.4869 46.7142 67.7192C46.9465 67.9516 47.0627 68.2356 47.0627 68.5712C47.0627 68.9068 46.9465 69.1908 46.7142 69.4231C46.4947 69.6555 46.2237 69.7717 45.901 69.7717ZM46.7529 71.4949V82.1055H44.9909V71.4949H46.7529ZM54.3254 71.3206C55.2419 71.3206 56.0422 71.5207 56.7263 71.9209C57.4234 72.321 57.9397 72.8245 58.2753 73.4311V71.4949H60.0566V82.3378C60.0566 83.3059 59.8501 84.1643 59.4371 84.913C59.024 85.6746 58.4302 86.2684 57.6557 86.6943C56.8941 87.1203 56.0035 87.3333 54.9837 87.3333C53.5896 87.3333 52.4279 87.0041 51.4985 86.3458C50.5691 85.6875 50.0205 84.7904 49.8527 83.6545H51.5953C51.7889 84.2999 52.1891 84.8162 52.7958 85.2034C53.4025 85.6036 54.1318 85.8037 54.9837 85.8037C55.9518 85.8037 56.7392 85.5003 57.3459 84.8936C57.9655 84.287 58.2753 83.435 58.2753 82.3378V80.1111C57.9268 80.7307 57.4105 81.2471 56.7263 81.6601C56.0422 82.0732 55.2419 82.2797 54.3254 82.2797C53.3831 82.2797 52.5247 82.0474 51.7502 81.5827C50.9886 81.118 50.3884 80.4661 49.9495 79.6271C49.5106 78.7881 49.2912 77.8328 49.2912 76.7615C49.2912 75.6772 49.5106 74.7284 49.9495 73.9152C50.3884 73.0891 50.9886 72.4501 51.7502 71.9983C52.5247 71.5465 53.3831 71.3206 54.3254 71.3206ZM58.2753 76.7808C58.2753 75.9805 58.114 75.2835 57.7913 74.6897C57.4685 74.0959 57.0297 73.6441 56.4746 73.3343C55.9325 73.0116 55.3322 72.8503 54.6739 72.8503C54.0156 72.8503 53.4154 73.0052 52.8732 73.315C52.3311 73.6248 51.8986 74.0766 51.5759 74.6703C51.2532 75.2641 51.0919 75.9612 51.0919 76.7615C51.0919 77.5747 51.2532 78.2846 51.5759 78.8913C51.8986 79.4851 52.3311 79.9433 52.8732 80.266C53.4154 80.5758 54.0156 80.7307 54.6739 80.7307C55.3322 80.7307 55.9325 80.5758 56.4746 80.266C57.0297 79.9433 57.4685 79.4851 57.7913 78.8913C58.114 78.2846 58.2753 77.5811 58.2753 76.7808ZM68.3976 71.3013C69.6884 71.3013 70.734 71.695 71.5343 72.4824C72.3346 73.2569 72.7347 74.3799 72.7347 75.8514V82.1055H70.9921V76.1031C70.9921 75.0447 70.7275 74.2379 70.1983 73.6828C69.669 73.1149 68.9462 72.8309 68.0297 72.8309C67.1003 72.8309 66.3581 73.1213 65.803 73.7022C65.2609 74.2831 64.9898 75.1286 64.9898 76.2387V82.1055H63.2278V71.4949H64.9898V73.0052C65.3383 72.463 65.8095 72.0435 66.4033 71.7466C67.0099 71.4497 67.6747 71.3013 68.3976 71.3013ZM88.5663 71.3013C89.3925 71.3013 90.1282 71.4755 90.7736 71.8241C91.4191 72.1597 91.9289 72.6696 92.3033 73.3537C92.6776 74.0378 92.8648 74.8704 92.8648 75.8514V82.1055H91.1222V76.1031C91.1222 75.0447 90.8575 74.2379 90.3283 73.6828C89.812 73.1149 89.1085 72.8309 88.2178 72.8309C87.3013 72.8309 86.572 73.1278 86.0299 73.7216C85.4877 74.3024 85.2167 75.1479 85.2167 76.258V82.1055H83.474V76.1031C83.474 75.0447 83.2094 74.2379 82.6802 73.6828C82.1639 73.1149 81.4604 72.8309 80.5697 72.8309C79.6532 72.8309 78.9239 73.1278 78.3817 73.7216C77.8396 74.3024 77.5685 75.1479 77.5685 76.258V82.1055H75.8066V71.4949H77.5685V73.0245C77.917 72.4695 78.3817 72.0435 78.9626 71.7466C79.5564 71.4497 80.2083 71.3013 80.9182 71.3013C81.8089 71.3013 82.5963 71.5014 83.2804 71.9015C83.9646 72.3017 84.4744 72.889 84.81 73.6635C85.1069 72.9148 85.5974 72.3339 86.2816 71.9209C86.9657 71.5078 87.7273 71.3013 88.5663 71.3013ZM105.63 76.3936C105.63 76.7292 105.61 77.0842 105.572 77.4585H97.0911C97.1556 78.5041 97.5106 79.3237 98.156 79.9175C98.8143 80.4984 99.6082 80.7888 100.538 80.7888C101.299 80.7888 101.932 80.6146 102.435 80.266C102.951 79.9046 103.313 79.427 103.519 78.8332H105.417C105.133 79.853 104.565 80.6856 103.713 81.331C102.861 81.9635 101.803 82.2797 100.538 82.2797C99.5307 82.2797 98.6271 82.0538 97.8268 81.602C97.0394 81.1503 96.4198 80.5113 95.968 79.6852C95.5163 78.8461 95.2904 77.878 95.2904 76.7808C95.2904 75.6836 95.5098 74.722 95.9487 73.8958C96.3876 73.0697 97.0007 72.4372 97.7881 71.9983C98.5884 71.5465 99.5049 71.3206 100.538 71.3206C101.544 71.3206 102.435 71.5401 103.21 71.979C103.984 72.4178 104.578 73.0245 104.991 73.799C105.417 74.5606 105.63 75.4255 105.63 76.3936ZM103.81 76.0257C103.81 75.3545 103.661 74.78 103.364 74.3024C103.068 73.8119 102.661 73.444 102.145 73.1988C101.641 72.9406 101.08 72.8115 100.46 72.8115C99.5694 72.8115 98.8079 73.0955 98.1754 73.6635C97.5558 74.2314 97.2008 75.0189 97.1104 76.0257H103.81ZM113.319 71.3013C114.61 71.3013 115.655 71.695 116.456 72.4824C117.256 73.2569 117.656 74.3799 117.656 75.8514V82.1055H115.914V76.1031C115.914 75.0447 115.649 74.2379 115.12 73.6828C114.59 73.1149 113.868 72.8309 112.951 72.8309C112.022 72.8309 111.279 73.1213 110.724 73.7022C110.182 74.2831 109.911 75.1286 109.911 76.2387V82.1055H108.149V71.4949H109.911V73.0052C110.26 72.463 110.731 72.0435 111.325 71.7466C111.931 71.4497 112.596 71.3013 113.319 71.3013ZM122.877 72.9471V79.2011C122.877 79.7174 122.987 80.0853 123.206 80.3048C123.426 80.5113 123.807 80.6146 124.349 80.6146H125.646V82.1055H124.058C123.077 82.1055 122.341 81.8796 121.851 81.4278C121.36 80.976 121.115 80.2338 121.115 79.2011V72.9471H119.74V71.4949H121.115V68.8229H122.877V71.4949H125.646V72.9471H122.877ZM132.672 76.7615C132.672 75.6772 132.891 74.7284 133.33 73.9152C133.769 73.0891 134.369 72.4501 135.131 71.9983C135.905 71.5465 136.764 71.3206 137.706 71.3206C138.635 71.3206 139.442 71.5207 140.126 71.9209C140.81 72.321 141.32 72.8245 141.656 73.4311V71.4949H143.437V82.1055H141.656V80.1305C141.307 80.7501 140.785 81.2664 140.088 81.6795C139.403 82.0797 138.603 82.2797 137.687 82.2797C136.744 82.2797 135.892 82.0474 135.131 81.5827C134.369 81.118 133.769 80.4661 133.33 79.6271C132.891 78.7881 132.672 77.8328 132.672 76.7615ZM141.656 76.7808C141.656 75.9805 141.495 75.2835 141.172 74.6897C140.849 74.0959 140.41 73.6441 139.855 73.3343C139.313 73.0116 138.713 72.8503 138.055 72.8503C137.396 72.8503 136.796 73.0052 136.254 73.315C135.712 73.6248 135.279 74.0766 134.957 74.6703C134.634 75.2641 134.472 75.9612 134.472 76.7615C134.472 77.5747 134.634 78.2846 134.957 78.8913C135.279 79.4851 135.712 79.9433 136.254 80.266C136.796 80.5758 137.396 80.7307 138.055 80.7307C138.713 80.7307 139.313 80.5758 139.855 80.266C140.41 79.9433 140.849 79.4851 141.172 78.8913C141.495 78.2846 141.656 77.5811 141.656 76.7808ZM145.95 76.7808C145.95 75.6836 146.17 74.7284 146.608 73.9152C147.047 73.0891 147.654 72.4501 148.428 71.9983C149.216 71.5465 150.113 71.3206 151.12 71.3206C152.424 71.3206 153.495 71.6369 154.334 72.2694C155.186 72.9019 155.747 73.7797 156.019 74.9027H154.121C153.94 74.2573 153.585 73.7474 153.056 73.3731C152.54 72.9987 151.894 72.8115 151.12 72.8115C150.113 72.8115 149.3 73.1601 148.68 73.8571C148.061 74.5412 147.751 75.5158 147.751 76.7808C147.751 78.0587 148.061 79.0462 148.68 79.7433C149.3 80.4403 150.113 80.7888 151.12 80.7888C151.894 80.7888 152.54 80.6081 153.056 80.2467C153.572 79.8853 153.927 79.3689 154.121 78.6977H156.019C155.735 79.782 155.167 80.6533 154.315 81.3116C153.463 81.957 152.398 82.2797 151.12 82.2797C150.113 82.2797 149.216 82.0538 148.428 81.602C147.654 81.1503 147.047 80.5113 146.608 79.6852C146.17 78.859 145.95 77.8909 145.95 76.7808ZM160.325 73.2182C160.635 72.6115 161.074 72.1403 161.642 71.8047C162.223 71.4691 162.926 71.3013 163.752 71.3013V73.1213H163.288C161.313 73.1213 160.325 74.1927 160.325 76.3355V82.1055H158.563V71.4949H160.325V73.2182ZM170.607 82.2797C169.614 82.2797 168.71 82.0538 167.897 81.602C167.096 81.1503 166.464 80.5113 165.999 79.6852C165.547 78.8461 165.322 77.878 165.322 76.7808C165.322 75.6965 165.554 74.7413 166.019 73.9152C166.496 73.0762 167.142 72.4372 167.955 71.9983C168.768 71.5465 169.678 71.3206 170.685 71.3206C171.692 71.3206 172.602 71.5465 173.415 71.9983C174.228 72.4372 174.867 73.0697 175.332 73.8958C175.809 74.722 176.048 75.6836 176.048 76.7808C176.048 77.878 175.803 78.8461 175.313 79.6852C174.835 80.5113 174.183 81.1503 173.357 81.602C172.531 82.0538 171.614 82.2797 170.607 82.2797ZM170.607 80.7307C171.24 80.7307 171.834 80.5823 172.389 80.2854C172.944 79.9885 173.389 79.5432 173.725 78.9494C174.073 78.3556 174.248 77.6328 174.248 76.7808C174.248 75.9289 174.08 75.206 173.744 74.6122C173.409 74.0185 172.97 73.5796 172.428 73.2956C171.885 72.9987 171.298 72.8503 170.666 72.8503C170.02 72.8503 169.426 72.9987 168.884 73.2956C168.355 73.5796 167.929 74.0185 167.606 74.6122C167.284 75.206 167.122 75.9289 167.122 76.7808C167.122 77.6457 167.277 78.375 167.587 78.9688C167.91 79.5625 168.336 80.0079 168.865 80.3048C169.394 80.5888 169.975 80.7307 170.607 80.7307ZM182.315 82.2797C181.502 82.2797 180.772 82.1442 180.127 81.8731C179.482 81.5891 178.972 81.2019 178.597 80.7114C178.223 80.208 178.016 79.6335 177.978 78.9881H179.798C179.849 79.5174 180.095 79.9498 180.534 80.2854C180.985 80.621 181.573 80.7888 182.296 80.7888C182.967 80.7888 183.496 80.6404 183.883 80.3435C184.27 80.0466 184.464 79.6723 184.464 79.2205C184.464 78.7558 184.258 78.4137 183.844 78.1943C183.431 77.9619 182.792 77.736 181.928 77.5166C181.14 77.3101 180.495 77.1035 179.991 76.897C179.501 76.6776 179.075 76.3613 178.713 75.9482C178.365 75.5223 178.191 74.9672 178.191 74.2831C178.191 73.7409 178.352 73.244 178.675 72.7922C178.997 72.3404 179.456 71.9854 180.049 71.7273C180.643 71.4562 181.321 71.3206 182.083 71.3206C183.257 71.3206 184.206 71.6175 184.929 72.2113C185.652 72.8051 186.039 73.6183 186.091 74.651H184.329C184.29 74.0959 184.064 73.6506 183.651 73.315C183.251 72.9794 182.709 72.8115 182.024 72.8115C181.392 72.8115 180.889 72.9471 180.514 73.2182C180.14 73.4892 179.953 73.8442 179.953 74.2831C179.953 74.6316 180.062 74.922 180.282 75.1544C180.514 75.3738 180.798 75.5545 181.134 75.6965C181.482 75.8256 181.96 75.9741 182.567 76.1419C183.328 76.3484 183.948 76.5549 184.425 76.7615C184.903 76.9551 185.31 77.252 185.645 77.6521C185.994 78.0523 186.174 78.5751 186.187 79.2205C186.187 79.8013 186.026 80.3241 185.703 80.7888C185.381 81.2535 184.922 81.6214 184.329 81.8925C183.748 82.1506 183.076 82.2797 182.315 82.2797ZM192.625 82.2797C191.811 82.2797 191.082 82.1442 190.437 81.8731C189.791 81.5891 189.281 81.2019 188.907 80.7114C188.533 80.208 188.326 79.6335 188.287 78.9881H190.107C190.159 79.5174 190.404 79.9498 190.843 80.2854C191.295 80.621 191.882 80.7888 192.605 80.7888C193.276 80.7888 193.806 80.6404 194.193 80.3435C194.58 80.0466 194.774 79.6723 194.774 79.2205C194.774 78.7558 194.567 78.4137 194.154 78.1943C193.741 77.9619 193.102 77.736 192.237 77.5166C191.45 77.3101 190.805 77.1035 190.301 76.897C189.811 76.6776 189.385 76.3613 189.023 75.9482C188.675 75.5223 188.5 74.9672 188.5 74.2831C188.5 73.7409 188.662 73.244 188.984 72.7922C189.307 72.3404 189.765 71.9854 190.359 71.7273C190.953 71.4562 191.631 71.3206 192.392 71.3206C193.567 71.3206 194.516 71.6175 195.238 72.2113C195.961 72.8051 196.349 73.6183 196.4 74.651H194.638C194.6 74.0959 194.374 73.6506 193.961 73.315C193.56 72.9794 193.018 72.8115 192.334 72.8115C191.702 72.8115 191.198 72.9471 190.824 73.2182C190.45 73.4892 190.262 73.8442 190.262 74.2831C190.262 74.6316 190.372 74.922 190.592 75.1544C190.824 75.3738 191.108 75.5545 191.443 75.6965C191.792 75.8256 192.27 75.9741 192.876 76.1419C193.638 76.3484 194.257 76.5549 194.735 76.7615C195.213 76.9551 195.619 77.252 195.955 77.6521C196.303 78.0523 196.484 78.5751 196.497 79.2205C196.497 79.8013 196.336 80.3241 196.013 80.7888C195.69 81.2535 195.232 81.6214 194.638 81.8925C194.057 82.1506 193.386 82.2797 192.625 82.2797ZM214.215 76.3936C214.215 76.7292 214.195 77.0842 214.157 77.4585H205.676C205.741 78.5041 206.096 79.3237 206.741 79.9175C207.399 80.4984 208.193 80.7888 209.122 80.7888C209.884 80.7888 210.517 80.6146 211.02 80.266C211.536 79.9046 211.898 79.427 212.104 78.8332H214.002C213.718 79.853 213.15 80.6856 212.298 81.331C211.446 81.9635 210.387 82.2797 209.122 82.2797C208.116 82.2797 207.212 82.0538 206.412 81.602C205.624 81.1503 205.005 80.5113 204.553 79.6852C204.101 78.8461 203.875 77.878 203.875 76.7808C203.875 75.6836 204.095 74.722 204.534 73.8958C204.972 73.0697 205.586 72.4372 206.373 71.9983C207.173 71.5465 208.09 71.3206 209.122 71.3206C210.129 71.3206 211.02 71.5401 211.794 71.979C212.569 72.4178 213.163 73.0245 213.576 73.799C214.002 74.5606 214.215 75.4255 214.215 76.3936ZM212.395 76.0257C212.395 75.3545 212.246 74.78 211.949 74.3024C211.652 73.8119 211.246 73.444 210.73 73.1988C210.226 72.9406 209.665 72.8115 209.045 72.8115C208.154 72.8115 207.393 73.0955 206.76 73.6635C206.141 74.2314 205.786 75.0189 205.695 76.0257H212.395ZM220.684 80.479L223.976 71.4949H225.854L221.691 82.1055H219.639L215.476 71.4949H217.373L220.684 80.479ZM237.462 76.3936C237.462 76.7292 237.443 77.0842 237.404 77.4585H228.924C228.988 78.5041 229.343 79.3237 229.989 79.9175C230.647 80.4984 231.441 80.7888 232.37 80.7888C233.132 80.7888 233.764 80.6146 234.268 80.266C234.784 79.9046 235.145 79.427 235.352 78.8332H237.249C236.965 79.853 236.398 80.6856 235.546 81.331C234.694 81.9635 233.635 82.2797 232.37 82.2797C231.363 82.2797 230.46 82.0538 229.659 81.602C228.872 81.1503 228.252 80.5113 227.801 79.6852C227.349 78.8461 227.123 77.878 227.123 76.7808C227.123 75.6836 227.342 74.722 227.781 73.8958C228.22 73.0697 228.833 72.4372 229.621 71.9983C230.421 71.5465 231.337 71.3206 232.37 71.3206C233.377 71.3206 234.268 71.5401 235.042 71.979C235.817 72.4178 236.41 73.0245 236.823 73.799C237.249 74.5606 237.462 75.4255 237.462 76.3936ZM235.642 76.0257C235.642 75.3545 235.494 74.78 235.197 74.3024C234.9 73.8119 234.494 73.444 233.977 73.1988C233.474 72.9406 232.912 72.8115 232.293 72.8115C231.402 72.8115 230.64 73.0955 230.008 73.6635C229.388 74.2314 229.033 75.0189 228.943 76.0257H235.642ZM241.744 73.2182C242.054 72.6115 242.492 72.1403 243.06 71.8047C243.641 71.4691 244.345 71.3013 245.171 71.3013V73.1213H244.706C242.731 73.1213 241.744 74.1927 241.744 76.3355V82.1055H239.982V71.4949H241.744V73.2182ZM256.538 71.4949L250.148 87.101H248.328L250.419 81.9893L246.14 71.4949H248.096L251.426 80.0918L254.717 71.4949H256.538ZM263.2 76.7808C263.2 75.6836 263.419 74.7284 263.858 73.9152C264.297 73.0891 264.904 72.4501 265.678 71.9983C266.465 71.5465 267.363 71.3206 268.369 71.3206C269.673 71.3206 270.745 71.6369 271.584 72.2694C272.436 72.9019 272.997 73.7797 273.268 74.9027H271.371C271.19 74.2573 270.835 73.7474 270.306 73.3731C269.789 72.9987 269.144 72.8115 268.369 72.8115C267.363 72.8115 266.549 73.1601 265.93 73.8571C265.31 74.5412 265 75.5158 265 76.7808C265 78.0587 265.31 79.0462 265.93 79.7433C266.549 80.4403 267.363 80.7888 268.369 80.7888C269.144 80.7888 269.789 80.6081 270.306 80.2467C270.822 79.8853 271.177 79.3689 271.371 78.6977H273.268C272.984 79.782 272.416 80.6533 271.564 81.3116C270.712 81.957 269.647 82.2797 268.369 82.2797C267.363 82.2797 266.465 82.0538 265.678 81.602C264.904 81.1503 264.297 80.5113 263.858 79.6852C263.419 78.859 263.2 77.8909 263.2 76.7808ZM281.079 71.3013C281.88 71.3013 282.602 71.4755 283.248 71.8241C283.893 72.1597 284.397 72.6696 284.758 73.3537C285.132 74.0378 285.32 74.8704 285.32 75.8514V82.1055H283.577V76.1031C283.577 75.0447 283.312 74.2379 282.783 73.6828C282.254 73.1149 281.531 72.8309 280.615 72.8309C279.685 72.8309 278.943 73.1213 278.388 73.7022C277.846 74.2831 277.575 75.1286 277.575 76.2387V82.1055H275.813V67.7773H277.575V73.0052C277.923 72.463 278.401 72.0435 279.008 71.7466C279.627 71.4497 280.318 71.3013 281.079 71.3013ZM287.733 76.7615C287.733 75.6772 287.953 74.7284 288.391 73.9152C288.83 73.0891 289.431 72.4501 290.192 71.9983C290.967 71.5465 291.825 71.3206 292.767 71.3206C293.697 71.3206 294.504 71.5207 295.188 71.9209C295.872 72.321 296.382 72.8245 296.717 73.4311V71.4949H298.499V82.1055H296.717V80.1305C296.369 80.7501 295.846 81.2664 295.149 81.6795C294.465 82.0797 293.664 82.2797 292.748 82.2797C291.806 82.2797 290.954 82.0474 290.192 81.5827C289.431 81.118 288.83 80.4661 288.391 79.6271C287.953 78.7881 287.733 77.8328 287.733 76.7615ZM296.717 76.7808C296.717 75.9805 296.556 75.2835 296.233 74.6897C295.911 74.0959 295.472 73.6441 294.917 73.3343C294.374 73.0116 293.774 72.8503 293.116 72.8503C292.458 72.8503 291.857 73.0052 291.315 73.315C290.773 73.6248 290.341 74.0766 290.018 74.6703C289.695 75.2641 289.534 75.9612 289.534 76.7615C289.534 77.5747 289.695 78.2846 290.018 78.8913C290.341 79.4851 290.773 79.9433 291.315 80.266C291.857 80.5758 292.458 80.7307 293.116 80.7307C293.774 80.7307 294.374 80.5758 294.917 80.266C295.472 79.9433 295.911 79.4851 296.233 78.8913C296.556 78.2846 296.717 77.5811 296.717 76.7808ZM306.84 71.3013C308.13 71.3013 309.176 71.695 309.976 72.4824C310.777 73.2569 311.177 74.3799 311.177 75.8514V82.1055H309.434V76.1031C309.434 75.0447 309.169 74.2379 308.64 73.6828C308.111 73.1149 307.388 72.8309 306.472 72.8309C305.542 72.8309 304.8 73.1213 304.245 73.7022C303.703 74.2831 303.432 75.1286 303.432 76.2387V82.1055H301.67V71.4949H303.432V73.0052C303.78 72.463 304.251 72.0435 304.845 71.7466C305.452 71.4497 306.117 71.3013 306.84 71.3013ZM319.418 71.3013C320.709 71.3013 321.755 71.695 322.555 72.4824C323.355 73.2569 323.755 74.3799 323.755 75.8514V82.1055H322.013V76.1031C322.013 75.0447 321.748 74.2379 321.219 73.6828C320.69 73.1149 319.967 72.8309 319.05 72.8309C318.121 72.8309 317.379 73.1213 316.824 73.7022C316.282 74.2831 316.01 75.1286 316.01 76.2387V82.1055H314.248V71.4949H316.01V73.0052C316.359 72.463 316.83 72.0435 317.424 71.7466C318.031 71.4497 318.695 71.3013 319.418 71.3013ZM336.508 76.3936C336.508 76.7292 336.489 77.0842 336.45 77.4585H327.97C328.034 78.5041 328.389 79.3237 329.035 79.9175C329.693 80.4984 330.487 80.7888 331.416 80.7888C332.178 80.7888 332.81 80.6146 333.314 80.266C333.83 79.9046 334.191 79.427 334.398 78.8332H336.295C336.011 79.853 335.443 80.6856 334.592 81.331C333.74 81.9635 332.681 82.2797 331.416 82.2797C330.409 82.2797 329.506 82.0538 328.705 81.602C327.918 81.1503 327.298 80.5113 326.847 79.6852C326.395 78.8461 326.169 77.878 326.169 76.7808C326.169 75.6836 326.388 74.722 326.827 73.8958C327.266 73.0697 327.879 72.4372 328.667 71.9983C329.467 71.5465 330.383 71.3206 331.416 71.3206C332.423 71.3206 333.314 71.5401 334.088 71.979C334.863 72.4178 335.456 73.0245 335.869 73.799C336.295 74.5606 336.508 75.4255 336.508 76.3936ZM334.688 76.0257C334.688 75.3545 334.54 74.78 334.243 74.3024C333.946 73.8119 333.54 73.444 333.023 73.1988C332.52 72.9406 331.958 72.8115 331.339 72.8115C330.448 72.8115 329.686 73.0955 329.054 73.6635C328.434 74.2314 328.079 75.0189 327.989 76.0257H334.688ZM340.79 67.7773V82.1055H339.028V67.7773H340.79ZM344.548 82.2216C344.212 82.2216 343.928 82.1055 343.696 81.8731C343.464 81.6408 343.347 81.3568 343.347 81.0212C343.347 80.6856 343.464 80.4016 343.696 80.1692C343.928 79.9369 344.212 79.8207 344.548 79.8207C344.871 79.8207 345.142 79.9369 345.361 80.1692C345.593 80.4016 345.71 80.6856 345.71 81.0212C345.71 81.3568 345.593 81.6408 345.361 81.8731C345.142 82.1055 344.871 82.2216 344.548 82.2216Z" fill="#F0EFEF"/>
<path d="M-10.5264 186.315L-3.18887 191.595C4.19154 196.677 19.0811 207.532 33.6703 215.279C48.3024 223.322 62.8486 228.256 77.8669 217.894C92.4561 207.532 107.045 180.888 122.064 181.036C136.61 180.888 151.242 207.532 165.831 215.279C180.721 223.322 195.439 212.467 210.028 217.894C224.874 223.322 239.635 244.046 254.224 236.299C268.985 228.256 283.832 191.743 298.421 194.21C313.139 196.677 328.028 215.934 342.618 236.806C357.25 257.875 371.796 257.875 386.814 244.701C403.443 232.09 411.561 227.157 429.443 220.212C448.306 213.838 460.189 223.322 474.778 212.615C489.668 202.105 504.386 170.526 518.975 165.246C533.822 160.164 548.583 180.888 563.172 183.7C577.932 186.315 592.779 170.526 600.074 162.631L607.368 154.736V281.052H600.031C592.65 281.052 577.761 281.052 563.172 281.052C548.54 281.052 533.993 281.052 518.975 281.052C504.386 281.052 489.797 281.052 474.778 281.052C460.232 281.052 445.6 281.052 431.011 281.052C416.121 281.052 401.403 281.052 386.814 281.052C371.968 281.052 357.207 281.052 342.618 281.052C327.857 281.052 313.01 281.052 298.421 281.052C283.703 281.052 268.814 281.052 254.224 281.052C239.592 281.052 225.046 281.052 210.028 281.052C195.439 281.052 180.849 281.052 165.831 281.052C151.285 281.052 136.653 281.052 122.064 281.052C107.174 281.052 92.4561 281.052 77.8669 281.052C63.0203 281.052 48.2594 281.052 33.6703 281.052C18.9095 281.052 4.06281 281.052 -3.23178 281.052H-10.5264V186.315Z" fill="url(#paint1_linear_215_439)"/>
<g filter="url(#filter0_d_215_439)">
<path d="M-12.0322 186.051L-4.63223 191.326C2.81105 196.404 17.8274 207.25 32.5409 214.99C47.2976 223.026 61.9678 227.956 77.114 217.603C91.8274 207.25 106.541 180.627 121.687 180.775C136.357 180.627 151.114 207.25 165.827 214.99C180.844 223.026 195.687 212.18 210.4 217.603C225.374 223.026 240.26 243.732 254.974 235.992C269.86 227.956 284.833 191.474 299.547 193.939C314.39 196.404 329.406 215.645 344.12 236.499C358.877 257.55 373.547 257.55 388.693 244.387C405.463 231.787 413.651 226.858 431.685 219.919C450.709 213.55 462.693 223.026 477.406 212.328C492.423 201.827 507.266 170.274 521.979 164.999C536.952 159.921 551.839 180.627 566.553 183.438C581.439 186.051 596.412 170.274 603.769 162.386L611.126 154.498" stroke="#C4F6C0" stroke-width="3.33245" stroke-linecap="round"/>
</g>
<g filter="url(#filter1_d_215_439)">
<ellipse cx="125.117" cy="180.814" rx="6.6428" ry="6.31579" fill="#3F7042"/>
<path d="M125.117 175.748C128.156 175.748 130.51 178.074 130.511 180.813C130.511 183.553 128.156 185.88 125.117 185.88C122.078 185.88 119.724 183.553 119.724 180.813C119.725 178.074 122.079 175.748 125.117 175.748Z" stroke="#C4F6C0" stroke-width="2.49934"/>
</g>
<g filter="url(#filter2_d_215_439)">
<ellipse cx="200.402" cy="215.55" rx="6.6428" ry="6.31579" fill="#3F7042"/>
<path d="M200.402 210.484C203.441 210.484 205.796 212.811 205.796 215.55C205.796 218.289 203.441 220.616 200.402 220.616C197.364 220.616 195.01 218.289 195.01 215.55C195.01 212.811 197.364 210.484 200.402 210.484Z" stroke="#C4F6C0" stroke-width="2.49934"/>
</g>
<g filter="url(#filter3_d_215_439)">
<ellipse cx="296.723" cy="194.497" rx="6.6428" ry="6.31579" fill="#3F7042"/>
<path d="M296.723 189.432C299.762 189.432 302.116 191.758 302.116 194.497C302.116 197.236 299.762 199.563 296.723 199.563C293.684 199.563 291.33 197.236 291.33 194.497C291.331 191.758 293.684 189.432 296.723 189.432Z" stroke="#C4F6C0" stroke-width="2.49934"/>
</g>
<g filter="url(#filter4_d_215_439)">
<mask id="path-13-inside-1_215_439" fill="white">
<path d="M350.816 126.198C356.46 126.198 361.035 130.774 361.035 136.418V173.207C361.035 178.851 356.46 183.426 350.816 183.426H303.45C303.423 183.472 303.391 183.518 303.355 183.562L296.743 191.655C296.334 192.156 295.569 192.156 295.16 191.655L288.547 183.562C288.511 183.518 288.48 183.472 288.453 183.426H242.534C236.89 183.426 232.314 178.851 232.314 173.207V136.418C232.314 130.774 236.89 126.198 242.534 126.198H350.816Z"/>
</mask>
<path d="M350.816 126.198C356.46 126.198 361.035 130.774 361.035 136.418V173.207C361.035 178.851 356.46 183.426 350.816 183.426H303.45C303.423 183.472 303.391 183.518 303.355 183.562L296.743 191.655C296.334 192.156 295.569 192.156 295.16 191.655L288.547 183.562C288.511 183.518 288.48 183.472 288.453 183.426H242.534C236.89 183.426 232.314 178.851 232.314 173.207V136.418C232.314 130.774 236.89 126.198 242.534 126.198H350.816Z" fill="white"/>
<path d="M350.816 126.198L350.816 125.36H350.816V126.198ZM361.035 173.207L361.874 173.207V173.207H361.035ZM350.816 183.426V184.264H350.816L350.816 183.426ZM303.45 183.426V182.587H302.97L302.727 183.002L303.45 183.426ZM303.355 183.562L302.706 183.032L302.706 183.032L303.355 183.562ZM296.743 191.655L297.392 192.186L297.392 192.186L296.743 191.655ZM295.16 191.655L295.809 191.125L295.809 191.125L295.16 191.655ZM288.547 183.562L287.897 184.093L287.898 184.093L288.547 183.562ZM288.453 183.426L289.177 183.002L288.934 182.587H288.453V183.426ZM232.314 173.207H231.476V173.207L232.314 173.207ZM350.816 126.198L350.816 127.037C355.997 127.037 360.197 131.237 360.197 136.418H361.035H361.874C361.874 130.311 356.923 125.36 350.816 125.36L350.816 126.198ZM361.035 136.418H360.197V173.207H361.035H361.874V136.418H361.035ZM361.035 173.207L360.197 173.207C360.197 178.388 355.997 182.587 350.816 182.587L350.816 183.426L350.816 184.264C356.923 184.264 361.874 179.314 361.874 173.207L361.035 173.207ZM350.816 183.426V182.587H303.45V183.426V184.264H350.816V183.426ZM303.45 183.426L302.727 183.002C302.719 183.014 302.712 183.024 302.706 183.032L303.355 183.562L304.005 184.093C304.071 184.013 304.126 183.93 304.174 183.85L303.45 183.426ZM303.355 183.562L302.706 183.032L296.094 191.125L296.743 191.655L297.392 192.186L304.005 184.093L303.355 183.562ZM296.743 191.655L296.094 191.125C296.02 191.215 295.883 191.215 295.809 191.125L295.16 191.655L294.511 192.186C295.255 193.097 296.648 193.097 297.392 192.186L296.743 191.655ZM295.16 191.655L295.809 191.125L289.196 183.032L288.547 183.562L287.898 184.093L294.511 192.186L295.16 191.655ZM288.547 183.562L289.196 183.032C289.195 183.03 289.188 183.022 289.177 183.002L288.453 183.426L287.73 183.85C287.772 183.923 287.827 184.007 287.897 184.093L288.547 183.562ZM288.453 183.426V182.587H242.534V183.426V184.264H288.453V183.426ZM242.534 183.426V182.587C237.353 182.587 233.153 178.388 233.153 173.207L232.314 173.207L231.476 173.207C231.476 179.314 236.427 184.264 242.534 184.264V183.426ZM232.314 173.207H233.153V136.418H232.314H231.476V173.207H232.314ZM232.314 136.418H233.153C233.153 131.237 237.353 127.037 242.534 127.037V126.198V125.36C236.427 125.36 231.476 130.311 231.476 136.418H232.314ZM242.534 126.198V127.037H350.816V126.198V125.36H242.534V126.198Z" fill="#E1E8EF" mask="url(#path-13-inside-1_215_439)"/>
</g>
<path opacity="0.8" d="M251.123 147.484C250.273 147.484 249.545 147.305 248.94 146.945C248.335 146.585 247.869 146.074 247.542 145.412C247.223 144.75 247.064 143.961 247.064 143.045C247.064 142.358 247.154 141.745 247.334 141.206C247.522 140.658 247.787 140.196 248.131 139.82C248.482 139.436 248.911 139.141 249.418 138.937C249.925 138.724 250.493 138.618 251.123 138.618C251.63 138.618 252.112 138.692 252.57 138.839C253.028 138.978 253.424 139.186 253.76 139.464C253.866 139.546 253.935 139.64 253.968 139.746C254.009 139.844 254.013 139.943 253.98 140.041C253.956 140.131 253.907 140.208 253.833 140.274C253.768 140.331 253.686 140.36 253.588 140.36C253.49 140.36 253.379 140.319 253.257 140.237C252.962 140 252.639 139.824 252.288 139.71C251.936 139.595 251.556 139.538 251.147 139.538C250.502 139.538 249.954 139.677 249.504 139.955C249.055 140.225 248.715 140.621 248.486 141.144C248.257 141.668 248.143 142.301 248.143 143.045C248.143 143.789 248.257 144.427 248.486 144.958C248.715 145.481 249.055 145.882 249.504 146.16C249.954 146.43 250.502 146.565 251.147 146.565C251.548 146.565 251.928 146.507 252.288 146.393C252.648 146.27 252.979 146.09 253.281 145.853C253.404 145.772 253.514 145.735 253.612 145.743C253.71 145.743 253.792 145.772 253.858 145.829C253.923 145.886 253.968 145.96 253.993 146.05C254.025 146.14 254.025 146.234 253.993 146.332C253.968 146.43 253.907 146.516 253.809 146.589C253.465 146.883 253.061 147.108 252.595 147.264C252.137 147.411 251.646 147.484 251.123 147.484ZM257.545 147.484C256.965 147.484 256.462 147.358 256.037 147.104C255.612 146.851 255.28 146.495 255.043 146.037C254.814 145.571 254.7 145.024 254.7 144.394C254.7 143.92 254.765 143.495 254.896 143.119C255.027 142.734 255.219 142.407 255.473 142.138C255.726 141.868 256.024 141.663 256.368 141.525C256.719 141.377 257.112 141.304 257.545 141.304C258.126 141.304 258.628 141.43 259.053 141.684C259.479 141.937 259.806 142.297 260.034 142.763C260.272 143.221 260.39 143.765 260.39 144.394C260.39 144.868 260.325 145.293 260.194 145.669C260.063 146.046 259.871 146.373 259.618 146.65C259.364 146.92 259.062 147.129 258.71 147.276C258.367 147.415 257.978 147.484 257.545 147.484ZM257.545 146.687C257.913 146.687 258.236 146.597 258.514 146.417C258.792 146.238 259.004 145.976 259.152 145.633C259.307 145.289 259.385 144.876 259.385 144.394C259.385 143.65 259.217 143.082 258.882 142.69C258.555 142.297 258.109 142.101 257.545 142.101C257.169 142.101 256.842 142.191 256.564 142.371C256.294 142.542 256.082 142.8 255.926 143.143C255.779 143.478 255.706 143.895 255.706 144.394C255.706 145.13 255.873 145.698 256.208 146.099C256.544 146.491 256.989 146.687 257.545 146.687ZM262.373 147.46C262.209 147.46 262.086 147.415 262.005 147.325C261.923 147.235 261.882 147.108 261.882 146.945V141.831C261.882 141.668 261.923 141.545 262.005 141.463C262.086 141.373 262.205 141.328 262.36 141.328C262.516 141.328 262.634 141.373 262.716 141.463C262.806 141.545 262.851 141.668 262.851 141.831V142.886L262.716 142.739C262.888 142.264 263.166 141.909 263.55 141.672C263.942 141.426 264.392 141.304 264.899 141.304C265.373 141.304 265.765 141.39 266.076 141.561C266.395 141.733 266.632 141.995 266.787 142.346C266.943 142.69 267.02 143.127 267.02 143.658V146.945C267.02 147.108 266.975 147.235 266.885 147.325C266.804 147.415 266.685 147.46 266.53 147.46C266.366 147.46 266.24 147.415 266.15 147.325C266.068 147.235 266.027 147.108 266.027 146.945V143.72C266.027 143.164 265.917 142.759 265.696 142.506C265.483 142.244 265.14 142.113 264.666 142.113C264.118 142.113 263.681 142.285 263.354 142.628C263.035 142.963 262.875 143.413 262.875 143.977V146.945C262.875 147.288 262.708 147.46 262.373 147.46ZM270.863 147.484C270.495 147.484 270.123 147.439 269.747 147.349C269.379 147.26 269.036 147.104 268.717 146.883C268.635 146.826 268.578 146.761 268.545 146.687C268.513 146.606 268.5 146.528 268.509 146.454C268.525 146.373 268.558 146.303 268.607 146.246C268.664 146.189 268.729 146.156 268.803 146.148C268.885 146.131 268.975 146.148 269.073 146.197C269.392 146.393 269.698 146.532 269.992 146.614C270.295 146.687 270.593 146.724 270.888 146.724C271.354 146.724 271.705 146.638 271.942 146.467C272.179 146.295 272.298 146.062 272.298 145.768C272.298 145.539 272.22 145.359 272.065 145.228C271.91 145.089 271.664 144.983 271.329 144.909L270.213 144.664C269.698 144.558 269.314 144.374 269.06 144.112C268.815 143.85 268.693 143.511 268.693 143.094C268.693 142.726 268.787 142.412 268.975 142.15C269.171 141.88 269.445 141.672 269.796 141.525C270.148 141.377 270.557 141.304 271.023 141.304C271.382 141.304 271.722 141.353 272.04 141.451C272.367 141.541 272.662 141.688 272.923 141.892C273.005 141.95 273.058 142.019 273.083 142.101C273.115 142.174 273.12 142.252 273.095 142.334C273.079 142.407 273.042 142.473 272.985 142.53C272.927 142.579 272.858 142.608 272.776 142.616C272.694 142.624 272.609 142.6 272.519 142.542C272.273 142.379 272.024 142.26 271.771 142.187C271.517 142.105 271.268 142.064 271.023 142.064C270.565 142.064 270.217 142.154 269.98 142.334C269.743 142.514 269.625 142.751 269.625 143.045C269.625 143.274 269.698 143.462 269.845 143.609C269.992 143.756 270.221 143.863 270.532 143.928L271.648 144.161C272.179 144.276 272.576 144.459 272.837 144.713C273.107 144.958 273.242 145.293 273.242 145.719C273.242 146.258 273.026 146.687 272.592 147.006C272.159 147.325 271.583 147.484 270.863 147.484ZM275.247 147.435C275.083 147.435 274.96 147.39 274.879 147.3C274.797 147.202 274.756 147.067 274.756 146.896V141.88C274.756 141.708 274.797 141.578 274.879 141.488C274.96 141.398 275.083 141.353 275.247 141.353C275.402 141.353 275.524 141.398 275.614 141.488C275.704 141.578 275.749 141.708 275.749 141.88V146.896C275.749 147.067 275.704 147.202 275.614 147.3C275.533 147.39 275.41 147.435 275.247 147.435ZM275.247 139.979C275.042 139.979 274.883 139.926 274.768 139.82C274.654 139.705 274.597 139.554 274.597 139.366C274.597 139.17 274.654 139.023 274.768 138.925C274.883 138.818 275.042 138.765 275.247 138.765C275.459 138.765 275.619 138.818 275.725 138.925C275.839 139.023 275.896 139.17 275.896 139.366C275.896 139.554 275.839 139.705 275.725 139.82C275.619 139.926 275.459 139.979 275.247 139.979ZM279.617 147.484C279.249 147.484 278.877 147.439 278.501 147.349C278.134 147.26 277.79 147.104 277.471 146.883C277.39 146.826 277.332 146.761 277.3 146.687C277.267 146.606 277.255 146.528 277.263 146.454C277.279 146.373 277.312 146.303 277.361 146.246C277.418 146.189 277.484 146.156 277.557 146.148C277.639 146.131 277.729 146.148 277.827 146.197C278.146 146.393 278.452 146.532 278.747 146.614C279.049 146.687 279.348 146.724 279.642 146.724C280.108 146.724 280.459 146.638 280.697 146.467C280.934 146.295 281.052 146.062 281.052 145.768C281.052 145.539 280.974 145.359 280.819 145.228C280.664 145.089 280.419 144.983 280.083 144.909L278.967 144.664C278.452 144.558 278.068 144.374 277.815 144.112C277.569 143.85 277.447 143.511 277.447 143.094C277.447 142.726 277.541 142.412 277.729 142.15C277.925 141.88 278.199 141.672 278.55 141.525C278.902 141.377 279.311 141.304 279.777 141.304C280.137 141.304 280.476 141.353 280.795 141.451C281.122 141.541 281.416 141.688 281.678 141.892C281.759 141.95 281.812 142.019 281.837 142.101C281.87 142.174 281.874 142.252 281.849 142.334C281.833 142.407 281.796 142.473 281.739 142.53C281.682 142.579 281.612 142.608 281.53 142.616C281.449 142.624 281.363 142.6 281.273 142.542C281.028 142.379 280.778 142.26 280.525 142.187C280.271 142.105 280.022 142.064 279.777 142.064C279.319 142.064 278.972 142.154 278.734 142.334C278.497 142.514 278.379 142.751 278.379 143.045C278.379 143.274 278.452 143.462 278.6 143.609C278.747 143.756 278.976 143.863 279.286 143.928L280.402 144.161C280.934 144.276 281.33 144.459 281.592 144.713C281.862 144.958 281.996 145.293 281.996 145.719C281.996 146.258 281.78 146.687 281.346 147.006C280.913 147.325 280.337 147.484 279.617 147.484ZM285.842 147.484C285.376 147.484 284.983 147.403 284.664 147.239C284.354 147.067 284.121 146.822 283.965 146.503C283.81 146.176 283.732 145.78 283.732 145.314V142.187H282.911C282.772 142.187 282.666 142.154 282.592 142.089C282.518 142.015 282.482 141.917 282.482 141.794C282.482 141.672 282.518 141.578 282.592 141.512C282.666 141.447 282.772 141.414 282.911 141.414H283.732V140.004C283.732 139.84 283.777 139.718 283.867 139.636C283.957 139.546 284.08 139.501 284.235 139.501C284.391 139.501 284.509 139.546 284.591 139.636C284.681 139.718 284.726 139.84 284.726 140.004V141.414H286.271C286.41 141.414 286.516 141.447 286.59 141.512C286.663 141.578 286.7 141.672 286.7 141.794C286.7 141.917 286.663 142.015 286.59 142.089C286.516 142.154 286.41 142.187 286.271 142.187H284.726V145.216C284.726 145.682 284.824 146.037 285.02 146.283C285.216 146.52 285.535 146.638 285.977 146.638C286.132 146.638 286.263 146.622 286.369 146.589C286.483 146.556 286.577 146.54 286.651 146.54C286.725 146.532 286.786 146.556 286.835 146.614C286.884 146.671 286.909 146.769 286.909 146.908C286.909 147.006 286.888 147.096 286.847 147.178C286.815 147.26 286.753 147.317 286.663 147.349C286.565 147.382 286.434 147.411 286.271 147.435C286.116 147.468 285.972 147.484 285.842 147.484ZM290.363 147.484C289.734 147.484 289.19 147.362 288.732 147.116C288.283 146.863 287.931 146.507 287.678 146.05C287.433 145.592 287.31 145.044 287.31 144.406C287.31 143.785 287.433 143.245 287.678 142.788C287.923 142.322 288.258 141.958 288.683 141.696C289.117 141.435 289.615 141.304 290.179 141.304C290.58 141.304 290.94 141.373 291.259 141.512C291.577 141.643 291.847 141.835 292.068 142.089C292.297 142.342 292.469 142.649 292.583 143.008C292.706 143.368 292.767 143.773 292.767 144.222C292.767 144.353 292.73 144.451 292.657 144.517C292.583 144.574 292.477 144.603 292.338 144.603H288.07V143.953H292.105L291.909 144.112C291.909 143.671 291.843 143.299 291.712 142.996C291.582 142.685 291.389 142.448 291.136 142.285C290.891 142.121 290.58 142.04 290.204 142.04C289.787 142.04 289.431 142.138 289.137 142.334C288.851 142.522 288.634 142.788 288.487 143.131C288.34 143.466 288.266 143.859 288.266 144.308V144.382C288.266 145.134 288.446 145.706 288.806 146.099C289.174 146.491 289.693 146.687 290.363 146.687C290.641 146.687 290.915 146.65 291.185 146.577C291.463 146.503 291.733 146.381 291.994 146.209C292.109 146.135 292.211 146.103 292.301 146.111C292.399 146.111 292.477 146.14 292.534 146.197C292.591 146.246 292.628 146.311 292.644 146.393C292.669 146.467 292.661 146.548 292.62 146.638C292.587 146.728 292.518 146.806 292.411 146.871C292.142 147.067 291.823 147.219 291.455 147.325C291.087 147.431 290.723 147.484 290.363 147.484ZM294.695 147.46C294.532 147.46 294.409 147.415 294.327 147.325C294.245 147.235 294.205 147.108 294.205 146.945V141.831C294.205 141.668 294.245 141.545 294.327 141.463C294.409 141.373 294.527 141.328 294.683 141.328C294.838 141.328 294.957 141.373 295.038 141.463C295.128 141.545 295.173 141.668 295.173 141.831V142.886L295.038 142.739C295.21 142.264 295.488 141.909 295.872 141.672C296.265 141.426 296.714 141.304 297.221 141.304C297.695 141.304 298.088 141.39 298.399 141.561C298.717 141.733 298.954 141.995 299.11 142.346C299.265 142.69 299.343 143.127 299.343 143.658V146.945C299.343 147.108 299.298 147.235 299.208 147.325C299.126 147.415 299.008 147.46 298.852 147.46C298.689 147.46 298.562 147.415 298.472 147.325C298.39 147.235 298.349 147.108 298.349 146.945V143.72C298.349 143.164 298.239 142.759 298.018 142.506C297.806 142.244 297.462 142.113 296.988 142.113C296.441 142.113 296.003 142.285 295.676 142.628C295.357 142.963 295.198 143.413 295.198 143.977V146.945C295.198 147.288 295.03 147.46 294.695 147.46ZM303.701 147.484C303.104 147.484 302.589 147.354 302.155 147.092C301.722 146.83 301.387 146.467 301.15 146.001C300.921 145.526 300.807 144.979 300.807 144.357C300.807 143.883 300.872 143.458 301.003 143.082C301.134 142.706 301.326 142.387 301.579 142.125C301.833 141.856 302.135 141.651 302.487 141.512C302.846 141.373 303.251 141.304 303.701 141.304C303.995 141.304 304.302 141.349 304.62 141.439C304.939 141.529 305.229 141.684 305.491 141.905C305.573 141.962 305.626 142.031 305.65 142.113C305.675 142.195 305.675 142.277 305.65 142.358C305.626 142.432 305.585 142.497 305.528 142.555C305.471 142.604 305.397 142.632 305.307 142.64C305.225 142.649 305.139 142.62 305.05 142.555C304.837 142.391 304.62 142.277 304.4 142.211C304.179 142.146 303.966 142.113 303.762 142.113C303.443 142.113 303.165 142.166 302.928 142.273C302.691 142.371 302.491 142.514 302.327 142.702C302.164 142.89 302.037 143.123 301.947 143.401C301.865 143.679 301.824 144.002 301.824 144.37C301.824 145.081 301.992 145.645 302.327 146.062C302.662 146.471 303.141 146.675 303.762 146.675C303.966 146.675 304.175 146.642 304.387 146.577C304.608 146.512 304.829 146.397 305.05 146.234C305.139 146.168 305.225 146.14 305.307 146.148C305.389 146.156 305.458 146.189 305.516 146.246C305.573 146.295 305.61 146.36 305.626 146.442C305.65 146.524 305.65 146.606 305.626 146.687C305.601 146.761 305.548 146.826 305.467 146.883C305.205 147.096 304.919 147.251 304.608 147.349C304.297 147.439 303.995 147.484 303.701 147.484ZM308.223 149.667C308.101 149.667 308.002 149.635 307.929 149.569C307.855 149.504 307.81 149.414 307.794 149.299C307.786 149.193 307.806 149.083 307.855 148.968L308.701 147.067V147.497L306.347 142.027C306.298 141.905 306.282 141.79 306.298 141.684C306.314 141.578 306.363 141.492 306.445 141.426C306.527 141.361 306.641 141.328 306.788 141.328C306.919 141.328 307.021 141.357 307.095 141.414C307.169 141.471 307.234 141.574 307.291 141.721L309.302 146.65H308.971L311.007 141.721C311.072 141.574 311.142 141.471 311.215 141.414C311.289 141.357 311.395 141.328 311.534 141.328C311.665 141.328 311.763 141.361 311.829 141.426C311.902 141.492 311.943 141.578 311.951 141.684C311.968 141.782 311.951 141.892 311.902 142.015L308.763 149.275C308.697 149.422 308.624 149.524 308.542 149.581C308.468 149.639 308.362 149.667 308.223 149.667ZM319.29 147.484C318.906 147.484 318.53 147.452 318.162 147.386C317.794 147.321 317.451 147.227 317.132 147.104C316.822 146.982 316.539 146.826 316.286 146.638C316.188 146.565 316.118 146.483 316.078 146.393C316.045 146.295 316.037 146.201 316.053 146.111C316.078 146.013 316.118 145.931 316.176 145.866C316.241 145.8 316.319 145.763 316.409 145.755C316.499 145.747 316.597 145.776 316.703 145.841C317.071 146.103 317.463 146.295 317.88 146.417C318.297 146.532 318.767 146.589 319.29 146.589C320.026 146.589 320.57 146.454 320.921 146.185C321.281 145.907 321.461 145.543 321.461 145.093C321.461 144.725 321.33 144.439 321.069 144.235C320.815 144.022 320.386 143.855 319.781 143.732L318.506 143.474C317.737 143.311 317.161 143.045 316.777 142.677C316.4 142.301 316.212 141.802 316.212 141.181C316.212 140.797 316.29 140.449 316.445 140.139C316.601 139.82 316.817 139.55 317.095 139.329C317.373 139.101 317.704 138.925 318.089 138.802C318.473 138.679 318.898 138.618 319.364 138.618C319.879 138.618 320.357 138.692 320.799 138.839C321.249 138.978 321.653 139.19 322.013 139.477C322.103 139.55 322.164 139.636 322.197 139.734C322.23 139.824 322.234 139.914 322.209 140.004C322.185 140.086 322.14 140.155 322.074 140.212C322.017 140.27 321.939 140.302 321.841 140.31C321.751 140.319 321.649 140.286 321.535 140.212C321.208 139.967 320.868 139.791 320.517 139.685C320.165 139.571 319.777 139.513 319.352 139.513C318.919 139.513 318.542 139.579 318.224 139.71C317.913 139.84 317.668 140.032 317.488 140.286C317.316 140.531 317.23 140.817 317.23 141.144C317.23 141.537 317.349 141.847 317.586 142.076C317.831 142.305 318.228 142.473 318.775 142.579L320.051 142.849C320.877 143.021 321.486 143.282 321.878 143.634C322.279 143.977 322.479 144.447 322.479 145.044C322.479 145.404 322.405 145.735 322.258 146.037C322.111 146.34 321.898 146.601 321.62 146.822C321.343 147.035 321.007 147.198 320.615 147.313C320.222 147.427 319.781 147.484 319.29 147.484ZM326.431 147.484C325.834 147.484 325.319 147.354 324.885 147.092C324.452 146.83 324.117 146.467 323.88 146.001C323.651 145.526 323.536 144.979 323.536 144.357C323.536 143.883 323.602 143.458 323.733 143.082C323.863 142.706 324.056 142.387 324.309 142.125C324.562 141.856 324.865 141.651 325.216 141.512C325.576 141.373 325.981 141.304 326.431 141.304C326.725 141.304 327.031 141.349 327.35 141.439C327.669 141.529 327.959 141.684 328.221 141.905C328.303 141.962 328.356 142.031 328.38 142.113C328.405 142.195 328.405 142.277 328.38 142.358C328.356 142.432 328.315 142.497 328.258 142.555C328.2 142.604 328.127 142.632 328.037 142.64C327.955 142.649 327.869 142.62 327.779 142.555C327.567 142.391 327.35 142.277 327.13 142.211C326.909 142.146 326.696 142.113 326.492 142.113C326.173 142.113 325.895 142.166 325.658 142.273C325.421 142.371 325.221 142.514 325.057 142.702C324.894 142.89 324.767 143.123 324.677 143.401C324.595 143.679 324.554 144.002 324.554 144.37C324.554 145.081 324.722 145.645 325.057 146.062C325.392 146.471 325.87 146.675 326.492 146.675C326.696 146.675 326.905 146.642 327.117 146.577C327.338 146.512 327.559 146.397 327.779 146.234C327.869 146.168 327.955 146.14 328.037 146.148C328.119 146.156 328.188 146.189 328.245 146.246C328.303 146.295 328.339 146.36 328.356 146.442C328.38 146.524 328.38 146.606 328.356 146.687C328.331 146.761 328.278 146.826 328.196 146.883C327.935 147.096 327.649 147.251 327.338 147.349C327.027 147.439 326.725 147.484 326.431 147.484ZM331.938 147.484C331.358 147.484 330.855 147.358 330.43 147.104C330.005 146.851 329.674 146.495 329.437 146.037C329.208 145.571 329.093 145.024 329.093 144.394C329.093 143.92 329.159 143.495 329.289 143.119C329.42 142.734 329.612 142.407 329.866 142.138C330.119 141.868 330.418 141.663 330.761 141.525C331.112 141.377 331.505 141.304 331.938 141.304C332.519 141.304 333.021 141.43 333.447 141.684C333.872 141.937 334.199 142.297 334.428 142.763C334.665 143.221 334.783 143.765 334.783 144.394C334.783 144.868 334.718 145.293 334.587 145.669C334.456 146.046 334.264 146.373 334.011 146.65C333.757 146.92 333.455 147.129 333.103 147.276C332.76 147.415 332.371 147.484 331.938 147.484ZM331.938 146.687C332.306 146.687 332.629 146.597 332.907 146.417C333.185 146.238 333.397 145.976 333.545 145.633C333.7 145.289 333.778 144.876 333.778 144.394C333.778 143.65 333.61 143.082 333.275 142.69C332.948 142.297 332.502 142.101 331.938 142.101C331.562 142.101 331.235 142.191 330.957 142.371C330.687 142.542 330.475 142.8 330.319 143.143C330.172 143.478 330.099 143.895 330.099 144.394C330.099 145.13 330.266 145.698 330.602 146.099C330.937 146.491 331.382 146.687 331.938 146.687ZM336.778 147.46C336.614 147.46 336.488 147.415 336.398 147.325C336.316 147.235 336.275 147.108 336.275 146.945V141.831C336.275 141.668 336.316 141.545 336.398 141.463C336.48 141.373 336.598 141.328 336.753 141.328C336.909 141.328 337.027 141.373 337.109 141.463C337.199 141.545 337.244 141.668 337.244 141.831V142.824H337.121C337.252 142.342 337.502 141.97 337.869 141.708C338.237 141.447 338.691 141.308 339.231 141.292C339.353 141.283 339.451 141.312 339.525 141.377C339.599 141.435 339.639 141.537 339.648 141.684C339.656 141.823 339.623 141.933 339.549 142.015C339.476 142.097 339.361 142.146 339.206 142.162L339.01 142.187C338.454 142.236 338.025 142.416 337.722 142.726C337.428 143.029 337.281 143.446 337.281 143.977V146.945C337.281 147.108 337.236 147.235 337.146 147.325C337.064 147.415 336.942 147.46 336.778 147.46ZM343.284 147.484C342.655 147.484 342.111 147.362 341.653 147.116C341.203 146.863 340.852 146.507 340.598 146.05C340.353 145.592 340.231 145.044 340.231 144.406C340.231 143.785 340.353 143.245 340.598 142.788C340.844 142.322 341.179 141.958 341.604 141.696C342.037 141.435 342.536 141.304 343.1 141.304C343.501 141.304 343.86 141.373 344.179 141.512C344.498 141.643 344.768 141.835 344.989 142.089C345.218 142.342 345.389 142.649 345.504 143.008C345.626 143.368 345.688 143.773 345.688 144.222C345.688 144.353 345.651 144.451 345.577 144.517C345.504 144.574 345.397 144.603 345.258 144.603H340.991V143.953H345.025L344.829 144.112C344.829 143.671 344.764 143.299 344.633 142.996C344.502 142.685 344.31 142.448 344.057 142.285C343.811 142.121 343.501 142.04 343.125 142.04C342.708 142.04 342.352 142.138 342.058 142.334C341.772 142.522 341.555 142.788 341.408 143.131C341.261 143.466 341.187 143.859 341.187 144.308V144.382C341.187 145.134 341.367 145.706 341.727 146.099C342.095 146.491 342.614 146.687 343.284 146.687C343.562 146.687 343.836 146.65 344.106 146.577C344.384 146.503 344.653 146.381 344.915 146.209C345.03 146.135 345.132 146.103 345.222 146.111C345.32 146.111 345.397 146.14 345.455 146.197C345.512 146.246 345.549 146.311 345.565 146.393C345.59 146.467 345.581 146.548 345.54 146.638C345.508 146.728 345.438 146.806 345.332 146.871C345.062 147.067 344.743 147.219 344.375 147.325C344.008 147.431 343.644 147.484 343.284 147.484Z" fill="black"/>
<path d="M261.547 168.986C261.078 168.986 260.593 168.915 260.091 168.773C259.59 168.621 259.121 168.397 258.685 168.103C258.511 167.994 258.396 167.852 258.342 167.678C258.287 167.503 258.276 167.334 258.309 167.171C258.353 166.996 258.429 166.849 258.538 166.729C258.658 166.599 258.805 166.522 258.98 166.5C259.154 166.468 259.345 166.511 259.552 166.631C259.922 166.849 260.271 167.002 260.598 167.089C260.925 167.176 261.252 167.22 261.579 167.22C262.212 167.22 262.746 167.073 263.182 166.778C263.618 166.484 263.945 166.043 264.163 165.454C264.392 164.854 264.506 164.119 264.506 163.247V162.02H264.702C264.626 162.565 264.446 163.04 264.163 163.443C263.879 163.846 263.52 164.157 263.084 164.375C262.648 164.582 262.162 164.686 261.628 164.686C260.974 164.686 260.386 164.527 259.862 164.211C259.35 163.895 258.947 163.459 258.653 162.903C258.358 162.336 258.211 161.699 258.211 160.99C258.211 160.238 258.369 159.573 258.685 158.995C259.012 158.418 259.465 157.965 260.042 157.638C260.62 157.3 261.28 157.131 262.021 157.131C262.98 157.131 263.792 157.355 264.457 157.802C265.122 158.249 265.629 158.903 265.978 159.764C266.326 160.614 266.501 161.644 266.501 162.854C266.501 163.835 266.386 164.707 266.158 165.47C265.94 166.222 265.618 166.86 265.193 167.383C264.768 167.907 264.244 168.304 263.623 168.577C263.013 168.85 262.321 168.986 261.547 168.986ZM262.152 163.018C262.544 163.018 262.887 162.931 263.182 162.756C263.487 162.571 263.721 162.32 263.885 162.004C264.048 161.677 264.13 161.306 264.13 160.892C264.13 160.467 264.048 160.096 263.885 159.78C263.721 159.464 263.487 159.219 263.182 159.044C262.887 158.87 262.544 158.783 262.152 158.783C261.759 158.783 261.416 158.87 261.121 159.044C260.827 159.219 260.593 159.464 260.418 159.78C260.255 160.096 260.173 160.467 260.173 160.892C260.173 161.306 260.255 161.677 260.418 162.004C260.593 162.32 260.827 162.571 261.121 162.756C261.416 162.931 261.759 163.018 262.152 163.018ZM274.098 168.953C273.771 168.953 273.514 168.866 273.329 168.691C273.144 168.506 273.051 168.245 273.051 167.907V166.631H269.013C268.675 166.631 268.402 166.56 268.195 166.419C267.999 166.277 267.901 166.054 267.901 165.748C267.901 165.574 267.944 165.383 268.031 165.176C268.13 164.969 268.299 164.696 268.538 164.358L273.019 157.867C273.171 157.638 273.34 157.464 273.525 157.344C273.711 157.224 273.923 157.164 274.163 157.164C274.446 157.164 274.681 157.251 274.866 157.426C275.051 157.589 275.144 157.851 275.144 158.211V164.898H275.945C276.261 164.898 276.496 164.974 276.648 165.127C276.812 165.269 276.894 165.481 276.894 165.765C276.894 166.048 276.812 166.266 276.648 166.419C276.496 166.56 276.261 166.631 275.945 166.631H275.144V167.907C275.144 168.245 275.051 168.506 274.866 168.691C274.681 168.866 274.425 168.953 274.098 168.953ZM273.051 164.898V159.797H273.525L269.667 165.454V164.898H273.051ZM282.528 168.691C282.419 168.888 282.283 169.013 282.12 169.068C281.967 169.133 281.809 169.144 281.645 169.1C281.493 169.068 281.362 168.991 281.253 168.871C281.144 168.762 281.079 168.626 281.057 168.463C281.035 168.288 281.079 168.103 281.188 167.907L287.221 157.442C287.33 157.246 287.461 157.115 287.613 157.05C287.777 156.984 287.935 156.973 288.088 157.017C288.24 157.05 288.371 157.126 288.48 157.246C288.589 157.366 288.654 157.513 288.676 157.687C288.709 157.851 288.671 158.025 288.562 158.211L282.528 168.691ZM280.779 164.179C279.863 164.179 279.149 163.863 278.637 163.23C278.124 162.598 277.868 161.737 277.868 160.647C277.868 159.917 277.983 159.29 278.212 158.767C278.441 158.243 278.773 157.84 279.209 157.557C279.645 157.273 280.168 157.131 280.779 157.131C281.694 157.131 282.408 157.448 282.921 158.08C283.433 158.701 283.689 159.557 283.689 160.647C283.689 161.377 283.575 162.009 283.346 162.544C283.117 163.067 282.784 163.47 282.348 163.754C281.912 164.037 281.389 164.179 280.779 164.179ZM280.779 162.805C281.04 162.805 281.264 162.729 281.449 162.576C281.634 162.413 281.776 162.173 281.874 161.857C281.972 161.541 282.021 161.137 282.021 160.647C282.021 159.917 281.912 159.377 281.694 159.028C281.476 158.679 281.171 158.505 280.779 158.505C280.517 158.505 280.294 158.581 280.108 158.734C279.923 158.886 279.781 159.121 279.683 159.437C279.585 159.753 279.536 160.156 279.536 160.647C279.536 161.388 279.645 161.933 279.863 162.282C280.081 162.631 280.386 162.805 280.779 162.805ZM288.987 168.986C288.071 168.986 287.357 168.67 286.845 168.037C286.333 167.405 286.076 166.544 286.076 165.454C286.076 164.724 286.191 164.097 286.42 163.574C286.649 163.05 286.981 162.647 287.417 162.364C287.853 162.08 288.376 161.939 288.987 161.939C289.903 161.939 290.617 162.255 291.129 162.887C291.641 163.508 291.897 164.364 291.897 165.454C291.897 166.184 291.783 166.817 291.554 167.351C291.325 167.874 290.993 168.277 290.557 168.561C290.121 168.844 289.597 168.986 288.987 168.986ZM288.987 167.612C289.248 167.612 289.472 167.536 289.657 167.383C289.843 167.231 289.984 166.996 290.082 166.68C290.18 166.353 290.23 165.945 290.23 165.454C290.23 164.724 290.121 164.184 289.903 163.835C289.685 163.486 289.379 163.312 288.987 163.312C288.725 163.312 288.502 163.388 288.316 163.541C288.131 163.694 287.989 163.928 287.891 164.244C287.793 164.56 287.744 164.963 287.744 165.454C287.744 166.195 287.853 166.74 288.071 167.089C288.289 167.438 288.594 167.612 288.987 167.612Z" fill="black"/>
<rect x="299.856" y="155.006" width="34.9682" height="17.6331" rx="8.81653" fill="#E3FCEE"/>
<mask id="mask0_215_439" style="mask-type:alpha" maskUnits="userSpaceOnUse" x="305" y="156" width="15" height="16">
<rect x="305.043" y="156.562" width="14.5213" height="14.5213" fill="#D9D9D9"/>
</mask>
<g mask="url(#mask0_215_439)">
<path d="M311.699 168.664V161.297L308.311 164.686L307.463 163.823L312.304 158.983L317.144 163.823L316.297 164.686L312.909 161.297V168.664H311.699Z" fill="#069745"/>
</g>
<path d="M325.372 168.434C324.717 168.434 324.153 168.339 323.68 168.148C323.215 167.957 322.858 167.679 322.609 167.314C322.369 166.949 322.248 166.509 322.248 165.995C322.248 165.588 322.331 165.227 322.497 164.912C322.663 164.588 322.896 164.327 323.194 164.128C323.493 163.929 323.837 163.804 324.227 163.754V163.941C323.688 163.825 323.257 163.572 322.933 163.182C322.618 162.783 322.46 162.315 322.46 161.775C322.46 161.277 322.576 160.858 322.808 160.518C323.049 160.17 323.389 159.904 323.829 159.721C324.269 159.531 324.783 159.435 325.372 159.435C325.97 159.435 326.484 159.531 326.916 159.721C327.356 159.904 327.696 160.17 327.937 160.518C328.177 160.858 328.297 161.277 328.297 161.775C328.297 162.132 328.223 162.464 328.073 162.771C327.932 163.07 327.729 163.319 327.464 163.518C327.198 163.717 326.887 163.854 326.53 163.929V163.754C327.119 163.837 327.592 164.082 327.949 164.489C328.314 164.887 328.497 165.389 328.497 165.995C328.497 166.509 328.372 166.949 328.123 167.314C327.883 167.679 327.526 167.957 327.053 168.148C326.588 168.339 326.028 168.434 325.372 168.434ZM325.372 167.588C326.078 167.588 326.609 167.451 326.966 167.177C327.331 166.903 327.513 166.488 327.513 165.932C327.513 165.385 327.331 164.978 326.966 164.713C326.609 164.439 326.078 164.302 325.372 164.302C324.675 164.302 324.144 164.439 323.779 164.713C323.414 164.978 323.232 165.385 323.232 165.932C323.232 166.488 323.414 166.903 323.779 167.177C324.144 167.451 324.675 167.588 325.372 167.588ZM325.372 163.456C325.779 163.456 326.123 163.393 326.406 163.269C326.696 163.136 326.92 162.949 327.078 162.709C327.235 162.468 327.314 162.186 327.314 161.862C327.314 161.364 327.14 160.979 326.791 160.705C326.451 160.423 325.978 160.282 325.372 160.282C324.767 160.282 324.294 160.423 323.954 160.705C323.613 160.979 323.443 161.364 323.443 161.862C323.443 162.36 323.613 162.75 323.954 163.032C324.294 163.314 324.767 163.456 325.372 163.456Z" fill="#069745"/>
</g>
<rect x="0.526316" y="0.526316" width="406.316" height="280" rx="16.3158" stroke="#DFDFDF" stroke-width="1.05263"/>
<defs>
<filter id="filter0_d_215_439" x="-17.0311" y="152.832" width="633.155" height="108.945" filterUnits="userSpaceOnUse" color-interpolation-filters="sRGB">
<feFlood flood-opacity="0" result="BackgroundImageFix"/>
<feColorMatrix in="SourceAlpha" type="matrix" values="0 0 0 0 0 0 0 0 0 0 0 0 0 0 0 0 0 0 127 0" result="hardAlpha"/>
<feOffset dy="3.33245"/>
<feGaussianBlur stdDeviation="1.66622"/>
<feColorMatrix type="matrix" values="0 0 0 0 1 0 0 0 0 1 0 0 0 0 1 0 0 0 0.17 0"/>
<feBlend mode="normal" in2="BackgroundImageFix" result="effect1_dropShadow_215_439"/>
<feBlend mode="normal" in="SourceGraphic" in2="effect1_dropShadow_215_439" result="shape"/>
</filter>
<filter id="filter1_d_215_439" x="115.142" y="174.498" width="19.9505" height="19.2962" filterUnits="userSpaceOnUse" color-interpolation-filters="sRGB">
<feFlood flood-opacity="0" result="BackgroundImageFix"/>
<feColorMatrix in="SourceAlpha" type="matrix" values="0 0 0 0 0 0 0 0 0 0 0 0 0 0 0 0 0 0 127 0" result="hardAlpha"/>
<feOffset dy="3.33245"/>
<feGaussianBlur stdDeviation="1.66622"/>
<feColorMatrix type="matrix" values="0 0 0 0 0.376471 0 0 0 0 0.356863 0 0 0 0 1 0 0 0 0.17 0"/>
<feBlend mode="normal" in2="BackgroundImageFix" result="effect1_dropShadow_215_439"/>
<feBlend mode="normal" in="SourceGraphic" in2="effect1_dropShadow_215_439" result="shape"/>
</filter>
<filter id="filter2_d_215_439" x="190.427" y="209.234" width="19.9505" height="19.2962" filterUnits="userSpaceOnUse" color-interpolation-filters="sRGB">
<feFlood flood-opacity="0" result="BackgroundImageFix"/>
<feColorMatrix in="SourceAlpha" type="matrix" values="0 0 0 0 0 0 0 0 0 0 0 0 0 0 0 0 0 0 127 0" result="hardAlpha"/>
<feOffset dy="3.33245"/>
<feGaussianBlur stdDeviation="1.66622"/>
<feColorMatrix type="matrix" values="0 0 0 0 0.376471 0 0 0 0 0.356863 0 0 0 0 1 0 0 0 0.17 0"/>
<feBlend mode="normal" in2="BackgroundImageFix" result="effect1_dropShadow_215_439"/>
<feBlend mode="normal" in="SourceGraphic" in2="effect1_dropShadow_215_439" result="shape"/>
</filter>
<filter id="filter3_d_215_439" x="286.748" y="188.182" width="19.9505" height="19.2962" filterUnits="userSpaceOnUse" color-interpolation-filters="sRGB">
<feFlood flood-opacity="0" result="BackgroundImageFix"/>
<feColorMatrix in="SourceAlpha" type="matrix" values="0 0 0 0 0 0 0 0 0 0 0 0 0 0 0 0 0 0 127 0" result="hardAlpha"/>
<feOffset dy="3.33245"/>
<feGaussianBlur stdDeviation="1.66622"/>
<feColorMatrix type="matrix" values="0 0 0 0 0.376471 0 0 0 0 0.356863 0 0 0 0 1 0 0 0 0.17 0"/>
<feBlend mode="normal" in2="BackgroundImageFix" result="effect1_dropShadow_215_439"/>
<feBlend mode="normal" in="SourceGraphic" in2="effect1_dropShadow_215_439" result="shape"/>
</filter>
<filter id="filter4_d_215_439" x="225.161" y="123.132" width="143.028" height="80.1395" filterUnits="userSpaceOnUse" color-interpolation-filters="sRGB">
<feFlood flood-opacity="0" result="BackgroundImageFix"/>
<feColorMatrix in="SourceAlpha" type="matrix" values="0 0 0 0 0 0 0 0 0 0 0 0 0 0 0 0 0 0 127 0" result="hardAlpha"/>
<feOffset dy="4.08771"/>
<feGaussianBlur stdDeviation="3.57675"/>
<feColorMatrix type="matrix" values="0 0 0 0 0.0117647 0 0 0 0 0.00784314 0 0 0 0 0.160784 0 0 0 0.07 0"/>
<feBlend mode="normal" in2="BackgroundImageFix" result="effect1_dropShadow_215_439"/>
<feBlend mode="normal" in="SourceGraphic" in2="effect1_dropShadow_215_439" result="shape"/>
</filter>
<linearGradient id="paint0_linear_215_439" x1="10.5263" y1="-3.54403e-05" x2="753.589" y2="386.043" gradientUnits="userSpaceOnUse">
<stop stop-color="#305932"/>
<stop offset="1" stop-color="#5EA062"/>
</linearGradient>
<linearGradient id="paint1_linear_215_439" x1="298.421" y1="281.052" x2="298.421" y2="154.736" gradientUnits="userSpaceOnUse">
<stop stop-color="#39663C"/>
<stop offset="1" stop-color="#89E18C"/>
</linearGradient>
<clipPath id="clip0_215_439">
<rect width="407.368" height="281.053" rx="16.8421" fill="white"/>
</clipPath>
</defs>
</svg>
