<svg width="408" height="282" viewBox="0 0 408 282" fill="none" xmlns="http://www.w3.org/2000/svg">
<g clip-path="url(#clip0_215_423)">
<rect width="407.368" height="281.053" rx="16.8421" fill="white"/>
<path d="M217.239 197.86V192.003L234.651 167.083H243.33V191.364H248.016V197.86H243.33V205.421H235.876V197.86H217.239ZM236.355 175.07L225.439 191.364H236.355V175.07ZM277.468 172.248L263.305 205.421H255.744L270.014 173.1H251.803V166.711H277.468V172.248ZM281.081 176.135C281.081 173.438 281.862 171.325 283.424 169.799C285.021 168.273 287.062 167.509 289.547 167.509C292.032 167.509 294.055 168.273 295.617 169.799C297.215 171.325 298.013 173.438 298.013 176.135C298.013 178.869 297.215 180.999 295.617 182.525C294.055 184.051 292.032 184.815 289.547 184.815C287.062 184.815 285.021 184.051 283.424 182.525C281.862 180.999 281.081 178.869 281.081 176.135ZM315.265 168.148L294.339 205.421H287.098L307.971 168.148H315.265ZM289.494 171.982C287.542 171.982 286.565 173.367 286.565 176.135C286.565 178.94 287.542 180.342 289.494 180.342C290.452 180.342 291.198 180.005 291.73 179.33C292.263 178.62 292.529 177.555 292.529 176.135C292.529 173.367 291.517 171.982 289.494 171.982ZM304.456 197.381C304.456 194.647 305.237 192.535 306.799 191.044C308.396 189.518 310.438 188.755 312.922 188.755C315.407 188.755 317.413 189.518 318.939 191.044C320.501 192.535 321.282 194.647 321.282 197.381C321.282 200.114 320.501 202.244 318.939 203.77C317.413 205.297 315.407 206.06 312.922 206.06C310.402 206.06 308.361 205.297 306.799 203.77C305.237 202.244 304.456 200.114 304.456 197.381ZM312.869 193.227C310.846 193.227 309.834 194.612 309.834 197.381C309.834 200.185 310.846 201.587 312.869 201.587C314.857 201.587 315.851 200.185 315.851 197.381C315.851 194.612 314.857 193.227 312.869 193.227Z" fill="black"/>
<path d="M215.569 228.498C215.569 227.413 215.789 226.465 216.228 225.652C216.667 224.825 217.267 224.186 218.028 223.735C218.803 223.283 219.661 223.057 220.604 223.057C221.533 223.057 222.34 223.257 223.024 223.657C223.708 224.057 224.218 224.561 224.554 225.167V223.231H226.335V233.842H224.554V231.867C224.205 232.486 223.682 233.003 222.985 233.416C222.301 233.816 221.501 234.016 220.584 234.016C219.642 234.016 218.79 233.784 218.028 233.319C217.267 232.854 216.667 232.202 216.228 231.363C215.789 230.524 215.569 229.569 215.569 228.498ZM224.554 228.517C224.554 227.717 224.392 227.02 224.069 226.426C223.747 225.832 223.308 225.38 222.753 225.071C222.211 224.748 221.61 224.587 220.952 224.587C220.294 224.587 219.694 224.741 219.151 225.051C218.609 225.361 218.177 225.813 217.854 226.407C217.531 227 217.37 227.697 217.37 228.498C217.37 229.311 217.531 230.021 217.854 230.628C218.177 231.221 218.609 231.68 219.151 232.002C219.694 232.312 220.294 232.467 220.952 232.467C221.61 232.467 222.211 232.312 222.753 232.002C223.308 231.68 223.747 231.221 224.069 230.628C224.392 230.021 224.554 229.317 224.554 228.517ZM233.456 232.215L236.748 223.231H238.626L234.463 233.842H232.41L228.247 223.231H230.145L233.456 232.215ZM244.929 223.057C245.846 223.057 246.646 223.257 247.33 223.657C248.027 224.057 248.543 224.561 248.879 225.167V223.231H250.66V234.074C250.66 235.042 250.454 235.901 250.041 236.649C249.628 237.411 249.034 238.005 248.259 238.431C247.498 238.857 246.607 239.07 245.587 239.07C244.193 239.07 243.032 238.74 242.102 238.082C241.173 237.424 240.624 236.527 240.456 235.391H242.199C242.393 236.036 242.793 236.553 243.399 236.94C244.006 237.34 244.735 237.54 245.587 237.54C246.555 237.54 247.343 237.237 247.95 236.63C248.569 236.023 248.879 235.171 248.879 234.074V231.847C248.53 232.467 248.014 232.983 247.33 233.396C246.646 233.81 245.846 234.016 244.929 234.016C243.987 234.016 243.128 233.784 242.354 233.319C241.592 232.854 240.992 232.202 240.553 231.363C240.114 230.524 239.895 229.569 239.895 228.498C239.895 227.413 240.114 226.465 240.553 225.652C240.992 224.825 241.592 224.186 242.354 223.735C243.128 223.283 243.987 223.057 244.929 223.057ZM248.879 228.517C248.879 227.717 248.718 227.02 248.395 226.426C248.072 225.832 247.633 225.38 247.078 225.071C246.536 224.748 245.936 224.587 245.278 224.587C244.619 224.587 244.019 224.741 243.477 225.051C242.935 225.361 242.502 225.813 242.18 226.407C241.857 227 241.696 227.697 241.696 228.498C241.696 229.311 241.857 230.021 242.18 230.628C242.502 231.221 242.935 231.68 243.477 232.002C244.019 232.312 244.619 232.467 245.278 232.467C245.936 232.467 246.536 232.312 247.078 232.002C247.633 231.68 248.072 231.221 248.395 230.628C248.718 230.021 248.879 229.317 248.879 228.517ZM254.393 233.958C254.057 233.958 253.773 233.842 253.541 233.609C253.309 233.377 253.193 233.093 253.193 232.758C253.193 232.422 253.309 232.138 253.541 231.906C253.773 231.673 254.057 231.557 254.393 231.557C254.716 231.557 254.987 231.673 255.206 231.906C255.439 232.138 255.555 232.422 255.555 232.758C255.555 233.093 255.439 233.377 255.206 233.609C254.987 233.842 254.716 233.958 254.393 233.958ZM267.822 223.057C268.738 223.057 269.539 223.257 270.223 223.657C270.92 224.057 271.436 224.561 271.772 225.167V223.231H273.553V234.074C273.553 235.042 273.347 235.901 272.934 236.649C272.521 237.411 271.927 238.005 271.152 238.431C270.391 238.857 269.5 239.07 268.48 239.07C267.086 239.07 265.924 238.74 264.995 238.082C264.066 237.424 263.517 236.527 263.349 235.391H265.092C265.286 236.036 265.686 236.553 266.292 236.94C266.899 237.34 267.628 237.54 268.48 237.54C269.448 237.54 270.236 237.237 270.843 236.63C271.462 236.023 271.772 235.171 271.772 234.074V231.847C271.423 232.467 270.907 232.983 270.223 233.396C269.539 233.81 268.738 234.016 267.822 234.016C266.88 234.016 266.021 233.784 265.247 233.319C264.485 232.854 263.885 232.202 263.446 231.363C263.007 230.524 262.788 229.569 262.788 228.498C262.788 227.413 263.007 226.465 263.446 225.652C263.885 224.825 264.485 224.186 265.247 223.735C266.021 223.283 266.88 223.057 267.822 223.057ZM271.772 228.517C271.772 227.717 271.611 227.02 271.288 226.426C270.965 225.832 270.526 225.38 269.971 225.071C269.429 224.748 268.829 224.587 268.171 224.587C267.512 224.587 266.912 224.741 266.37 225.051C265.828 225.361 265.395 225.813 265.073 226.407C264.75 227 264.588 227.697 264.588 228.498C264.588 229.311 264.75 230.021 265.073 230.628C265.395 231.221 265.828 231.68 266.37 232.002C266.912 232.312 267.512 232.467 268.171 232.467C268.829 232.467 269.429 232.312 269.971 232.002C270.526 231.68 270.965 231.221 271.288 230.628C271.611 230.021 271.772 229.317 271.772 228.517ZM278.486 224.954C278.796 224.348 279.235 223.877 279.803 223.541C280.384 223.205 281.087 223.038 281.914 223.038V224.858H281.449C279.474 224.858 278.486 225.929 278.486 228.072V233.842H276.724V223.231H278.486V224.954ZM288.769 234.016C287.775 234.016 286.871 233.79 286.058 233.338C285.258 232.887 284.625 232.248 284.16 231.422C283.709 230.582 283.483 229.614 283.483 228.517C283.483 227.433 283.715 226.478 284.18 225.652C284.657 224.812 285.303 224.174 286.116 223.735C286.929 223.283 287.839 223.057 288.846 223.057C289.853 223.057 290.763 223.283 291.576 223.735C292.389 224.174 293.028 224.806 293.493 225.632C293.971 226.458 294.21 227.42 294.21 228.517C294.21 229.614 293.964 230.582 293.474 231.422C292.996 232.248 292.344 232.887 291.518 233.338C290.692 233.79 289.776 234.016 288.769 234.016ZM288.769 232.467C289.401 232.467 289.995 232.319 290.55 232.022C291.105 231.725 291.55 231.28 291.886 230.686C292.235 230.092 292.409 229.369 292.409 228.517C292.409 227.665 292.241 226.942 291.905 226.349C291.57 225.755 291.131 225.316 290.589 225.032C290.047 224.735 289.459 224.587 288.827 224.587C288.181 224.587 287.588 224.735 287.045 225.032C286.516 225.316 286.09 225.755 285.768 226.349C285.445 226.942 285.284 227.665 285.284 228.517C285.284 229.382 285.438 230.111 285.748 230.705C286.071 231.299 286.497 231.744 287.026 232.041C287.555 232.325 288.136 232.467 288.769 232.467ZM310.854 223.231L307.543 233.842H305.723L303.168 225.419L300.612 233.842H298.792L295.461 223.231H297.262L299.702 232.138L302.335 223.231H304.136L306.711 232.157L309.112 223.231H310.854ZM314.946 224.683V230.937C314.946 231.454 315.056 231.822 315.275 232.041C315.494 232.248 315.875 232.351 316.417 232.351H317.715V233.842H316.127C315.146 233.842 314.41 233.616 313.92 233.164C313.429 232.712 313.184 231.97 313.184 230.937V224.683H311.809V223.231H313.184V220.559H314.946V223.231H317.715V224.683H314.946ZM325.31 223.038C326.11 223.038 326.833 223.212 327.478 223.56C328.124 223.896 328.627 224.406 328.989 225.09C329.363 225.774 329.55 226.607 329.55 227.588V233.842H327.807V227.839C327.807 226.781 327.543 225.974 327.014 225.419C326.484 224.851 325.761 224.567 324.845 224.567C323.916 224.567 323.173 224.858 322.618 225.439C322.076 226.019 321.805 226.865 321.805 227.975V233.842H320.043V219.514H321.805V224.741C322.154 224.199 322.631 223.78 323.238 223.483C323.858 223.186 324.548 223.038 325.31 223.038ZM339.739 224.954C340.049 224.348 340.488 223.877 341.056 223.541C341.637 223.205 342.341 223.038 343.167 223.038V224.858H342.702C340.727 224.858 339.739 225.929 339.739 228.072V233.842H337.978V223.231H339.739V224.954ZM344.736 228.498C344.736 227.413 344.955 226.465 345.394 225.652C345.833 224.825 346.433 224.186 347.195 223.735C347.969 223.283 348.828 223.057 349.77 223.057C350.699 223.057 351.506 223.257 352.19 223.657C352.875 224.057 353.384 224.561 353.72 225.167V223.231H355.501V233.842H353.72V231.867C353.371 232.486 352.849 233.003 352.152 233.416C351.468 233.816 350.667 234.016 349.751 234.016C348.808 234.016 347.956 233.784 347.195 233.319C346.433 232.854 345.833 232.202 345.394 231.363C344.955 230.524 344.736 229.569 344.736 228.498ZM353.72 228.517C353.72 227.717 353.559 227.02 353.236 226.426C352.913 225.832 352.474 225.38 351.919 225.071C351.377 224.748 350.777 224.587 350.119 224.587C349.46 224.587 348.86 224.741 348.318 225.051C347.776 225.361 347.343 225.813 347.021 226.407C346.698 227 346.537 227.697 346.537 228.498C346.537 229.311 346.698 230.021 347.021 230.628C347.343 231.221 347.776 231.68 348.318 232.002C348.86 232.312 349.46 232.467 350.119 232.467C350.777 232.467 351.377 232.312 351.919 232.002C352.474 231.68 352.913 231.221 353.236 230.628C353.559 230.021 353.72 229.317 353.72 228.517ZM360.822 224.683V230.937C360.822 231.454 360.931 231.822 361.151 232.041C361.37 232.248 361.751 232.351 362.293 232.351H363.591V233.842H362.003C361.022 233.842 360.286 233.616 359.796 233.164C359.305 232.712 359.06 231.97 359.06 230.937V224.683H357.685V223.231H359.06V220.559H360.822V223.231H363.591V224.683H360.822ZM375.6 228.13C375.6 228.466 375.581 228.82 375.542 229.195H367.061C367.126 230.24 367.481 231.06 368.126 231.654C368.785 232.235 369.579 232.525 370.508 232.525C371.27 232.525 371.902 232.351 372.405 232.002C372.922 231.641 373.283 231.163 373.49 230.57H375.387C375.103 231.589 374.535 232.422 373.683 233.067C372.831 233.7 371.773 234.016 370.508 234.016C369.501 234.016 368.598 233.79 367.797 233.338C367.01 232.887 366.39 232.248 365.938 231.422C365.487 230.582 365.261 229.614 365.261 228.517C365.261 227.42 365.48 226.458 365.919 225.632C366.358 224.806 366.971 224.174 367.758 223.735C368.559 223.283 369.475 223.057 370.508 223.057C371.515 223.057 372.405 223.276 373.18 223.715C373.954 224.154 374.548 224.761 374.961 225.535C375.387 226.297 375.6 227.162 375.6 228.13ZM373.78 227.762C373.78 227.091 373.632 226.516 373.335 226.039C373.038 225.548 372.631 225.18 372.115 224.935C371.612 224.677 371.05 224.548 370.43 224.548C369.54 224.548 368.778 224.832 368.146 225.4C367.526 225.968 367.171 226.755 367.081 227.762H373.78Z" fill="#6E6E6E"/>
<path d="M428.947 230.79C428.947 313.487 361.908 380.526 279.21 380.526C196.513 380.526 129.474 313.487 129.474 230.79C129.474 148.092 196.513 81.0527 279.21 81.0527C361.908 81.0527 428.947 148.092 428.947 230.79ZM162.39 230.79C162.39 295.308 214.692 347.61 279.21 347.61C343.729 347.61 396.031 295.308 396.031 230.79C396.031 166.271 343.729 113.969 279.21 113.969C214.692 113.969 162.39 166.271 162.39 230.79Z" fill="#0AB253"/>
<path d="M224.278 352.068C220.496 360.418 210.601 364.198 202.72 359.516C176.148 343.727 154.984 320.015 142.339 291.514C129.694 263.012 126.317 231.41 132.444 201.113C134.261 192.128 143.704 187.329 152.432 190.128C161.161 192.928 165.841 202.272 164.308 211.31C160.499 233.776 163.343 257.001 172.683 278.052C182.022 299.102 197.332 316.796 216.544 329.049C224.273 333.978 228.06 343.718 224.278 352.068Z" fill="#4489FF"/>
<g filter="url(#filter0_d_215_423)">
<path d="M279.211 97.8222C279.211 88.5607 286.742 80.9557 295.945 81.9908C313.835 84.0028 331.263 89.2302 347.374 97.4671C368.476 108.256 386.715 123.899 400.593 143.112C414.47 162.324 423.589 184.555 427.2 207.979C430.81 231.402 428.809 255.348 421.361 277.847C413.913 300.346 401.23 320.756 384.357 337.398C367.483 354.041 346.9 366.44 324.3 373.576C301.7 380.713 277.729 382.383 254.357 378.449C236.514 375.446 219.41 369.242 203.853 360.182C195.85 355.521 194.344 344.924 199.87 337.492C205.396 330.06 215.858 328.637 224.008 333.037C235.189 339.074 247.319 343.254 259.924 345.376C278.061 348.428 296.663 347.132 314.2 341.594C331.738 336.056 347.711 326.434 360.805 313.519C373.9 300.605 383.741 284.767 389.521 267.307C395.301 249.847 396.854 231.265 394.052 213.088C391.25 194.911 384.174 177.659 373.405 162.75C362.636 147.841 348.482 135.702 332.106 127.329C320.725 121.511 308.497 117.627 295.922 115.8C286.757 114.468 279.211 107.084 279.211 97.8222Z" fill="#EF9121"/>
</g>
<path opacity="0.5" d="M26.1765 32.8492C26.1765 31.4048 26.5022 30.109 27.1537 28.9619C27.8051 27.8007 28.6902 26.8944 29.8089 26.2429C30.9418 25.5915 32.1951 25.2658 33.5688 25.2658C35.1832 25.2658 36.5922 25.6552 37.7959 26.4341C38.9997 27.213 39.8777 28.3176 40.43 29.7479H38.1146C37.7039 28.8557 37.1091 28.1689 36.3302 27.6874C35.5655 27.2059 34.645 26.9652 33.5688 26.9652C32.535 26.9652 31.6074 27.2059 30.7861 27.6874C29.9647 28.1689 29.3204 28.8557 28.853 29.7479C28.3857 30.6259 28.152 31.6597 28.152 32.8492C28.152 34.0246 28.3857 35.0584 28.853 35.9506C29.3204 36.8286 29.9647 37.5083 30.7861 37.9898C31.6074 38.4713 32.535 38.712 33.5688 38.712C34.645 38.712 35.5655 38.4784 36.3302 38.011C37.1091 37.5295 37.7039 36.8427 38.1146 35.9506H40.43C39.8777 37.3667 38.9997 38.4642 37.7959 39.2431C36.5922 40.0078 35.1832 40.3901 33.5688 40.3901C32.1951 40.3901 30.9418 40.0715 29.8089 39.4343C28.6902 38.7828 27.8051 37.8836 27.1537 36.7365C26.5022 35.5894 26.1765 34.2937 26.1765 32.8492ZM50.0199 40.4114C48.6463 40.4114 47.393 40.0928 46.2601 39.4555C45.1272 38.8041 44.2279 37.9048 43.5623 36.7578C42.9109 35.5965 42.5852 34.2937 42.5852 32.8492C42.5852 31.4048 42.9109 30.109 43.5623 28.9619C44.2279 27.8007 45.1272 26.9014 46.2601 26.2642C47.393 25.6127 48.6463 25.287 50.0199 25.287C51.4077 25.287 52.6681 25.6127 53.801 26.2642C54.9339 26.9014 55.8261 27.7936 56.4775 28.9407C57.1289 30.0877 57.4547 31.3906 57.4547 32.8492C57.4547 34.3078 57.1289 35.6107 56.4775 36.7578C55.8261 37.9048 54.9339 38.8041 53.801 39.4555C52.6681 40.0928 51.4077 40.4114 50.0199 40.4114ZM50.0199 38.7333C51.0537 38.7333 51.9813 38.4925 52.8026 38.011C53.6382 37.5295 54.2896 36.8427 54.7569 35.9506C55.2384 35.0584 55.4791 34.0246 55.4791 32.8492C55.4791 31.6597 55.2384 30.6259 54.7569 29.7479C54.2896 28.8557 53.6452 28.1689 52.8239 27.6874C52.0025 27.2059 51.0679 26.9652 50.0199 26.9652C48.972 26.9652 48.0373 27.2059 47.216 27.6874C46.3946 28.1689 45.7432 28.8557 45.2617 29.7479C44.7944 30.6259 44.5607 31.6597 44.5607 32.8492C44.5607 34.0246 44.7944 35.0584 45.2617 35.9506C45.7432 36.8427 46.3946 37.5295 47.216 38.011C48.0515 38.4925 48.9861 38.7333 50.0199 38.7333ZM71.6472 40.2627H69.7141L61.9395 28.4733V40.2627H60.0065V25.4357H61.9395L69.7141 37.2038V25.4357H71.6472V40.2627ZM84.0552 25.457V27.0289H80.0192V40.2627H78.0862V27.0289H74.0289V25.457H84.0552ZM88.3677 25.457V40.2627H86.4346V25.457H88.3677ZM103.303 40.2627H101.37L93.5952 28.4733V40.2627H91.6622V25.4357H93.5952L101.37 37.2038V25.4357H103.303V40.2627ZM108.489 25.457V34.8247C108.489 36.1417 108.807 37.1189 109.444 37.7561C110.096 38.3934 110.995 38.712 112.142 38.712C113.275 38.712 114.16 38.3934 114.797 37.7561C115.449 37.1189 115.775 36.1417 115.775 34.8247V25.457H117.708V34.8035C117.708 36.0355 117.46 37.0764 116.964 37.9261C116.469 38.7616 115.796 39.3847 114.946 39.7954C114.111 40.206 113.169 40.4114 112.121 40.4114C111.073 40.4114 110.124 40.206 109.275 39.7954C108.439 39.3847 107.773 38.7616 107.278 37.9261C106.796 37.0764 106.556 36.0355 106.556 34.8035V25.457H108.489ZM122.865 25.457V40.2627H120.932V25.457H122.865ZM135.273 25.457V27.0289H131.237V40.2627H129.304V27.0289H125.246V25.457H135.273ZM148.018 25.457L143.196 34.676V40.2627H141.263V34.676L136.42 25.457H138.566L142.219 32.9554L145.873 25.457H148.018Z" fill="black"/>
<path d="M31.1299 57.8988C32.0464 57.8988 32.8467 58.0988 33.5308 58.499C34.2279 58.8992 34.7442 59.4026 35.0798 60.0093V58.073H36.8612V68.9159C36.8612 69.8841 36.6546 70.7425 36.2416 71.4911C35.8285 72.2527 35.2347 72.8465 34.4602 73.2725C33.6987 73.6984 32.808 73.9114 31.7882 73.9114C30.3941 73.9114 29.2324 73.5823 28.303 72.9239C27.3736 72.2656 26.825 71.3685 26.6572 70.2326H28.3998C28.5934 70.878 28.9936 71.3943 29.6003 71.7816C30.207 72.1817 30.9363 72.3818 31.7882 72.3818C32.7563 72.3818 33.5438 72.0785 34.1504 71.4718C34.77 70.8651 35.0798 70.0131 35.0798 68.9159V66.6893C34.7313 67.3089 34.215 67.8252 33.5308 68.2383C32.8467 68.6513 32.0464 68.8579 31.1299 68.8579C30.1876 68.8579 29.3292 68.6255 28.5547 68.1608C27.7931 67.6961 27.1929 67.0442 26.754 66.2052C26.3151 65.3662 26.0957 64.411 26.0957 63.3396C26.0957 62.2553 26.3151 61.3065 26.754 60.4933C27.1929 59.6672 27.7931 59.0282 28.5547 58.5765C29.3292 58.1247 30.1876 57.8988 31.1299 57.8988ZM35.0798 63.3589C35.0798 62.5586 34.9185 61.8616 34.5958 61.2678C34.2731 60.674 33.8342 60.2222 33.2791 59.9125C32.737 59.5897 32.1368 59.4284 31.4784 59.4284C30.8201 59.4284 30.2199 59.5833 29.6777 59.8931C29.1356 60.2029 28.7032 60.6547 28.3805 61.2485C28.0578 61.8422 27.8964 62.5393 27.8964 63.3396C27.8964 64.1528 28.0578 64.8628 28.3805 65.4694C28.7032 66.0632 29.1356 66.5215 29.6777 66.8442C30.2199 67.154 30.8201 67.3089 31.4784 67.3089C32.1368 67.3089 32.737 67.154 33.2791 66.8442C33.8342 66.5215 34.2731 66.0632 34.5958 65.4694C34.9185 64.8628 35.0798 64.1593 35.0798 63.3589ZM41.7943 59.7963C42.1041 59.1896 42.543 58.7184 43.111 58.3828C43.6918 58.0472 44.3953 57.8794 45.2215 57.8794V59.6995H44.7568C42.7818 59.6995 41.7943 60.7708 41.7943 62.9136V68.6836H40.0324V58.073H41.7943V59.7963ZM52.0766 68.8579C51.0827 68.8579 50.1791 68.632 49.3659 68.1802C48.5656 67.7284 47.9331 67.0894 47.4684 66.2633C47.0166 65.4243 46.7907 64.4561 46.7907 63.3589C46.7907 62.2747 47.0231 61.3194 47.4878 60.4933C47.9654 59.6543 48.6108 59.0153 49.424 58.5765C50.2372 58.1247 51.1472 57.8988 52.1541 57.8988C53.1609 57.8988 54.071 58.1247 54.8842 58.5765C55.6974 59.0153 56.3364 59.6478 56.8011 60.474C57.2787 61.3001 57.5175 62.2617 57.5175 63.3589C57.5175 64.4561 57.2722 65.4243 56.7817 66.2633C56.3041 67.0894 55.6522 67.7284 54.8261 68.1802C54 68.632 53.0835 68.8579 52.0766 68.8579ZM52.0766 67.3089C52.7091 67.3089 53.3029 67.1604 53.858 66.8635C54.413 66.5666 54.8584 66.1213 55.194 65.5275C55.5425 64.9338 55.7168 64.2109 55.7168 63.3589C55.7168 62.507 55.549 61.7841 55.2133 61.1904C54.8777 60.5966 54.4388 60.1577 53.8967 59.8737C53.3546 59.5768 52.7672 59.4284 52.1347 59.4284C51.4893 59.4284 50.8955 59.5768 50.3534 59.8737C49.8242 60.1577 49.3982 60.5966 49.0755 61.1904C48.7528 61.7841 48.5914 62.507 48.5914 63.3589C48.5914 64.2238 48.7463 64.9531 49.0561 65.5469C49.3788 66.1407 49.8048 66.586 50.334 66.8829C50.8633 67.1669 51.4441 67.3089 52.0766 67.3089ZM74.1623 58.073L70.8513 68.6836H69.0312L66.4754 60.261L63.9196 68.6836H62.0995L58.7692 58.073H60.5699L63.0096 66.9797L65.6428 58.073H67.4435L70.0187 66.9991L72.4197 58.073H74.1623ZM78.2538 59.5252V65.7792C78.2538 66.2956 78.3635 66.6635 78.5829 66.8829C78.8024 67.0894 79.1832 67.1927 79.7253 67.1927H81.0226V68.6836H79.4349C78.4538 68.6836 77.7181 68.4577 77.2276 68.0059C76.7371 67.5541 76.4918 66.8119 76.4918 65.7792V59.5252H75.1171V58.073H76.4918V55.401H78.2538V58.073H81.0226V59.5252H78.2538ZM88.6176 57.8794C89.4179 57.8794 90.1408 58.0537 90.7862 58.4022C91.4316 58.7378 91.935 59.2477 92.2965 59.9318C92.6708 60.616 92.858 61.4485 92.858 62.4296V68.6836H91.1154V62.6813C91.1154 61.6228 90.8507 60.816 90.3215 60.261C89.7923 59.693 89.0694 59.409 88.1529 59.409C87.2235 59.409 86.4813 59.6995 85.9262 60.2803C85.3841 60.8612 85.113 61.7067 85.113 62.8168V68.6836H83.3511V54.3555H85.113V59.5833C85.4616 59.0411 85.9392 58.6216 86.5458 58.3247C87.1654 58.0279 87.856 57.8794 88.6176 57.8794ZM103.435 59.5252V65.7792C103.435 66.2956 103.544 66.6635 103.764 66.8829C103.983 67.0894 104.364 67.1927 104.906 67.1927H106.203V68.6836H104.616C103.635 68.6836 102.899 68.4577 102.408 68.0059C101.918 67.5541 101.673 66.8119 101.673 65.7792V59.5252H100.298V58.073H101.673V55.401H103.435V58.073H106.203V59.5252H103.435ZM113.798 57.8794C114.599 57.8794 115.322 58.0537 115.967 58.4022C116.612 58.7378 117.116 59.2477 117.477 59.9318C117.852 60.616 118.039 61.4485 118.039 62.4296V68.6836H116.296V62.6813C116.296 61.6228 116.032 60.816 115.502 60.261C114.973 59.693 114.25 59.409 113.334 59.409C112.404 59.409 111.662 59.6995 111.107 60.2803C110.565 60.8612 110.294 61.7067 110.294 62.8168V68.6836H108.532V54.3555H110.294V59.5833C110.642 59.0411 111.12 58.6216 111.727 58.3247C112.346 58.0279 113.037 57.8794 113.798 57.8794ZM120.452 63.3396C120.452 62.2553 120.672 61.3065 121.111 60.4933C121.55 59.6672 122.15 59.0282 122.911 58.5765C123.686 58.1247 124.544 57.8988 125.487 57.8988C126.416 57.8988 127.223 58.0988 127.907 58.499C128.591 58.8992 129.101 59.4026 129.436 60.0093V58.073H131.218V68.6836H129.436V66.7086C129.088 67.3282 128.565 67.8446 127.868 68.2576C127.184 68.6578 126.384 68.8579 125.467 68.8579C124.525 68.8579 123.673 68.6255 122.911 68.1608C122.15 67.6961 121.55 67.0442 121.111 66.2052C120.672 65.3662 120.452 64.411 120.452 63.3396ZM129.436 63.3589C129.436 62.5586 129.275 61.8616 128.952 61.2678C128.63 60.674 128.191 60.2222 127.636 59.9125C127.094 59.5897 126.493 59.4284 125.835 59.4284C125.177 59.4284 124.577 59.5833 124.034 59.8931C123.492 60.2029 123.06 60.6547 122.737 61.2485C122.414 61.8422 122.253 62.5393 122.253 63.3396C122.253 64.1528 122.414 64.8628 122.737 65.4694C123.06 66.0632 123.492 66.5215 124.034 66.8442C124.577 67.154 125.177 67.3089 125.835 67.3089C126.493 67.3089 127.094 67.154 127.636 66.8442C128.191 66.5215 128.63 66.0632 128.952 65.4694C129.275 64.8628 129.436 64.1593 129.436 63.3589ZM136.538 59.5252V65.7792C136.538 66.2956 136.648 66.6635 136.867 66.8829C137.087 67.0894 137.468 67.1927 138.01 67.1927H139.307V68.6836H137.719C136.738 68.6836 136.003 68.4577 135.512 68.0059C135.021 67.5541 134.776 66.8119 134.776 65.7792V59.5252H133.402V58.073H134.776V55.401H136.538V58.073H139.307V59.5252H136.538ZM146.333 63.3589C146.333 62.2617 146.552 61.3065 146.991 60.4933C147.43 59.6672 148.037 59.0282 148.811 58.5765C149.599 58.1247 150.496 57.8988 151.503 57.8988C152.806 57.8988 153.878 58.215 154.717 58.8475C155.569 59.48 156.13 60.3578 156.401 61.4808H154.504C154.323 60.8354 153.968 60.3255 153.439 59.9512C152.922 59.5768 152.277 59.3897 151.503 59.3897C150.496 59.3897 149.683 59.7382 149.063 60.4352C148.443 61.1194 148.134 62.0939 148.134 63.3589C148.134 64.6369 148.443 65.6243 149.063 66.3214C149.683 67.0184 150.496 67.367 151.503 67.367C152.277 67.367 152.922 67.1862 153.439 66.8248C153.955 66.4634 154.31 65.947 154.504 65.2758H156.401C156.117 66.3601 155.549 67.2314 154.697 67.8897C153.845 68.5351 152.78 68.8579 151.503 68.8579C150.496 68.8579 149.599 68.632 148.811 68.1802C148.037 67.7284 147.43 67.0894 146.991 66.2633C146.552 65.4372 146.333 64.4691 146.333 63.3589ZM163.573 68.8579C162.58 68.8579 161.676 68.632 160.863 68.1802C160.062 67.7284 159.43 67.0894 158.965 66.2633C158.513 65.4243 158.288 64.4561 158.288 63.3589C158.288 62.2747 158.52 61.3194 158.985 60.4933C159.462 59.6543 160.108 59.0153 160.921 58.5765C161.734 58.1247 162.644 57.8988 163.651 57.8988C164.658 57.8988 165.568 58.1247 166.381 58.5765C167.194 59.0153 167.833 59.6478 168.298 60.474C168.776 61.3001 169.014 62.2617 169.014 63.3589C169.014 64.4561 168.769 65.4243 168.279 66.2633C167.801 67.0894 167.149 67.7284 166.323 68.1802C165.497 68.632 164.58 68.8579 163.573 68.8579ZM163.573 67.3089C164.206 67.3089 164.8 67.1604 165.355 66.8635C165.91 66.5666 166.355 66.1213 166.691 65.5275C167.039 64.9338 167.214 64.2109 167.214 63.3589C167.214 62.507 167.046 61.7841 166.71 61.1904C166.375 60.5966 165.936 60.1577 165.394 59.8737C164.851 59.5768 164.264 59.4284 163.632 59.4284C162.986 59.4284 162.392 59.5768 161.85 59.8737C161.321 60.1577 160.895 60.5966 160.572 61.1904C160.25 61.7841 160.088 62.507 160.088 63.3589C160.088 64.2238 160.243 64.9531 160.553 65.5469C160.876 66.1407 161.302 66.586 161.831 66.8829C162.36 67.1669 162.941 67.3089 163.573 67.3089ZM184.284 57.8794C185.111 57.8794 185.846 58.0537 186.492 58.4022C187.137 58.7378 187.647 59.2477 188.021 59.9318C188.396 60.616 188.583 61.4485 188.583 62.4296V68.6836H186.84V62.6813C186.84 61.6228 186.576 60.816 186.046 60.261C185.53 59.693 184.827 59.409 183.936 59.409C183.019 59.409 182.29 59.7059 181.748 60.2997C181.206 60.8806 180.935 61.7261 180.935 62.8362V68.6836H179.192V62.6813C179.192 61.6228 178.927 60.816 178.398 60.261C177.882 59.693 177.178 59.409 176.288 59.409C175.371 59.409 174.642 59.7059 174.1 60.2997C173.558 60.8806 173.287 61.7261 173.287 62.8362V68.6836H171.525V58.073H173.287V59.6027C173.635 59.0476 174.1 58.6216 174.681 58.3247C175.274 58.0279 175.926 57.8794 176.636 57.8794C177.527 57.8794 178.314 58.0795 178.998 58.4796C179.683 58.8798 180.192 59.4671 180.528 60.2416C180.825 59.4929 181.315 58.9121 182 58.499C182.684 58.0859 183.445 57.8794 184.284 57.8794ZM193.429 60.0286C193.777 59.4219 194.294 58.9185 194.978 58.5184C195.675 58.1053 196.481 57.8988 197.398 57.8988C198.34 57.8988 199.192 58.1247 199.954 58.5765C200.728 59.0282 201.335 59.6672 201.774 60.4933C202.213 61.3065 202.432 62.2553 202.432 63.3396C202.432 64.411 202.213 65.3662 201.774 66.2052C201.335 67.0442 200.728 67.6961 199.954 68.1608C199.192 68.6255 198.34 68.8579 197.398 68.8579C196.494 68.8579 195.694 68.6578 194.997 68.2576C194.313 67.8446 193.79 67.3347 193.429 66.728V73.7178H191.667V58.073H193.429V60.0286ZM200.631 63.3396C200.631 62.5393 200.47 61.8422 200.147 61.2485C199.825 60.6547 199.386 60.2029 198.831 59.8931C198.289 59.5833 197.688 59.4284 197.03 59.4284C196.385 59.4284 195.784 59.5897 195.229 59.9125C194.687 60.2222 194.248 60.6805 193.913 61.2872C193.59 61.881 193.429 62.5715 193.429 63.3589C193.429 64.1593 193.59 64.8628 193.913 65.4694C194.248 66.0632 194.687 66.5215 195.229 66.8442C195.784 67.154 196.385 67.3089 197.03 67.3089C197.688 67.3089 198.289 67.154 198.831 66.8442C199.386 66.5215 199.825 66.0632 200.147 65.4694C200.47 64.8628 200.631 64.1528 200.631 63.3396ZM209.573 68.8579C208.579 68.8579 207.675 68.632 206.862 68.1802C206.062 67.7284 205.429 67.0894 204.964 66.2633C204.513 65.4243 204.287 64.4561 204.287 63.3589C204.287 62.2747 204.519 61.3194 204.984 60.4933C205.461 59.6543 206.107 59.0153 206.92 58.5765C207.733 58.1247 208.643 57.8988 209.65 57.8988C210.657 57.8988 211.567 58.1247 212.38 58.5765C213.193 59.0153 213.832 59.6478 214.297 60.474C214.775 61.3001 215.013 62.2617 215.013 63.3589C215.013 64.4561 214.768 65.4243 214.278 66.2633C213.8 67.0894 213.148 67.7284 212.322 68.1802C211.496 68.632 210.58 68.8579 209.573 68.8579ZM209.573 67.3089C210.205 67.3089 210.799 67.1604 211.354 66.8635C211.909 66.5666 212.354 66.1213 212.69 65.5275C213.039 64.9338 213.213 64.2109 213.213 63.3589C213.213 62.507 213.045 61.7841 212.709 61.1904C212.374 60.5966 211.935 60.1577 211.393 59.8737C210.851 59.5768 210.263 59.4284 209.631 59.4284C208.985 59.4284 208.392 59.5768 207.849 59.8737C207.32 60.1577 206.894 60.5966 206.572 61.1904C206.249 61.7841 206.087 62.507 206.087 63.3589C206.087 64.2238 206.242 64.9531 206.552 65.5469C206.875 66.1407 207.301 66.586 207.83 66.8829C208.359 67.1669 208.94 67.3089 209.573 67.3089ZM226.934 58.073V68.6836H225.172V67.1152C224.836 67.6574 224.365 68.0834 223.758 68.3932C223.165 68.69 222.506 68.8385 221.783 68.8385C220.957 68.8385 220.215 68.6707 219.557 68.3351C218.899 67.9865 218.376 67.4702 217.988 66.7861C217.614 66.1019 217.427 65.2694 217.427 64.2883V58.073H219.17V64.056C219.17 65.1016 219.434 65.9083 219.963 66.4763C220.493 67.0313 221.216 67.3089 222.132 67.3089C223.074 67.3089 223.817 67.0184 224.359 66.4376C224.901 65.8567 225.172 65.0112 225.172 63.9011V58.073H226.934ZM235.272 57.8794C236.563 57.8794 237.609 58.2731 238.409 59.0605C239.209 59.835 239.609 60.958 239.609 62.4296V68.6836H237.867V62.6813C237.867 61.6228 237.602 60.816 237.073 60.261C236.544 59.693 235.821 59.409 234.904 59.409C233.975 59.409 233.233 59.6995 232.678 60.2803C232.136 60.8612 231.864 61.7067 231.864 62.8168V68.6836H230.102V58.073H231.864V59.5833C232.213 59.0411 232.684 58.6216 233.278 58.3247C233.885 58.0279 234.549 57.8794 235.272 57.8794ZM242.023 63.3396C242.023 62.2553 242.242 61.3065 242.681 60.4933C243.12 59.6672 243.72 59.0282 244.482 58.5765C245.256 58.1247 246.121 57.8988 247.076 57.8988C247.903 57.8988 248.671 58.0924 249.381 58.4796C250.091 58.854 250.633 59.3509 251.007 59.9705V54.3555H252.788V68.6836H251.007V66.6893C250.658 67.3218 250.142 67.8446 249.458 68.2576C248.774 68.6578 247.974 68.8579 247.057 68.8579C246.115 68.8579 245.256 68.6255 244.482 68.1608C243.72 67.6961 243.12 67.0442 242.681 66.2052C242.242 65.3662 242.023 64.411 242.023 63.3396ZM251.007 63.3589C251.007 62.5586 250.846 61.8616 250.523 61.2678C250.2 60.674 249.761 60.2222 249.206 59.9125C248.664 59.5897 248.064 59.4284 247.406 59.4284C246.747 59.4284 246.147 59.5833 245.605 59.8931C245.063 60.2029 244.63 60.6547 244.308 61.2485C243.985 61.8422 243.824 62.5393 243.824 63.3396C243.824 64.1528 243.985 64.8628 244.308 65.4694C244.63 66.0632 245.063 66.5215 245.605 66.8442C246.147 67.154 246.747 67.3089 247.406 67.3089C248.064 67.3089 248.664 67.154 249.206 66.8442C249.761 66.5215 250.2 66.0632 250.523 65.4694C250.846 64.8628 251.007 64.1593 251.007 63.3589ZM259.716 68.8579C258.903 68.8579 258.173 68.7223 257.528 68.4512C256.882 68.1673 256.373 67.78 255.998 67.2895C255.624 66.7861 255.417 66.2117 255.379 65.5663H257.199C257.25 66.0955 257.496 66.5279 257.935 66.8635C258.386 67.1991 258.974 67.367 259.696 67.367C260.368 67.367 260.897 67.2185 261.284 66.9216C261.671 66.6247 261.865 66.2504 261.865 65.7986C261.865 65.3339 261.659 64.9918 261.245 64.7724C260.832 64.5401 260.193 64.3142 259.329 64.0947C258.541 63.8882 257.896 63.6817 257.392 63.4751C256.902 63.2557 256.476 62.9394 256.114 62.5264C255.766 62.1004 255.592 61.5453 255.592 60.8612C255.592 60.3191 255.753 59.8221 256.076 59.3703C256.398 58.9185 256.857 58.5635 257.45 58.3054C258.044 58.0343 258.722 57.8988 259.483 57.8988C260.658 57.8988 261.607 58.1957 262.33 58.7894C263.053 59.3832 263.44 60.1964 263.491 61.2291H261.73C261.691 60.674 261.465 60.2287 261.052 59.8931C260.652 59.5575 260.11 59.3897 259.425 59.3897C258.793 59.3897 258.289 59.5252 257.915 59.7963C257.541 60.0674 257.354 60.4223 257.354 60.8612C257.354 61.2097 257.463 61.5002 257.683 61.7325C257.915 61.952 258.199 62.1327 258.535 62.2747C258.883 62.4037 259.361 62.5522 259.968 62.72C260.729 62.9265 261.349 63.1331 261.826 63.3396C262.304 63.5332 262.711 63.8301 263.046 64.2303C263.395 64.6304 263.575 65.1532 263.588 65.7986C263.588 66.3795 263.427 66.9023 263.104 67.367C262.782 67.8317 262.323 68.1995 261.73 68.4706C261.149 68.7288 260.477 68.8579 259.716 68.8579ZM276.252 68.8579C275.259 68.8579 274.355 68.632 273.542 68.1802C272.741 67.7284 272.109 67.0894 271.644 66.2633C271.192 65.4243 270.967 64.4561 270.967 63.3589C270.967 62.2747 271.199 61.3194 271.664 60.4933C272.141 59.6543 272.787 59.0153 273.6 58.5765C274.413 58.1247 275.323 57.8988 276.33 57.8988C277.337 57.8988 278.247 58.1247 279.06 58.5765C279.873 59.0153 280.512 59.6478 280.977 60.474C281.455 61.3001 281.693 62.2617 281.693 63.3589C281.693 64.4561 281.448 65.4243 280.958 66.2633C280.48 67.0894 279.828 67.7284 279.002 68.1802C278.176 68.632 277.259 68.8579 276.252 68.8579ZM276.252 67.3089C276.885 67.3089 277.479 67.1604 278.034 66.8635C278.589 66.5666 279.034 66.1213 279.37 65.5275C279.718 64.9338 279.893 64.2109 279.893 63.3589C279.893 62.507 279.725 61.7841 279.389 61.1904C279.054 60.5966 278.615 60.1577 278.073 59.8737C277.53 59.5768 276.943 59.4284 276.311 59.4284C275.665 59.4284 275.071 59.5768 274.529 59.8737C274 60.1577 273.574 60.5966 273.251 61.1904C272.929 61.7841 272.767 62.507 272.767 63.3589C272.767 64.2238 272.922 64.9531 273.232 65.5469C273.555 66.1407 273.981 66.586 274.51 66.8829C275.039 67.1669 275.62 67.3089 276.252 67.3089ZM288.154 67.0572L291.445 58.073H293.323L289.16 68.6836H287.108L282.945 58.073H284.843L288.154 67.0572ZM304.932 62.9717C304.932 63.3073 304.913 63.6623 304.874 64.0366H296.393C296.458 65.0822 296.813 65.9019 297.458 66.4956C298.116 67.0765 298.91 67.367 299.84 67.367C300.601 67.367 301.234 67.1927 301.737 66.8442C302.253 66.4827 302.615 66.0051 302.821 65.4114H304.719C304.435 66.4311 303.867 67.2637 303.015 67.9091C302.163 68.5416 301.105 68.8579 299.84 68.8579C298.833 68.8579 297.929 68.632 297.129 68.1802C296.341 67.7284 295.722 67.0894 295.27 66.2633C294.818 65.4243 294.592 64.4561 294.592 63.3589C294.592 62.2617 294.812 61.3001 295.251 60.474C295.69 59.6478 296.303 59.0153 297.09 58.5765C297.89 58.1247 298.807 57.8988 299.84 57.8988C300.846 57.8988 301.737 58.1182 302.512 58.5571C303.286 58.996 303.88 59.6027 304.293 60.3771C304.719 61.1387 304.932 62.0036 304.932 62.9717ZM303.112 62.6038C303.112 61.9326 302.963 61.3582 302.667 60.8806C302.37 60.3901 301.963 60.0222 301.447 59.7769C300.943 59.5188 300.382 59.3897 299.762 59.3897C298.871 59.3897 298.11 59.6736 297.477 60.2416C296.858 60.8096 296.503 61.597 296.412 62.6038H303.112ZM309.213 59.7963C309.523 59.1896 309.962 58.7184 310.53 58.3828C311.111 58.0472 311.814 57.8794 312.64 57.8794V59.6995H312.176C310.201 59.6995 309.213 60.7708 309.213 62.9136V68.6836H307.451V58.073H309.213V59.7963ZM322.373 59.5252V65.7792C322.373 66.2956 322.483 66.6635 322.702 66.8829C322.921 67.0894 323.302 67.1927 323.844 67.1927H325.142V68.6836H323.554C322.573 68.6836 321.837 68.4577 321.347 68.0059C320.856 67.5541 320.611 66.8119 320.611 65.7792V59.5252H319.236V58.073H320.611V55.401H322.373V58.073H325.142V59.5252H322.373ZM328.38 56.3498C328.045 56.3498 327.761 56.2336 327.528 56.0013C327.296 55.7689 327.18 55.4849 327.18 55.1493C327.18 54.8137 327.296 54.5297 327.528 54.2974C327.761 54.065 328.045 53.9489 328.38 53.9489C328.703 53.9489 328.974 54.065 329.193 54.2974C329.426 54.5297 329.542 54.8137 329.542 55.1493C329.542 55.4849 329.426 55.7689 329.193 56.0013C328.974 56.2336 328.703 56.3498 328.38 56.3498ZM329.232 58.073V68.6836H327.47V58.073H329.232ZM345.188 57.8794C346.015 57.8794 346.75 58.0537 347.396 58.4022C348.041 58.7378 348.551 59.2477 348.925 59.9318C349.3 60.616 349.487 61.4485 349.487 62.4296V68.6836H347.744V62.6813C347.744 61.6228 347.48 60.816 346.95 60.261C346.434 59.693 345.731 59.409 344.84 59.409C343.923 59.409 343.194 59.7059 342.652 60.2997C342.11 60.8806 341.839 61.7261 341.839 62.8362V68.6836H340.096V62.6813C340.096 61.6228 339.832 60.816 339.302 60.261C338.786 59.693 338.083 59.409 337.192 59.409C336.275 59.409 335.546 59.7059 335.004 60.2997C334.462 60.8806 334.191 61.7261 334.191 62.8362V68.6836H332.429V58.073H334.191V59.6027C334.539 59.0476 335.004 58.6216 335.585 58.3247C336.179 58.0279 336.83 57.8794 337.54 57.8794C338.431 57.8794 339.218 58.0795 339.903 58.4796C340.587 58.8798 341.097 59.4671 341.432 60.2416C341.729 59.4929 342.22 58.9121 342.904 58.499C343.588 58.0859 344.349 57.8794 345.188 57.8794ZM362.252 62.9717C362.252 63.3073 362.233 63.6623 362.194 64.0366H353.713C353.778 65.0822 354.133 65.9019 354.778 66.4956C355.436 67.0765 356.23 67.367 357.16 67.367C357.921 67.367 358.554 67.1927 359.057 66.8442C359.574 66.4827 359.935 66.0051 360.142 65.4114H362.039C361.755 66.4311 361.187 67.2637 360.335 67.9091C359.483 68.5416 358.425 68.8579 357.16 68.8579C356.153 68.8579 355.249 68.632 354.449 68.1802C353.662 67.7284 353.042 67.0894 352.59 66.2633C352.138 65.4243 351.913 64.4561 351.913 63.3589C351.913 62.2617 352.132 61.3001 352.571 60.474C353.01 59.6478 353.623 59.0153 354.41 58.5765C355.211 58.1247 356.127 57.8988 357.16 57.8988C358.167 57.8988 359.057 58.1182 359.832 58.5571C360.606 58.996 361.2 59.6027 361.613 60.3771C362.039 61.1387 362.252 62.0036 362.252 62.9717ZM360.432 62.6038C360.432 61.9326 360.283 61.3582 359.987 60.8806C359.69 60.3901 359.283 60.0222 358.767 59.7769C358.263 59.5188 357.702 59.3897 357.082 59.3897C356.192 59.3897 355.43 59.6736 354.797 60.2416C354.178 60.8096 353.823 61.597 353.733 62.6038H360.432ZM365.333 68.7998C364.997 68.7998 364.713 68.6836 364.481 68.4512C364.249 68.2189 364.132 67.9349 364.132 67.5993C364.132 67.2637 364.249 66.9797 364.481 66.7474C364.713 66.515 364.997 66.3988 365.333 66.3988C365.656 66.3988 365.927 66.515 366.146 66.7474C366.378 66.9797 366.495 67.2637 366.495 67.5993C366.495 67.9349 366.378 68.2189 366.146 68.4512C365.927 68.6836 365.656 68.7998 365.333 68.7998Z" fill="#323131"/>
</g>
<rect x="0.526316" y="0.526316" width="406.316" height="280" rx="16.3158" stroke="#DFDFDF" stroke-width="1.05263"/>
<defs>
<filter id="filter0_d_215_423" x="186.371" y="71.6867" width="252.786" height="319.049" filterUnits="userSpaceOnUse" color-interpolation-filters="sRGB">
<feFlood flood-opacity="0" result="BackgroundImageFix"/>
<feColorMatrix in="SourceAlpha" type="matrix" values="0 0 0 0 0 0 0 0 0 0 0 0 0 0 0 0 0 0 127 0" result="hardAlpha"/>
<feMorphology radius="5.10467" operator="dilate" in="SourceAlpha" result="effect1_dropShadow_215_423"/>
<feOffset/>
<feGaussianBlur stdDeviation="2.55233"/>
<feComposite in2="hardAlpha" operator="out"/>
<feColorMatrix type="matrix" values="0 0 0 0 0.937255 0 0 0 0 0.568627 0 0 0 0 0.129412 0 0 0 0.35 0"/>
<feBlend mode="normal" in2="BackgroundImageFix" result="effect1_dropShadow_215_423"/>
<feBlend mode="normal" in="SourceGraphic" in2="effect1_dropShadow_215_423" result="shape"/>
</filter>
<clipPath id="clip0_215_423">
<rect width="407.368" height="281.053" rx="16.8421" fill="white"/>
</clipPath>
</defs>
</svg>
