<svg width="1416" height="694" viewBox="0 0 1416 694" fill="none" xmlns="http://www.w3.org/2000/svg">
<mask id="path-1-inside-1_215_895" fill="white">
<path d="M0 20C0 8.9543 8.95431 0 20 0H1396C1407.05 0 1416 8.9543 1416 20V674C1416 685.046 1407.05 694 1396 694H20C8.95428 694 0 685.046 0 674V20Z"/>
</mask>
<path d="M0 20C0 8.9543 8.95431 0 20 0H1396C1407.05 0 1416 8.9543 1416 20V674C1416 685.046 1407.05 694 1396 694H20C8.95428 694 0 685.046 0 674V20Z" fill="url(#paint0_linear_215_895)"/>
<path d="M0 0H1416H0ZM1417 674C1417 685.598 1407.6 695 1396 695H20C8.40202 695 -1 685.598 -1 674H1C1 684.493 9.50659 693 20 693H1396C1406.49 693 1415 684.493 1415 674H1417ZM20 695C8.40202 695 -1 685.598 -1 674V21C-1 9.40202 8.40202 0 20 0C9.50659 0 1 8.9543 1 20V674C1 684.493 9.50659 693 20 693V695ZM1396 0C1407.6 0 1417 9.40202 1417 21V674C1417 685.598 1407.6 695 1396 695V693C1406.49 693 1415 684.493 1415 674V20C1415 8.9543 1406.49 0 1396 0Z" fill="#D8DBE0" mask="url(#path-1-inside-1_215_895)"/>
<defs>
<linearGradient id="paint0_linear_215_895" x1="708" y1="0" x2="708" y2="694" gradientUnits="userSpaceOnUse">
<stop stop-color="white"/>
<stop offset="0.682692" stop-color="#F4F7FF"/>
</linearGradient>
</defs>
</svg>
