<svg width="28" height="28" viewBox="0 0 28 28" fill="none" xmlns="http://www.w3.org/2000/svg">
<g filter="url(#filter0_d_215_344)">
<rect x="4" y="3" width="20" height="20" rx="10" fill="url(#paint0_linear_215_344)"/>
<rect x="4.25" y="3.25" width="19.5" height="19.5" rx="9.75" stroke="#FCF8F8" stroke-width="0.5"/>
<g clip-path="url(#clip0_215_344)">
<path d="M19.0001 12.54V13C18.9994 14.0782 18.6503 15.1273 18.0047 15.9909C17.3591 16.8545 16.4517 17.4862 15.4177 17.7919C14.3838 18.0977 13.2787 18.0609 12.2673 17.6873C11.2559 17.3136 10.3924 16.623 9.80554 15.7185C9.21869 14.814 8.93996 13.744 9.0109 12.6681C9.08184 11.5923 9.49866 10.5682 10.1992 9.74853C10.8997 8.9289 11.8465 8.35768 12.8982 8.12007C13.9499 7.88245 15.0502 7.99116 16.0351 8.42999" stroke="#345FFB" stroke-width="1.2" stroke-linecap="round" stroke-linejoin="round"/>
<path d="M19 9L14 14.005L12.5 12.505" stroke="#345FFB" stroke-width="1.2" stroke-linecap="round" stroke-linejoin="round"/>
</g>
</g>
<defs>
<filter id="filter0_d_215_344" x="0" y="0" width="28" height="28" filterUnits="userSpaceOnUse" color-interpolation-filters="sRGB">
<feFlood flood-opacity="0" result="BackgroundImageFix"/>
<feColorMatrix in="SourceAlpha" type="matrix" values="0 0 0 0 0 0 0 0 0 0 0 0 0 0 0 0 0 0 127 0" result="hardAlpha"/>
<feOffset dy="1"/>
<feGaussianBlur stdDeviation="2"/>
<feComposite in2="hardAlpha" operator="out"/>
<feColorMatrix type="matrix" values="0 0 0 0 0 0 0 0 0 0 0 0 0 0 0 0 0 0 0.1 0"/>
<feBlend mode="normal" in2="BackgroundImageFix" result="effect1_dropShadow_215_344"/>
<feBlend mode="normal" in="SourceGraphic" in2="effect1_dropShadow_215_344" result="shape"/>
</filter>
<linearGradient id="paint0_linear_215_344" x1="14" y1="3" x2="14.5" y2="35.5" gradientUnits="userSpaceOnUse">
<stop offset="0.265623" stop-color="white"/>
<stop offset="1" stop-color="#E0E0E0"/>
</linearGradient>
<clipPath id="clip0_215_344">
<rect width="12" height="12" fill="white" transform="translate(8 7)"/>
</clipPath>
</defs>
</svg>
